B612-Regular.sfdir
StartChar: exclam
Encoding: 257 33 257
GlifName: exclam
Width: 700
VWidth: 0
Flags: W
LayerCount: 2
Fore
SplineSet
405 1500 m 257
NamedP: "sh01"
 405 450 l 257
 195 429 l 257
NamedP: "fh01"
 195 1500 l 257
NamedP: "sh02"
 405 1500 l 257
NamedP: "sh01"
169 120 m 257
NamedP: "dh01"
 169 147 169 147 179.5 171 c 128
 190 195 190 195 208 213 c 128
 226 231 226 231 249.5 241.5 c 128
 273 252 273 252 300 252 c 257
NamedP: "mh01"
 327 252 327 252 351 241.5 c 128
 375 231 375 231 393 213 c 128
 411 195 411 195 421.5 171 c 128
 432 147 432 147 432 120 c 257
NamedP: "dh02"
 432 93 432 93 421.5 68.5 c 128
 411 44 411 44 393.5 26 c 128
 376 8 376 8 352.5 -3 c 128
 329 -14 329 -14 302 -14 c 257
NamedP: "ab01"
 274 -14 274 -14 250 -3 c 128
 226 8 226 8 208 26 c 128
 190 44 190 44 179.5 68.5 c 128
 169 93 169 93 169 120 c 257
NamedP: "dh01"
EndSplineSet
PickledDataWithLists: "(dp0
Vcom.adobe.type.autohint
p1
(c_codecs
encode
p2
(Vdata
p3
Vlatin1
p4
tp5
Rp6
g2
(V<data>\\u000a        <hintSetList>\\u000a          <hintset pointTag=\"sh01\">\\u000a            <hstem pos=\"-14\" width=\"266\"/>\\u000a            <vstem pos=\"169\" width=\"263\"/>\\u000a          </hintset>\\u000a        </hintSetList>\\u000a      </data>
p7
g4
tp8
Rp9
Ntp10
sVcom.fontlab.ttprogram
p11
(g2
(Vdata
p12
g4
tp13
Rp14
g2
(V<data>\\u000a        <ttProgram>\\u000a          <ttc code=\"doubleh\" point1=\"dh01\" point2=\"dh02\" stem=\"X: 208\"/>\\u000a          <ttc code=\"singleh\" point1=\"dh02\" point2=\"sh01\"/>\\u000a          <ttc code=\"singleh\" point1=\"sh01\" point2=\"sh02\" stem=\"X: 199\"/>\\u000a          <ttc code=\"mdeltah\" delta=\"8\" point=\"dh01\" ppm1=\"24\" ppm2=\"25\"/>\\u000a          <ttc code=\"mdeltah\" delta=\"8\" point=\"dh01\" ppm1=\"17\" ppm2=\"17\"/>\\u000a          <ttc code=\"mdeltah\" delta=\"5\" point=\"dh01\" ppm1=\"16\" ppm2=\"16\"/>\\u000a          <ttc code=\"mdeltah\" delta=\"-2\" point=\"mh01\" ppm1=\"19\" ppm2=\"19\"/>\\u000a          <ttc code=\"alignt\" point=\"sh01\" zone=\"t: 1\"/>\\u000a          <ttc code=\"alignb\" point=\"ab01\" zone=\"b: 0\"/>\\u000a          <ttc code=\"singlev\" point1=\"ab01\" point2=\"mh01\" stem=\"Y: 162\"/>\\u000a          <ttc code=\"mdeltav\" delta=\"-5\" point=\"mh01\" ppm1=\"19\" ppm2=\"19\"/>\\u000a          <ttc code=\"fdeltah\" delta=\"1\" point=\"fh01\" ppm1=\"16\" ppm2=\"16\"/>\\u000a          <ttc code=\"fdeltah\" delta=\"5\" point=\"fh01\" ppm1=\"31\" ppm2=\"31\"/>\\u000a          <ttc code=\"fdeltav\" delta=\"2\" point=\"fh01\" ppm1=\"16\" ppm2=\"16\"/>\\u000a          <ttc code=\"fdeltav\" delta=\"2\" point=\"fh01\" ppm1=\"31\" ppm2=\"31\"/>\\u000a        </ttProgram>\\u000a      </data>
p15
g4
tp16
Rp17
Ntp18
s."
EndChar
StartChar: quotedbl
Encoding: 439 34 439
GlifName: quotedbl
Width: 800
VWidth: 0
Flags: W
LayerCount: 2
Fore
SplineSet
325 1500 m 257
NamedP: "at01"
 325 1400 l 257
NamedP: "sh02"
 325 1362 325 1362 318 1306 c 128
 311 1250 311 1250 303 1196 c 257
 293 1134 293 1134 281 1067 c 257
NamedP: "sv01"
 194 1067 l 257
 182 1134 182 1134 172 1196 c 257
 164 1250 164 1250 157 1306 c 128
 150 1362 150 1362 150 1400 c 257
NamedP: "sh01"
 150 1500 l 257
 325 1500 l 257
NamedP: "at01"
626 1500 m 257
NamedP: "at02"
 626 1400 l 257
NamedP: "sh03"
 626 1362 626 1362 619 1306 c 128
 612 1250 612 1250 604 1196 c 257
 594 1134 594 1134 582 1067 c 257
NamedP: "sv02"
 495 1067 l 257
NamedP: "sv03"
 483 1134 483 1134 473 1196 c 257
 465 1250 465 1250 458 1306 c 128
 451 1362 451 1362 451 1400 c 257
NamedP: "ah01"
 451 1500 l 257
 626 1500 l 257
NamedP: "at02"
EndSplineSet
PickledDataWithLists: "(dp0
Vcom.adobe.type.autohint
p1
(c_codecs
encode
p2
(Vdata
p3
Vlatin1
p4
tp5
Rp6
g2
(V<data>\\u000a        <hintSetList>\\u000a          <hintset pointTag=\"at01\">\\u000a            <hstem pos=\"1067\" width=\"433\"/>\\u000a            <vstem pos=\"150\" width=\"175\"/>\\u000a            <vstem pos=\"451\" width=\"175\"/>\\u000a          </hintset>\\u000a        </hintSetList>\\u000a      </data>
p7
g4
tp8
Rp9
Ntp10
sVcom.fontlab.ttprogram
p11
(g2
(Vdata
p12
g4
tp13
Rp14
g2
(V<data>\\u000a        <ttProgram>\\u000a          <ttc align=\"round\" code=\"alignh\" point=\"lsb\"/>\\u000a          <ttc align=\"round\" code=\"alignh\" point=\"ah01\"/>\\u000a          <ttc align=\"round\" code=\"singleh\" point1=\"lsb\" point2=\"sh01\"/>\\u000a          <ttc code=\"singleh\" point1=\"sh01\" point2=\"sh02\" stem=\"X: ecart du B\"/>\\u000a          <ttc code=\"singleh\" point1=\"ah01\" point2=\"sh03\" stem=\"X: ecart du B\"/>\\u000a          <ttc code=\"singleh\" point1=\"sh03\" point2=\"rsb\" round=\"true\"/>\\u000a          <ttc code=\"alignt\" point=\"at01\" zone=\"t: 1\"/>\\u000a          <ttc code=\"alignt\" point=\"at02\" zone=\"t: 1\"/>\\u000a          <ttc code=\"singlev\" point1=\"at01\" point2=\"sv01\" round=\"true\"/>\\u000a          <ttc code=\"singlev\" point1=\"sv01\" point2=\"sv02\"/>\\u000a          <ttc code=\"singlev\" point1=\"sv02\" point2=\"sv03\"/>\\u000a        </ttProgram>\\u000a      </data>
p15
g4
tp16
Rp17
Ntp18
s."
EndChar
StartChar: numbersign
Encoding: 372 35 372
GlifName: numbersign
Width: 1700
VWidth: 0
Flags: W
LayerCount: 2
Fore
SplineSet
1328 950 m 257
 1278 550 l 257
 1600 550 l 257
 1580 400 l 257
 1261 400 l 257
 1211 0 l 257
 1000 -20 l 257
 1054 400 l 257
 601 400 l 257
 553 0 l 257
 343 -20 l 257
 394 400 l 257
 100 400 l 257
 100 550 l 257
 411 550 l 257
 462 950 l 257
 100 950 l 257
 120 1100 l 257
 479 1100 l 257
 503 1285 l 257
 503 1500 l 257
 739 1520 l 257
 686 1100 l 257
 1139 1100 l 257
 1187 1500 l 257
 1398 1520 l 257
 1347 1100 l 257
 1600 1100 l 257
 1600 950 l 257
 1328 950 l 257
1120 950 m 257
 669 950 l 257
 620 550 l 257
 1071 550 l 257
 1120 950 l 257
EndSplineSet
EndChar
StartChar: percent
Encoding: 411 37 411
GlifName: percent
Width: 1800
VWidth: 0
Flags: W
LayerCount: 2
Fore
SplineSet
590 0 m 257
 400 0 l 257
 1220 1500 l 257
 1400 1500 l 257
 590 0 l 257
398 764 m 257
 324 764 324 764 263 793 c 128
 202 822 202 822 158 873 c 128
 114 924 114 924 89.5 993.5 c 128
 65 1063 65 1063 65 1144 c 257
 65 1224 65 1224 88.5 1292.5 c 128
 112 1361 112 1361 155 1411 c 128
 198 1461 198 1461 259.5 1489 c 128
 321 1517 321 1517 398 1517 c 257
 471 1517 471 1517 532 1489 c 128
 593 1461 593 1461 637 1411 c 128
 681 1361 681 1361 705.5 1292.5 c 128
 730 1224 730 1224 730 1144 c 257
 730 1063 730 1063 706.5 993.5 c 128
 683 924 683 924 639.5 873 c 128
 596 822 596 822 535 793 c 128
 474 764 474 764 398 764 c 257
574 1133 m 257
 574 1178 574 1178 564 1222 c 128
 554 1266 554 1266 533 1300.5 c 128
 512 1335 512 1335 478.5 1356.5 c 128
 445 1378 445 1378 397 1378 c 257
 352 1378 352 1378 319.5 1359.5 c 128
 287 1341 287 1341 266.5 1310 c 128
 246 1279 246 1279 236 1240 c 128
 226 1201 226 1201 226 1159 c 257
 226 1113 226 1113 236 1069.5 c 128
 246 1026 246 1026 267 992 c 128
 288 958 288 958 321.5 937 c 128
 355 916 355 916 402 916 c 257
 447 916 447 916 479.5 934.5 c 128
 512 953 512 953 533 983.5 c 128
 554 1014 554 1014 564 1053 c 128
 574 1092 574 1092 574 1133 c 257
1400 -17 m 257
 1326 -17 1326 -17 1265 12 c 128
 1204 41 1204 41 1160 92 c 128
 1116 143 1116 143 1091.5 212.5 c 128
 1067 282 1067 282 1067 363 c 257
 1067 443 1067 443 1090.5 511.5 c 128
 1114 580 1114 580 1157 630 c 128
 1200 680 1200 680 1261.5 708 c 128
 1323 736 1323 736 1400 736 c 257
 1473 736 1473 736 1534 708 c 128
 1595 680 1595 680 1639 630 c 128
 1683 580 1683 580 1707.5 511.5 c 128
 1732 443 1732 443 1732 363 c 257
 1732 282 1732 282 1708.5 212.5 c 128
 1685 143 1685 143 1641.5 92 c 128
 1598 41 1598 41 1537 12 c 128
 1476 -17 1476 -17 1400 -17 c 257
1576 352 m 257
 1576 397 1576 397 1566 441 c 128
 1556 485 1556 485 1535 519.5 c 128
 1514 554 1514 554 1480.5 575.5 c 128
 1447 597 1447 597 1399 597 c 257
 1354 597 1354 597 1321.5 578.5 c 128
 1289 560 1289 560 1268.5 529 c 128
 1248 498 1248 498 1238 459 c 128
 1228 420 1228 420 1228 378 c 257
 1228 332 1228 332 1238 288.5 c 128
 1248 245 1248 245 1269 211 c 128
 1290 177 1290 177 1323.5 156 c 128
 1357 135 1357 135 1404 135 c 257
 1449 135 1449 135 1481.5 153.5 c 128
 1514 172 1514 172 1535 202.5 c 128
 1556 233 1556 233 1566 272 c 128
 1576 311 1576 311 1576 352 c 257
EndSplineSet
EndChar
StartChar: quotesingle
Encoding: 446 39 446
GlifName: quotesingle
Width: 400
VWidth: 0
Flags: W
LayerCount: 2
Fore
SplineSet
150 1500 m 257
NamedP: "dh01"
 325 1500 l 257
NamedP: "dh02"
 325 1400 l 257
 325 1326 325 1326 289.5 1240.5 c 128
 254 1155 254 1155 184 1067 c 257
NamedP: "av01"
 140 1067 l 257
NamedP: "sh01"
 142 1143 142 1143 145 1209 c 257
NamedP: "sh02"
 146 1237 146 1237 146.5 1266 c 128
 147 1295 147 1295 148 1320.5 c 128
 149 1346 149 1346 149.5 1367 c 128
 150 1388 150 1388 150 1400 c 257
 150 1500 l 257
NamedP: "dh01"
EndSplineSet
PickledDataWithLists: "(dp0
Vcom.adobe.type.autohint
p1
(c_codecs
encode
p2
(Vdata
p3
Vlatin1
p4
tp5
Rp6
g2
(V<data>\\u000a        <hintSetList>\\u000a          <hintset pointTag=\"dh01\">\\u000a            <hstem pos=\"1088\" width=\"-21\"/>\\u000a            <hstem pos=\"1500\" width=\"-20\"/>\\u000a            <vstem pos=\"150\" width=\"175\"/>\\u000a          </hintset>\\u000a        </hintSetList>\\u000a      </data>
p7
g4
tp8
Rp9
Ntp10
sVcom.fontlab.ttprogram
p11
(g2
(Vdata
p12
g4
tp13
Rp14
g2
(V<data>\\u000a        <ttProgram>\\u000a          <ttc code=\"doubleh\" point1=\"dh01\" point2=\"dh02\" stem=\"X: ecart du B\"/>\\u000a          <ttc align=\"round\" code=\"singleh\" point1=\"dh01\" point2=\"sh01\"/>\\u000a          <ttc align=\"round\" code=\"singleh\" point1=\"dh01\" point2=\"sh02\"/>\\u000a          <ttc code=\"singleh\" point1=\"dh02\" point2=\"rsb\" round=\"true\"/>\\u000a          <ttc align=\"round\" code=\"alignv\" point=\"av01\"/>\\u000a          <ttc code=\"alignt\" point=\"dh01\" zone=\"t: 1\"/>\\u000a        </ttProgram>\\u000a      </data>
p15
g4
tp16
Rp17
Ntp18
s."
EndChar
StartChar: plus
Encoding: 425 43 425
GlifName: plus
Width: 1200
VWidth: 0
Flags: W
LayerCount: 2
Fore
SplineSet
100 700 m 257
NamedP: "hr00"
 473 700 l 257
 473 1121 l 257
 628 1121 l 257
 628 700 l 257
 1000 700 l 257
 1000 545 l 257
 628 545 l 257
 628 122 l 257
 473 122 l 257
 473 545 l 257
 100 545 l 257
 100 700 l 257
NamedP: "hr00"
EndSplineSet
PickledDataWithLists: "(dp0
Vcom.adobe.type.autohint
p1
(c_codecs
encode
p2
(Vdata
p3
Vlatin1
p4
tp5
Rp6
g2
(V<data>\\u000a        <hintSetList>\\u000a          <hintset pointTag=\"hr00\">\\u000a            <hstem pos=\"545\" width=\"155\"/>\\u000a            <vstem pos=\"473\" width=\"155\"/>\\u000a          </hintset>\\u000a        </hintSetList>\\u000a      </data>
p7
g4
tp8
Rp9
Ntp10
s."
EndChar
StartChar: hyphen
Encoding: 309 45 309
GlifName: hyphen
Width: 900
VWidth: 0
Flags: W
LayerCount: 2
Fore
SplineSet
200 600 m 257
NamedP: "hr00"
 700 600 l 257
NamedP: "dv02"
 700 445 l 257
NamedP: "dv01"
 200 445 l 257
 200 600 l 257
NamedP: "hr00"
EndSplineSet
PickledDataWithLists: "(dp0
Vcom.adobe.type.autohint
p1
(c_codecs
encode
p2
(Vdata
p3
Vlatin1
p4
tp5
Rp6
g2
(V<data>\\u000a        <hintSetList>\\u000a          <hintset pointTag=\"hr00\">\\u000a            <hstem pos=\"500\" width=\"155\"/>\\u000a          </hintset>\\u000a        </hintSetList>\\u000a      </data>
p7
g4
tp8
Rp9
Ntp10
sVcom.fontlab.ttprogram
p11
(g2
(Vdata
p12
g4
tp13
Rp14
g2
(V<data>\\u000a        <ttProgram>\\u000a          <ttc code=\"doublev\" point1=\"dv01\" point2=\"dv02\" stem=\"Y: 153\"/>\\u000a        </ttProgram>\\u000a      </data>
p15
g4
tp16
Rp17
Ntp18
s."
EndChar
StartChar: zero
Encoding: 587 48 587
GlifName: zero
Width: 1300
VWidth: 0
Flags: W
LayerCount: 2
Fore
SplineSet
600 -17 m 257
NamedP: "ab01"
 515 -17 515 -17 444 15.5 c 128
 373 48 373 48 316.5 104 c 128
 260 160 260 160 217.5 235 c 128
 175 310 175 310 146.5 395.5 c 128
 118 481 118 481 104 571.5 c 128
 90 662 90 662 90 750 c 257
NamedP: "sh01"
 90 840 90 840 102 932 c 128
 114 1024 114 1024 140 1109 c 128
 166 1194 166 1194 206.5 1268.5 c 128
 247 1343 247 1343 303.5 1398 c 128
 360 1453 360 1453 433.5 1485 c 128
 507 1517 507 1517 600 1517 c 257
NamedP: "at01"
 685 1517 685 1517 756 1484.5 c 128
 827 1452 827 1452 883.5 1396 c 128
 940 1340 940 1340 982.5 1265 c 128
 1025 1190 1025 1190 1053.5 1104.5 c 128
 1082 1019 1082 1019 1096 928 c 128
 1110 837 1110 837 1110 750 c 257
NamedP: "sh02"
 1110 660 1110 660 1098 568 c 128
 1086 476 1086 476 1060 391 c 128
 1034 306 1034 306 993.5 231.5 c 128
 953 157 953 157 896.5 102 c 128
 840 47 840 47 766 15 c 128
 692 -17 692 -17 600 -17 c 257
NamedP: "ab01"
297 793 m 257
NamedP: "sh03"
 297 735 297 735 301 665.5 c 128
 305 596 305 596 317 525.5 c 128
 329 455 329 455 350.5 389 c 128
 372 323 372 323 406.5 271.5 c 128
 441 220 441 220 490.5 189 c 128
 540 158 540 158 608 158 c 257
NamedP: "sv01"
 669 158 669 158 714.5 181.5 c 128
 760 205 760 205 793 245.5 c 128
 826 286 826 286 847 339.5 c 128
 868 393 868 393 880.5 454 c 128
 893 515 893 515 898 580 c 128
 903 645 903 645 903 707 c 257
NamedP: "ah01"
 903 765 903 765 899 834.5 c 128
 895 904 895 904 883 974 c 128
 871 1044 871 1044 849.5 1110.5 c 128
 828 1177 828 1177 793.5 1228 c 128
 759 1279 759 1279 709.5 1310 c 128
 660 1341 660 1341 592 1341 c 257
NamedP: "sv02"
 531 1341 531 1341 485.5 1317.5 c 128
 440 1294 440 1294 407 1254 c 128
 374 1214 374 1214 353 1160 c 128
 332 1106 332 1106 319.5 1045 c 128
 307 984 307 984 302 919.5 c 128
 297 855 297 855 297 793 c 257
NamedP: "sh03"
EndSplineSet
PickledDataWithLists: "(dp0
Vcom.adobe.type.autohint
p1
(c_codecs
encode
p2
(Vdata
p3
Vlatin1
p4
tp5
Rp6
g2
(V<data>\\u000a        <hintSetList>\\u000a          <hintset pointTag=\"ab01\">\\u000a            <hstem pos=\"-17\" width=\"175\"/>\\u000a            <hstem pos=\"1341\" width=\"176\"/>\\u000a            <vstem pos=\"90\" width=\"207\"/>\\u000a            <vstem pos=\"903\" width=\"207\"/>\\u000a          </hintset>\\u000a        </hintSetList>\\u000a      </data>
p7
g4
tp8
Rp9
Ntp10
sVcom.fontlab.ttprogram
p11
(g2
(Vdata
p12
g4
tp13
Rp14
g2
(V<data>\\u000a        <ttProgram>\\u000a          <ttc align=\"round\" code=\"alignh\" point=\"lsb\"/>\\u000a          <ttc align=\"round\" code=\"alignh\" point=\"ah01\"/>\\u000a          <ttc align=\"round\" code=\"singleh\" point1=\"lsb\" point2=\"sh01\" round=\"true\"/>\\u000a          <ttc code=\"singleh\" point1=\"ah01\" point2=\"sh02\" stem=\"X: 208\"/>\\u000a          <ttc code=\"singleh\" point1=\"sh01\" point2=\"sh03\" stem=\"X: 208\"/>\\u000a          <ttc code=\"singleh\" point1=\"sh02\" point2=\"rsb\"/>\\u000a          <ttc code=\"alignt\" point=\"at01\" zone=\"t: 1\"/>\\u000a          <ttc code=\"alignb\" point=\"ab01\" zone=\"b: 0\"/>\\u000a          <ttc code=\"singlev\" point1=\"ab01\" point2=\"sv01\" stem=\"Y: 171\"/>\\u000a          <ttc code=\"singlev\" point1=\"at01\" point2=\"sv02\" stem=\"Y: 171\"/>\\u000a        </ttProgram>\\u000a      </data>
p15
g4
tp16
Rp17
Ntp18
s."
EndChar
StartChar: two
Encoding: 535 50 535
GlifName: two
Width: 1300
VWidth: 0
Flags: W
LayerCount: 2
Fore
SplineSet
152 0 m 257
NamedP: "sh01"
 152 168 l 257
 200 244 200 244 255.5 317.5 c 128
 311 391 311 391 367.5 459.5 c 128
 424 528 424 528 479 589.5 c 128
 534 651 534 651 580 702 c 257
NamedP: "mh01"
 631 758 631 758 677 807.5 c 128
 723 857 723 857 758 906 c 128
 793 955 793 955 814 1005.5 c 128
 835 1056 835 1056 835 1115 c 257
NamedP: "dh01"
 835 1163 835 1163 817 1205.5 c 128
 799 1248 799 1248 766.5 1279.5 c 128
 734 1311 734 1311 689 1329.5 c 128
 644 1348 644 1348 590 1348 c 257
NamedP: "sv01"
 529 1348 529 1348 484.5 1331.5 c 128
 440 1315 440 1315 406.5 1288 c 128
 373 1261 373 1261 348.5 1227.5 c 128
 324 1194 324 1194 303 1160 c 257
 162 1220 l 257
 188 1285 188 1285 228.5 1339.5 c 128
 269 1394 269 1394 324 1433.5 c 128
 379 1473 379 1473 449 1495 c 128
 519 1517 519 1517 605 1517 c 257
NamedP: "at01"
 706 1517 706 1517 785 1481 c 128
 864 1445 864 1445 918.5 1386.5 c 128
 973 1328 973 1328 1001.5 1254 c 128
 1030 1180 1030 1180 1030 1104 c 257
NamedP: "dh02"
 1030 1027 1030 1027 1001.5 957.5 c 128
 973 888 973 888 930.5 825.5 c 128
 888 763 888 763 839 708 c 128
 790 653 790 653 749 605 c 257
 697 544 697 544 645 485 c 128
 593 426 593 426 545.5 369.5 c 128
 498 313 498 313 457 260.5 c 128
 416 208 416 208 386 160 c 257
NamedP: "mh02"
 1056 160 l 257
 1056 0 l 257
 152 0 l 257
NamedP: "sh01"
EndSplineSet
PickledDataWithLists: "(dp0
Vcom.adobe.type.autohint
p1
(c_codecs
encode
p2
(Vdata
p3
Vlatin1
p4
tp5
Rp6
g2
(V<data>\\u000a        <hintSetList>\\u000a          <hintset pointTag=\"sh01\">\\u000a            <hstem pos=\"0\" width=\"160\"/>\\u000a            <hstem pos=\"1348\" width=\"169\"/>\\u000a            <vstem pos=\"835\" width=\"195\"/>\\u000a          </hintset>\\u000a        </hintSetList>\\u000a      </data>
p7
g4
tp8
Rp9
Ntp10
sVcom.fontlab.ttprogram
p11
(g2
(Vdata
p12
g4
tp13
Rp14
g2
(V<data>\\u000a        <ttProgram>\\u000a          <ttc align=\"round\" code=\"alignh\" point=\"lsb\"/>\\u000a          <ttc code=\"doubleh\" point1=\"dh01\" point2=\"dh02\" stem=\"X: 199\"/>\\u000a          <ttc code=\"singleh\" point1=\"lsb\" point2=\"sh01\"/>\\u000a          <ttc code=\"mdeltah\" delta=\"2\" point=\"mh01\" ppm1=\"17\" ppm2=\"17\"/>\\u000a          <ttc code=\"mdeltah\" delta=\"-3\" point=\"mh02\" ppm1=\"17\" ppm2=\"17\"/>\\u000a          <ttc code=\"singleh\" point1=\"dh02\" point2=\"rsb\" round=\"true\"/>\\u000a          <ttc code=\"alignt\" point=\"at01\" zone=\"t: 1\"/>\\u000a          <ttc code=\"alignb\" point=\"sh01\" zone=\"b: 0\"/>\\u000a          <ttc code=\"singlev\" point1=\"at01\" point2=\"sv01\" stem=\"Y: 171\"/>\\u000a          <ttc code=\"singlev\" point1=\"sh01\" point2=\"mh02\" stem=\"Y: 162\"/>\\u000a        </ttProgram>\\u000a      </data>
p15
g4
tp16
Rp17
Ntp18
s."
EndChar
StartChar: six
Encoding: 481 54 481
GlifName: six
Width: 1300
VWidth: 0
Flags: W
LayerCount: 2
Fore
SplineSet
929 1344 m 257
NamedP: "sh01"
 922 1346 922 1346 908.5 1346.5 c 128
 895 1347 895 1347 884 1347 c 257
NamedP: "sv01"
 812 1347 812 1347 744 1324.5 c 128
 676 1302 676 1302 616 1261 c 128
 556 1220 556 1220 505.5 1163 c 128
 455 1106 455 1106 416.5 1037.5 c 128
 378 969 378 969 353 891 c 128
 328 813 328 813 320 730 c 257
NamedP: "sh04"
 403 847 l 257
 428 863 428 863 461.5 877.5 c 128
 495 892 495 892 532 903 c 128
 569 914 569 914 607 920.5 c 128
 645 927 645 927 679 927 c 257
NamedP: "dv02"
 766 927 766 927 846.5 903 c 128
 927 879 927 879 989.5 829 c 128
 1052 779 1052 779 1089.5 700.5 c 128
 1127 622 1127 622 1127 513 c 257
NamedP: "sh05"
 1127 405 1127 405 1090.5 308.5 c 128
 1054 212 1054 212 988 139.5 c 128
 922 67 922 67 830 25 c 128
 738 -17 738 -17 626 -17 c 257
NamedP: "ab01"
 528 -17 528 -17 452.5 14.5 c 128
 377 46 377 46 321 98 c 128
 265 150 265 150 227.5 217 c 128
 190 284 190 284 166.5 354.5 c 128
 143 425 143 425 133 494 c 128
 123 563 123 563 123 620 c 257
NamedP: "sh02"
 123 739 123 739 147.5 852 c 128
 172 965 172 965 218.5 1064.5 c 128
 265 1164 265 1164 332 1247.5 c 128
 399 1331 399 1331 484.5 1390.5 c 128
 570 1450 570 1450 672.5 1483.5 c 128
 775 1517 775 1517 893 1517 c 257
NamedP: "at01"
 908 1517 908 1517 926 1516.5 c 128
 944 1516 944 1516 954 1514 c 257
NamedP: "at02"
 929 1344 l 257
NamedP: "sh01"
329 597 m 257
NamedP: "sh03"
 329 569 329 569 329.5 546 c 128
 330 523 330 523 332.5 501 c 128
 335 479 335 479 339 456.5 c 128
 343 434 343 434 350 407 c 257
 364 350 364 350 388 303.5 c 128
 412 257 412 257 446.5 223.5 c 128
 481 190 481 190 526.5 171.5 c 128
 572 153 572 153 629 153 c 257
NamedP: "sv02"
 708 153 708 153 763.5 183 c 128
 819 213 819 213 854 262.5 c 128
 889 312 889 312 905.5 375 c 128
 922 438 922 438 922 503 c 257
NamedP: "ah01"
 922 566 922 566 903.5 614 c 128
 885 662 885 662 851 693.5 c 128
 817 725 817 725 769.5 741 c 128
 722 757 722 757 664 757 c 257
NamedP: "dv01"
 610 757 610 757 559 744 c 128
 508 731 508 731 463.5 709 c 128
 419 687 419 687 384.5 658 c 128
 350 629 350 629 329 597 c 257
NamedP: "sh03"
EndSplineSet
PickledDataWithLists: "(dp0
Vcom.adobe.type.autohint
p1
(c_codecs
encode
p2
(Vdata
p3
Vlatin1
p4
tp5
Rp6
g2
(V<data>\\u000a        <hintSetList>\\u000a          <hintset pointTag=\"sh01\">\\u000a            <hstem pos=\"-17\" width=\"170\"/>\\u000a            <hstem pos=\"757\" width=\"170\"/>\\u000a            <hstem pos=\"1347\" width=\"170\"/>\\u000a            <vstem pos=\"123\" width=\"206\"/>\\u000a            <vstem pos=\"922\" width=\"205\"/>\\u000a          </hintset>\\u000a        </hintSetList>\\u000a      </data>
p7
g4
tp8
Rp9
Ntp10
sVcom.fontlab.ttprogram
p11
(g2
(Vdata
p12
g4
tp13
Rp14
g2
(V<data>\\u000a        <ttProgram>\\u000a          <ttc align=\"round\" code=\"alignh\" point=\"lsb\"/>\\u000a          <ttc align=\"round\" code=\"alignh\" point=\"ah01\"/>\\u000a          <ttc code=\"mdeltah\" delta=\"3\" point=\"ah01\" ppm1=\"16\" ppm2=\"17\"/>\\u000a          <ttc code=\"mdeltah\" delta=\"2\" point=\"ah01\" ppm1=\"9\" ppm2=\"15\"/>\\u000a          <ttc align=\"round\" code=\"singleh\" point1=\"ah01\" point2=\"sh01\"/>\\u000a          <ttc align=\"round\" code=\"singleh\" point1=\"lsb\" point2=\"sh02\"/>\\u000a          <ttc code=\"singleh\" point1=\"sh02\" point2=\"sh03\" stem=\"X: 208\"/>\\u000a          <ttc code=\"mdeltah\" delta=\"-2\" point=\"sh03\" ppm1=\"9\" ppm2=\"15\"/>\\u000a          <ttc code=\"mdeltah\" delta=\"-3\" point=\"sh03\" ppm1=\"16\" ppm2=\"17\"/>\\u000a          <ttc align=\"round\" code=\"singleh\" point1=\"sh03\" point2=\"sh04\"/>\\u000a          <ttc code=\"singleh\" point1=\"ah01\" point2=\"sh05\" stem=\"X: 208\"/>\\u000a          <ttc code=\"singleh\" point1=\"sh05\" point2=\"rsb\" round=\"true\"/>\\u000a          <ttc code=\"alignt\" point=\"at01\" zone=\"t: 1\"/>\\u000a          <ttc code=\"alignt\" point=\"at02\" zone=\"t: 1\"/>\\u000a          <ttc code=\"alignb\" point=\"ab01\" zone=\"b: 0\"/>\\u000a          <ttc code=\"doublev\" point1=\"dv01\" point2=\"dv02\" stem=\"Y: 171\"/>\\u000a          <ttc code=\"singlev\" point1=\"at01\" point2=\"sv01\" stem=\"Y: 171\"/>\\u000a          <ttc code=\"mdeltav\" delta=\"2\" point=\"sv01\" ppm1=\"16\" ppm2=\"17\"/>\\u000a          <ttc code=\"mdeltav\" delta=\"1\" point=\"sv01\" ppm1=\"9\" ppm2=\"15\"/>\\u000a          <ttc code=\"interpolatev\" point=\"sh04\" point1=\"ab01\" point2=\"at01\"/>\\u000a          <ttc code=\"singlev\" point1=\"ab01\" point2=\"sv02\" stem=\"Y: 171\"/>\\u000a          <ttc code=\"mdeltav\" delta=\"-1\" point=\"sv02\" ppm1=\"9\" ppm2=\"15\"/>\\u000a          <ttc code=\"mdeltav\" delta=\"-2\" point=\"sv02\" ppm1=\"16\" ppm2=\"17\"/>\\u000a        </ttProgram>\\u000a      </data>
p15
g4
tp16
Rp17
Ntp18
s."
EndChar
StartChar: nine
Encoding: 361 57 361
GlifName: nine
Width: 1300
VWidth: 0
Flags: W
LayerCount: 2
Fore
SplineSet
848 663 m 257
NamedP: "hr00"
 789 617 789 617 729.5 595 c 128
 670 573 670 573 595 573 c 257
NamedP: "dv01"
 497 573 497 573 412 605.5 c 128
 327 638 327 638 264 698 c 128
 201 758 201 758 165 842.5 c 128
 129 927 129 927 129 1031 c 257
NamedP: "dh02"
 129 1139 129 1139 163.5 1228 c 128
 198 1317 198 1317 261.5 1381.5 c 128
 325 1446 325 1446 415.5 1481.5 c 128
 506 1517 506 1517 618 1517 c 257
NamedP: "at01"
 718 1517 718 1517 794.5 1486 c 128
 871 1455 871 1455 927 1404 c 128
 983 1353 983 1353 1020.5 1287 c 128
 1058 1221 1058 1221 1080.5 1150 c 128
 1103 1079 1103 1079 1112.5 1009 c 128
 1122 939 1122 939 1122 880 c 257
NamedP: "sh01"
 1122 763 1122 763 1098.5 653 c 128
 1075 543 1075 543 1029.5 445 c 128
 984 347 984 347 918 264.5 c 128
 852 182 852 182 767.5 121.5 c 128
 683 61 683 61 580.5 24.5 c 128
 478 -12 478 -12 361 -17 c 257
NamedP: "ab01"
 330 150 l 257
NamedP: "sh02"
 450 156 450 156 555.5 207 c 128
 661 258 661 258 741.5 342.5 c 128
 822 427 822 427 871.5 539.5 c 128
 921 652 921 652 928 780 c 257
NamedP: "sh03"
 848 663 l 257
NamedP: "hr00"
916 953 m 257
NamedP: "ah01"
 913 1028 913 1028 894 1098.5 c 128
 875 1169 875 1169 840 1224.5 c 128
 805 1280 805 1280 751.5 1313.5 c 128
 698 1347 698 1347 626 1347 c 257
NamedP: "sv01"
 558 1347 558 1347 504 1325 c 128
 450 1303 450 1303 412 1264 c 128
 374 1225 374 1225 353.5 1170 c 128
 333 1115 333 1115 333 1049 c 257
NamedP: "dh01"
 333 984 333 984 349.5 928 c 128
 366 872 366 872 399.5 831 c 128
 433 790 433 790 484.5 766.5 c 128
 536 743 536 743 605 743 c 257
NamedP: "dv02"
 658 743 658 743 706.5 760 c 128
 755 777 755 777 795.5 805.5 c 128
 836 834 836 834 867 872 c 128
 898 910 898 910 916 953 c 257
NamedP: "ah01"
EndSplineSet
PickledDataWithLists: "(dp0
Vcom.adobe.type.autohint
p1
(c_codecs
encode
p2
(Vdata
p3
Vlatin1
p4
tp5
Rp6
g2
(V<data>\\u000a        <hintSetList>\\u000a          <hintset pointTag=\"hr00\">\\u000a            <hstem pos=\"-17\" width=\"167\"/>\\u000a            <hstem pos=\"573\" width=\"170\"/>\\u000a            <hstem pos=\"1347\" width=\"170\"/>\\u000a            <vstem pos=\"129\" width=\"204\"/>\\u000a            <vstem pos=\"916\" width=\"206\"/>\\u000a          </hintset>\\u000a        </hintSetList>\\u000a      </data>
p7
g4
tp8
Rp9
Ntp10
sVcom.fontlab.ttprogram
p11
(g2
(Vdata
p12
g4
tp13
Rp14
g2
(V<data>\\u000a        <ttProgram>\\u000a          <ttc align=\"round\" code=\"alignh\" point=\"lsb\"/>\\u000a          <ttc align=\"round\" code=\"alignh\" point=\"ah01\"/>\\u000a          <ttc code=\"doubleh\" point1=\"dh01\" point2=\"dh02\" stem=\"X: 208\"/>\\u000a          <ttc code=\"mdeltah\" delta=\"3\" point=\"ah01\" ppm1=\"16\" ppm2=\"17\"/>\\u000a          <ttc code=\"mdeltah\" delta=\"2\" point=\"ah01\" ppm1=\"9\" ppm2=\"15\"/>\\u000a          <ttc code=\"singleh\" point1=\"ah01\" point2=\"sh01\" stem=\"X: 208\"/>\\u000a          <ttc code=\"mdeltah\" delta=\"-2\" point=\"dh01\" ppm1=\"9\" ppm2=\"15\"/>\\u000a          <ttc code=\"mdeltah\" delta=\"-3\" point=\"dh01\" ppm1=\"16\" ppm2=\"17\"/>\\u000a          <ttc align=\"round\" code=\"singleh\" point1=\"dh01\" point2=\"sh02\"/>\\u000a          <ttc align=\"round\" code=\"singleh\" point1=\"ah01\" point2=\"sh03\"/>\\u000a          <ttc code=\"singleh\" point1=\"sh01\" point2=\"rsb\" round=\"true\"/>\\u000a          <ttc code=\"alignt\" point=\"at01\" zone=\"t: 1\"/>\\u000a          <ttc code=\"alignb\" point=\"ab01\" zone=\"b: 0\"/>\\u000a          <ttc code=\"doublev\" point1=\"dv01\" point2=\"dv02\" stem=\"Y: 162\"/>\\u000a          <ttc code=\"singlev\" point1=\"ab01\" point2=\"sh02\" stem=\"Y: 162\"/>\\u000a          <ttc code=\"interpolatev\" point=\"sh03\" point1=\"ab01\" point2=\"at01\"/>\\u000a          <ttc code=\"singlev\" point1=\"at01\" point2=\"sv01\" stem=\"Y: 162\"/>\\u000a          <ttc code=\"mdeltav\" delta=\"2\" point=\"sv01\" ppm1=\"16\" ppm2=\"17\"/>\\u000a          <ttc code=\"mdeltav\" delta=\"1\" point=\"sv01\" ppm1=\"9\" ppm2=\"15\"/>\\u000a        </ttProgram>\\u000a      </data>
p15
g4
tp16
Rp17
Ntp18
s."
EndChar
StartChar: less
Encoding: 335 60 335
GlifName: less
Width: 1300
VWidth: 0
Flags: W
LayerCount: 2
Fore
SplineSet
1100 1211 m 257
 1100 1036 l 257
 413 670 l 257
 335 650 l 257
 412 630 l 257
 1100 266 l 257
 1100 91 l 257
 200 548 l 257
 200 757 l 257
 1100 1211 l 257
EndSplineSet
EndChar
StartChar: equal
Encoding: 249 61 249
GlifName: equal
Width: 1000
VWidth: 0
Flags: W
LayerCount: 2
Fore
SplineSet
100 700 m 257
NamedP: "hr00"
 900 700 l 257
 900 560 l 257
 100 560 l 257
 100 700 l 257
NamedP: "hr00"
100 400 m 257
 900 400 l 257
 900 260 l 257
 100 260 l 257
 100 400 l 257
EndSplineSet
PickledDataWithLists: "(dp0
Vcom.adobe.type.autohint
p1
(c_codecs
encode
p2
(Vdata
p3
Vlatin1
p4
tp5
Rp6
g2
(V<data>\\u000a        <hintSetList>\\u000a          <hintset pointTag=\"hr00\">\\u000a            <hstem pos=\"260\" width=\"140\"/>\\u000a            <hstem pos=\"560\" width=\"140\"/>\\u000a          </hintset>\\u000a        </hintSetList>\\u000a      </data>
p7
g4
tp8
Rp9
Ntp10
s."
EndChar
StartChar: question
Encoding: 436 63 436
GlifName: question
Width: 1100
VWidth: 0
Flags: W
LayerCount: 2
Fore
SplineSet
1000 1144 m 256
NamedP: "W"
 1000 1237 1000 1237 963.5 1310 c 0
 927 1383 927 1383 864.5 1427 c 0
 802 1471 802 1471 724.5 1494 c 0
 647 1517 647 1517 560 1517 c 256
 269 1517 269 1517 107 1300 c 257
 240 1190 l 257
 295 1264 295 1264 376 1307.5 c 0
 457 1351 457 1351 535 1351 c 256
 649 1351 649 1351 719.5 1301.5 c 0
 790 1252 790 1252 790 1152 c 256
 790 1101 790 1101 768 1058 c 0
 746 1015 746 1015 711.5 981 c 0
 677 947 677 947 634.5 911.5 c 0
 592 876 592 876 550 832.5 c 0
 508 789 508 789 473.5 736.5 c 0
 439 684 439 684 417 604.5 c 0
 395 525 395 525 395 429 c 257
 605 450 l 257
 605 517 605 517 627 575 c 0
 649 633 649 633 683.5 675 c 0
 718 717 718 717 760.5 756 c 0
 803 795 803 795 845 834.5 c 0
 887 874 887 874 921.5 916.5 c 0
 956 959 956 959 978 1017.5 c 0
 1000 1076 1000 1076 1000 1144 c 256
NamedP: "W"
369 120 m 257
 369 147 369 147 379.5 171 c 128
 390 195 390 195 408 213 c 128
 426 231 426 231 449.5 241.5 c 128
 473 252 473 252 500 252 c 257
 527 252 527 252 551 241.5 c 128
 575 231 575 231 593 213 c 128
 611 195 611 195 621.5 171 c 128
 632 147 632 147 632 120 c 257
 632 93 632 93 621.5 68.5 c 128
 611 44 611 44 593.5 26 c 128
 576 8 576 8 552.5 -3 c 128
 529 -14 529 -14 502 -14 c 257
 474 -14 474 -14 450 -3 c 128
 426 8 426 8 408 26 c 128
 390 44 390 44 379.5 68.5 c 128
 369 93 369 93 369 120 c 257
EndSplineSet
PickledDataWithLists: "(dp0
Vcom.adobe.type.autohint
p1
(c_codecs
encode
p2
(Vdata
p3
Vlatin1
p4
tp5
Rp6
g2
(V<data>\\u000a        <hintSetList>\\u000a          <hintset pointTag=\"hr00\">\\u000a            <hstem pos=\"-14\" width=\"266\"/>\\u000a            <vstem pos=\"369\" width=\"263\"/>\\u000a          </hintset>\\u000a        </hintSetList>\\u000a      </data>
p7
g4
tp8
Rp9
Ntp10
s."
EndChar
StartChar: D
Encoding: 15 68 15
GlifName: D_
Width: 1300
VWidth: 0
Flags: W
LayerCount: 2
Fore
SplineSet
170 1500 m 257
NamedP: "at01"
 201 1503 201 1503 244 1505 c 128
 287 1507 287 1507 332.5 1508.5 c 128
 378 1510 378 1510 422.5 1510.5 c 128
 467 1511 467 1511 500 1511 c 257
NamedP: "at02"
 659 1511 659 1511 794.5 1472 c 128
 930 1433 930 1433 1029 1348 c 128
 1128 1263 1128 1263 1184 1130 c 128
 1240 997 1240 997 1240 810 c 257
NamedP: "sh01"
 1240 664 1240 664 1212 547.5 c 128
 1184 431 1184 431 1134.5 341 c 128
 1085 251 1085 251 1015.5 186.5 c 128
 946 122 946 122 862.5 80.5 c 128
 779 39 779 39 685 19.5 c 128
 591 0 591 0 491 0 c 257
NamedP: "ab01"
 200 0 l 257
NamedP: "sh02"
 200 1290 l 257
 170 1500 l 257
NamedP: "at01"
410 1150 m 257
 410 160 l 257
NamedP: "sh03"
 430 160 l 257
 575 160 575 160 676 190 c 128
 777 220 777 220 843.5 269.5 c 128
 910 319 910 319 947.5 383.5 c 128
 985 448 985 448 1003.5 517 c 128
 1022 586 1022 586 1026 654 c 128
 1030 722 1030 722 1030 780 c 257
NamedP: "ah01"
 1030 907 1030 907 1008 1013.5 c 128
 986 1120 986 1120 927 1196.5 c 128
 868 1273 868 1273 762.5 1315.5 c 128
 657 1358 657 1358 491 1358 c 257
NamedP: "sv01"
 475 1358 475 1358 457 1357 c 128
 439 1356 439 1356 423 1354 c 257
NamedP: "sh04"
 405 1352 405 1352 385 1350 c 257
NamedP: "sv02"
 410 1150 l 257
EndSplineSet
PickledDataWithLists: "(dp0
Vcom.adobe.type.autohint
p1
(c_codecs
encode
p2
(Vdata
p3
Vlatin1
p4
tp5
Rp6
g2
(V<data>\\u000a        <hintSetList>\\u000a          <hintset pointTag=\"at01\">\\u000a            <hstem pos=\"0\" width=\"160\"/>\\u000a            <hstem pos=\"1358\" width=\"153\"/>\\u000a            <vstem pos=\"200\" width=\"210\"/>\\u000a            <vstem pos=\"1030\" width=\"210\"/>\\u000a          </hintset>\\u000a        </hintSetList>\\u000a      </data>
p7
g4
tp8
Rp9
Ntp10
sVcom.fontlab.ttprogram
p11
(g2
(Vdata
p12
g4
tp13
Rp14
g2
(V<data>\\u000a        <ttProgram>\\u000a          <ttc align=\"round\" code=\"alignh\" point=\"lsb\"/>\\u000a          <ttc align=\"round\" code=\"alignh\" point=\"ah01\"/>\\u000a          <ttc code=\"singleh\" point1=\"ah01\" point2=\"sh01\" stem=\"X: 208\"/>\\u000a          <ttc align=\"round\" code=\"singleh\" point1=\"lsb\" point2=\"sh02\"/>\\u000a          <ttc code=\"singleh\" point1=\"sh02\" point2=\"sh03\" stem=\"X: 208\"/>\\u000a          <ttc align=\"round\" code=\"singleh\" point1=\"sh03\" point2=\"sh04\"/>\\u000a          <ttc code=\"singleh\" point1=\"sh01\" point2=\"rsb\" round=\"true\"/>\\u000a          <ttc code=\"alignt\" point=\"at01\" zone=\"t: 1\"/>\\u000a          <ttc code=\"alignt\" point=\"at02\" zone=\"t: 1\"/>\\u000a          <ttc code=\"alignb\" point=\"ab01\" zone=\"b: 0\"/>\\u000a          <ttc code=\"singlev\" point1=\"ab01\" point2=\"sh03\" stem=\"Y: 162\"/>\\u000a          <ttc code=\"singlev\" point1=\"at02\" point2=\"sv01\" stem=\"Y: 153\"/>\\u000a          <ttc align=\"round\" code=\"singlev\" point1=\"sv01\" point2=\"sh04\"/>\\u000a          <ttc align=\"round\" code=\"singlev\" point1=\"sh04\" point2=\"sv02\"/>\\u000a        </ttProgram>\\u000a      </data>
p15
g4
tp16
Rp17
Ntp18
sVcom.typemytype.robofont.guides
p19
(lp20
(dp21
Vangle
p22
I0
sVisGlobal
p23
I00
sVmagnetic
p24
I5
sVx
p25
I0
sVy
p26
I1370
sa(dp27
g22
I0
sg23
I00
sg24
I5
sg25
I0
sg26
I130
sa(dp28
g22
I90
sg23
I00
sg24
I5
sg25
I379
sg26
I0
sas."
EndChar
StartChar: I
Encoding: 34 73 34
GlifName: I_
Width: 600
VWidth: 0
Flags: W
LayerCount: 2
Fore
SplineSet
190 0 m 257
NamedP: "dh01"
 190 1290 l 257
 160 1500 l 257
 400 1520 l 257
NamedP: "at01"
 400 0 l 257
NamedP: "dh02"
 190 0 l 257
NamedP: "dh01"
EndSplineSet
PickledDataWithLists: "(dp0
Vcom.adobe.type.autohint
p1
(c_codecs
encode
p2
(Vdata
p3
Vlatin1
p4
tp5
Rp6
g2
(V<data>\\u000a        <hintSetList>\\u000a          <hintset pointTag=\"dh01\">\\u000a            <hstem pos=\"21\" width=\"-21\"/>\\u000a            <hstem pos=\"1520\" width=\"-20\"/>\\u000a            <vstem pos=\"190\" width=\"210\"/>\\u000a          </hintset>\\u000a        </hintSetList>\\u000a      </data>
p7
g4
tp8
Rp9
Ntp10
sVcom.fontlab.ttprogram
p11
(g2
(Vdata
p12
g4
tp13
Rp14
g2
(V<data>\\u000a        <ttProgram>\\u000a          <ttc code=\"doubleh\" point1=\"dh01\" point2=\"dh02\" stem=\"X: 208\"/>\\u000a          <ttc code=\"alignt\" point=\"at01\" zone=\"t: 1\"/>\\u000a          <ttc code=\"alignb\" point=\"dh01\" zone=\"b: 0\"/>\\u000a        </ttProgram>\\u000a      </data>
p15
g4
tp16
Rp17
Ntp18
s."
EndChar
StartChar: L
Encoding: 44 76 44
GlifName: L_
Width: 1100
VWidth: 0
Flags: W
LayerCount: 2
Fore
SplineSet
390 160 m 257
NamedP: "sv01"
 1040 160 l 257
 1020 0 l 257
NamedP: "ab01"
 170 0 l 257
 190 200 l 257
NamedP: "dh01"
 190 1290 l 257
 160 1500 l 257
 400 1520 l 257
NamedP: "at01"
 400 340 l 257
NamedP: "dh02"
 390 160 l 257
NamedP: "sv01"
EndSplineSet
PickledDataWithLists: "(dp0
Vcom.adobe.type.autohint
p1
(c_codecs
encode
p2
(Vdata
p3
Vlatin1
p4
tp5
Rp6
g2
(V<data>\\u000a        <hintSetList>\\u000a          <hintset pointTag=\"sv01\">\\u000a            <hstem pos=\"0\" width=\"160\"/>\\u000a            <hstem pos=\"1520\" width=\"-20\"/>\\u000a            <vstem pos=\"190\" width=\"210\"/>\\u000a          </hintset>\\u000a        </hintSetList>\\u000a      </data>
p7
g4
tp8
Rp9
Ntp10
sVcom.fontlab.ttprogram
p11
(g2
(Vdata
p12
g4
tp13
Rp14
g2
(V<data>\\u000a        <ttProgram>\\u000a          <ttc code=\"doubleh\" point1=\"dh01\" point2=\"dh02\" stem=\"X: 208\"/>\\u000a          <ttc code=\"alignt\" point=\"at01\" zone=\"t: 1\"/>\\u000a          <ttc code=\"alignb\" point=\"ab01\" zone=\"b: 0\"/>\\u000a          <ttc code=\"singlev\" point1=\"ab01\" point2=\"sv01\" stem=\"Y: 162\"/>\\u000a        </ttProgram>\\u000a      </data>
p15
g4
tp16
Rp17
Ntp18
s."
EndChar
StartChar: M
Encoding: 46 77 46
GlifName: M_
Width: 1800
VWidth: 0
Flags: W
LayerCount: 2
Fore
SplineSet
1400 0 m 257
NamedP: "sh01"
 1400 1000 l 257
NamedP: "fh01"
 1444 1320 l 257
NamedP: "fh02"
 1439 1321 l 257
NamedP: "ih01"
 1338 1020 l 257
NamedP: "ih03"
 923 130 l 257
NamedP: "fh03"
 854 130 l 257
NamedP: "fh04"
 485 920 l 257
NamedP: "ih06"
 353 1321 l 257
NamedP: "ih04"
 347 1320 l 257
NamedP: "fh05"
 400 901 l 257
NamedP: "fv01"
 400 0 l 257
NamedP: "dh01"
 200 0 l 257
NamedP: "dh02"
 200 1290 l 257
 172 1500 l 257
NamedP: "ih05"
 406 1520 l 257
NamedP: "sh02"
 845 580 l 257
NamedP: "fh06"
 900 320 l 257
NamedP: "ah01"
 955 580 l 257
NamedP: "fh07"
 1384 1500 l 257
NamedP: "sh03"
 1610 1520 l 257
NamedP: "ih02"
 1610 0 l 257
NamedP: "ah02"
 1400 0 l 257
NamedP: "sh01"
EndSplineSet
PickledDataWithLists: "(dp0
Vcom.adobe.type.autohint
p1
(c_codecs
encode
p2
(Vdata
p3
Vlatin1
p4
tp5
Rp6
g2
(V<data>\\u000a        <hintSetList>\\u000a          <hintset pointTag=\"sh01\">\\u000a            <hstem pos=\"21\" width=\"-21\"/>\\u000a            <hstem pos=\"1520\" width=\"-20\"/>\\u000a            <vstem pos=\"200\" width=\"200\"/>\\u000a            <vstem pos=\"1400\" width=\"210\"/>\\u000a          </hintset>\\u000a        </hintSetList>\\u000a      </data>
p7
g4
tp8
Rp9
Ntp10
sVcom.fontlab.ttprogram
p11
(g2
(Vdata
p12
g4
tp13
Rp14
g2
(V<data>\\u000a        <ttProgram>\\u000a          <ttc align=\"round\" code=\"alignh\" point=\"lsb\"/>\\u000a          <ttc align=\"center\" code=\"alignh\" point=\"ah01\"/>\\u000a          <ttc align=\"round\" code=\"alignh\" point=\"ah02\"/>\\u000a          <ttc code=\"doubleh\" point1=\"dh01\" point2=\"dh02\" stem=\"X: 208\"/>\\u000a          <ttc code=\"mdeltah\" delta=\"-8\" point=\"ah02\" ppm1=\"33\" ppm2=\"33\"/>\\u000a          <ttc code=\"mdeltah\" delta=\"-8\" point=\"ah02\" ppm1=\"11\" ppm2=\"11\"/>\\u000a          <ttc code=\"singleh\" point1=\"ah02\" point2=\"sh01\" stem=\"X: 208\"/>\\u000a          <ttc code=\"interpolateh\" point=\"ih01\" point1=\"ih02\" point2=\"ih03\"/>\\u000a          <ttc code=\"interpolateh\" point=\"ih04\" point1=\"ih05\" point2=\"ih06\"/>\\u000a          <ttc code=\"singleh\" point1=\"ah01\" point2=\"sh02\"/>\\u000a          <ttc code=\"singleh\" point1=\"ah01\" point2=\"sh03\"/>\\u000a          <ttc code=\"singleh\" point1=\"ah02\" point2=\"rsb\" round=\"true\"/>\\u000a          <ttc code=\"alignt\" point=\"sh02\" zone=\"t: 1\"/>\\u000a          <ttc code=\"alignt\" point=\"ih02\" zone=\"t: 1\"/>\\u000a          <ttc code=\"alignb\" point=\"sh01\" zone=\"b: 0\"/>\\u000a          <ttc code=\"alignb\" point=\"dh01\" zone=\"b: 0\"/>\\u000a          <ttc code=\"interpolatev\" point=\"ah01\" point1=\"dh01\" point2=\"sh02\"/>\\u000a          <ttc code=\"fdeltah\" delta=\"-8\" point=\"sh01\" ppm1=\"17\" ppm2=\"17\"/>\\u000a          <ttc code=\"fdeltah\" delta=\"-8\" point=\"fh01\" ppm1=\"17\" ppm2=\"17\"/>\\u000a          <ttc code=\"fdeltah\" delta=\"-5\" point=\"fh02\" ppm1=\"26\" ppm2=\"26\"/>\\u000a          <ttc code=\"fdeltah\" delta=\"-2\" point=\"fh02\" ppm1=\"18\" ppm2=\"18\"/>\\u000a          <ttc code=\"fdeltah\" delta=\"-2\" point=\"fh02\" ppm1=\"24\" ppm2=\"24\"/>\\u000a          <ttc code=\"fdeltah\" delta=\"-1\" point=\"fh02\" ppm1=\"11\" ppm2=\"11\"/>\\u000a          <ttc code=\"fdeltah\" delta=\"3\" point=\"fh02\" ppm1=\"33\" ppm2=\"33\"/>\\u000a          <ttc code=\"fdeltah\" delta=\"4\" point=\"fh02\" ppm1=\"31\" ppm2=\"32\"/>\\u000a          <ttc code=\"fdeltah\" delta=\"-8\" point=\"ih01\" ppm1=\"26\" ppm2=\"26\"/>\\u000a          <ttc code=\"fdeltah\" delta=\"-5\" point=\"ih01\" ppm1=\"29\" ppm2=\"29\"/>\\u000a          <ttc code=\"fdeltah\" delta=\"-4\" point=\"ih01\" ppm1=\"24\" ppm2=\"24\"/>\\u000a          <ttc code=\"fdeltah\" delta=\"-4\" point=\"ih01\" ppm1=\"30\" ppm2=\"30\"/>\\u000a          <ttc code=\"fdeltah\" delta=\"-3\" point=\"ih01\" ppm1=\"11\" ppm2=\"11\"/>\\u000a          <ttc code=\"fdeltah\" delta=\"-3\" point=\"ih01\" ppm1=\"18\" ppm2=\"18\"/>\\u000a          <ttc code=\"fdeltah\" delta=\"-2\" point=\"ih01\" ppm1=\"13\" ppm2=\"13\"/>\\u000a          <ttc code=\"fdeltah\" delta=\"-6\" point=\"ih03\" ppm1=\"13\" ppm2=\"13\"/>\\u000a          <ttc code=\"fdeltah\" delta=\"-5\" point=\"ih03\" ppm1=\"11\" ppm2=\"11\"/>\\u000a          <ttc code=\"fdeltah\" delta=\"-5\" point=\"ih03\" ppm1=\"26\" ppm2=\"26\"/>\\u000a          <ttc code=\"fdeltah\" delta=\"-5\" point=\"ih03\" ppm1=\"33\" ppm2=\"33\"/>\\u000a          <ttc code=\"fdeltah\" delta=\"-4\" point=\"ih03\" ppm1=\"17\" ppm2=\"17\"/>\\u000a          <ttc code=\"fdeltah\" delta=\"-4\" point=\"ih03\" ppm1=\"30\" ppm2=\"30\"/>\\u000a          <ttc code=\"fdeltah\" delta=\"-3\" point=\"ih03\" ppm1=\"35\" ppm2=\"35\"/>\\u000a          <ttc code=\"fdeltah\" delta=\"-2\" point=\"ih03\" ppm1=\"18\" ppm2=\"18\"/>\\u000a          <ttc code=\"fdeltah\" delta=\"-2\" point=\"ih03\" ppm1=\"24\" ppm2=\"24\"/>\\u000a          <ttc code=\"fdeltah\" delta=\"-2\" point=\"ih03\" ppm1=\"31\" ppm2=\"31\"/>\\u000a          <ttc code=\"fdeltah\" delta=\"-2\" point=\"ih03\" ppm1=\"37\" ppm2=\"37\"/>\\u000a          <ttc code=\"fdeltah\" delta=\"-1\" point=\"ih03\" ppm1=\"42\" ppm2=\"42\"/>\\u000a          <ttc code=\"fdeltah\" delta=\"-3\" point=\"fh03\" ppm1=\"31\" ppm2=\"31\"/>\\u000a          <ttc code=\"fdeltah\" delta=\"-2\" point=\"fh03\" ppm1=\"11\" ppm2=\"11\"/>\\u000a          <ttc code=\"fdeltah\" delta=\"-2\" point=\"fh03\" ppm1=\"32\" ppm2=\"33\"/>\\u000a          <ttc code=\"fdeltah\" delta=\"-1\" point=\"fh03\" ppm1=\"13\" ppm2=\"13\"/>\\u000a          <ttc code=\"fdeltah\" delta=\"-1\" point=\"fh03\" ppm1=\"28\" ppm2=\"28\"/>\\u000a          <ttc code=\"fdeltah\" delta=\"-1\" point=\"fh03\" ppm1=\"39\" ppm2=\"39\"/>\\u000a          <ttc code=\"fdeltah\" delta=\"-1\" point=\"fh03\" ppm1=\"42\" ppm2=\"42\"/>\\u000a          <ttc code=\"fdeltah\" delta=\"2\" point=\"fh03\" ppm1=\"12\" ppm2=\"12\"/>\\u000a          <ttc code=\"fdeltah\" delta=\"2\" point=\"fh03\" ppm1=\"15\" ppm2=\"15\"/>\\u000a          <ttc code=\"fdeltah\" delta=\"2\" point=\"fh03\" ppm1=\"20\" ppm2=\"20\"/>\\u000a          <ttc code=\"fdeltah\" delta=\"4\" point=\"fh03\" ppm1=\"14\" ppm2=\"14\"/>\\u000a          <ttc code=\"fdeltah\" delta=\"-4\" point=\"fh04\" ppm1=\"11\" ppm2=\"11\"/>\\u000a          <ttc code=\"fdeltah\" delta=\"-3\" point=\"fh04\" ppm1=\"31\" ppm2=\"31\"/>\\u000a          <ttc code=\"fdeltah\" delta=\"-2\" point=\"fh04\" ppm1=\"32\" ppm2=\"32\"/>\\u000a          <ttc code=\"fdeltah\" delta=\"1\" point=\"fh04\" ppm1=\"28\" ppm2=\"28\"/>\\u000a          <ttc code=\"fdeltah\" delta=\"1\" point=\"fh04\" ppm1=\"43\" ppm2=\"43\"/>\\u000a          <ttc code=\"fdeltah\" delta=\"2\" point=\"fh04\" ppm1=\"12\" ppm2=\"12\"/>\\u000a          <ttc code=\"fdeltah\" delta=\"2\" point=\"fh04\" ppm1=\"15\" ppm2=\"17\"/>\\u000a          <ttc code=\"fdeltah\" delta=\"2\" point=\"fh04\" ppm1=\"30\" ppm2=\"30\"/>\\u000a          <ttc code=\"fdeltah\" delta=\"2\" point=\"fh04\" ppm1=\"39\" ppm2=\"39\"/>\\u000a          <ttc code=\"fdeltah\" delta=\"3\" point=\"fh04\" ppm1=\"14\" ppm2=\"14\"/>\\u000a          <ttc code=\"fdeltah\" delta=\"3\" point=\"fh04\" ppm1=\"38\" ppm2=\"38\"/>\\u000a          <ttc code=\"fdeltah\" delta=\"1\" point=\"ih06\" ppm1=\"17\" ppm2=\"17\"/>\\u000a          <ttc code=\"fdeltah\" delta=\"2\" point=\"ih06\" ppm1=\"12\" ppm2=\"12\"/>\\u000a          <ttc code=\"fdeltah\" delta=\"2\" point=\"ih06\" ppm1=\"18\" ppm2=\"18\"/>\\u000a          <ttc code=\"fdeltah\" delta=\"2\" point=\"ih06\" ppm1=\"35\" ppm2=\"35\"/>\\u000a          <ttc code=\"fdeltah\" delta=\"3\" point=\"ih06\" ppm1=\"16\" ppm2=\"16\"/>\\u000a          <ttc code=\"fdeltah\" delta=\"4\" point=\"ih06\" ppm1=\"24\" ppm2=\"24\"/>\\u000a          <ttc code=\"fdeltah\" delta=\"5\" point=\"ih06\" ppm1=\"14\" ppm2=\"14\"/>\\u000a          <ttc code=\"fdeltah\" delta=\"1\" point=\"ih04\" ppm1=\"27\" ppm2=\"27\"/>\\u000a          <ttc code=\"fdeltah\" delta=\"2\" point=\"ih04\" ppm1=\"28\" ppm2=\"28\"/>\\u000a          <ttc code=\"fdeltah\" delta=\"3\" point=\"ih04\" ppm1=\"18\" ppm2=\"18\"/>\\u000a          <ttc code=\"fdeltah\" delta=\"5\" point=\"ih04\" ppm1=\"25\" ppm2=\"26\"/>\\u000a          <ttc code=\"fdeltah\" delta=\"5\" point=\"ih04\" ppm1=\"30\" ppm2=\"31\"/>\\u000a          <ttc code=\"fdeltah\" delta=\"6\" point=\"ih04\" ppm1=\"19\" ppm2=\"19\"/>\\u000a          <ttc code=\"fdeltah\" delta=\"6\" point=\"ih04\" ppm1=\"24\" ppm2=\"24\"/>\\u000a          <ttc code=\"fdeltah\" delta=\"6\" point=\"ih04\" ppm1=\"29\" ppm2=\"29\"/>\\u000a          <ttc code=\"fdeltah\" delta=\"-3\" point=\"fh05\" ppm1=\"32\" ppm2=\"33\"/>\\u000a          <ttc code=\"fdeltah\" delta=\"-1\" point=\"fh05\" ppm1=\"13\" ppm2=\"13\"/>\\u000a          <ttc code=\"fdeltah\" delta=\"-1\" point=\"fh05\" ppm1=\"30\" ppm2=\"31\"/>\\u000a          <ttc code=\"fdeltah\" delta=\"2\" point=\"fh05\" ppm1=\"18\" ppm2=\"18\"/>\\u000a          <ttc code=\"fdeltah\" delta=\"3\" point=\"fh05\" ppm1=\"25\" ppm2=\"26\"/>\\u000a          <ttc code=\"fdeltah\" delta=\"4\" point=\"fh05\" ppm1=\"19\" ppm2=\"19\"/>\\u000a          <ttc code=\"fdeltah\" delta=\"4\" point=\"fh05\" ppm1=\"24\" ppm2=\"24\"/>\\u000a          <ttc code=\"fdeltah\" delta=\"1\" point=\"ih05\" ppm1=\"27\" ppm2=\"27\"/>\\u000a          <ttc code=\"fdeltah\" delta=\"1\" point=\"ih05\" ppm1=\"38\" ppm2=\"38\"/>\\u000a          <ttc code=\"fdeltah\" delta=\"-3\" point=\"sh02\" ppm1=\"18\" ppm2=\"18\"/>\\u000a          <ttc code=\"fdeltah\" delta=\"-2\" point=\"sh02\" ppm1=\"12\" ppm2=\"12\"/>\\u000a          <ttc code=\"fdeltah\" delta=\"-2\" point=\"sh02\" ppm1=\"20\" ppm2=\"20\"/>\\u000a          <ttc code=\"fdeltah\" delta=\"-2\" point=\"sh02\" ppm1=\"36\" ppm2=\"36\"/>\\u000a          <ttc code=\"fdeltah\" delta=\"-2\" point=\"sh02\" ppm1=\"38\" ppm2=\"38\"/>\\u000a          <ttc code=\"fdeltah\" delta=\"-1\" point=\"sh02\" ppm1=\"16\" ppm2=\"16\"/>\\u000a          <ttc code=\"fdeltah\" delta=\"-1\" point=\"sh02\" ppm1=\"28\" ppm2=\"28\"/>\\u000a          <ttc code=\"fdeltah\" delta=\"-1\" point=\"sh02\" ppm1=\"30\" ppm2=\"30\"/>\\u000a          <ttc code=\"fdeltah\" delta=\"1\" point=\"sh02\" ppm1=\"41\" ppm2=\"41\"/>\\u000a          <ttc code=\"fdeltah\" delta=\"2\" point=\"sh02\" ppm1=\"33\" ppm2=\"33\"/>\\u000a          <ttc code=\"fdeltah\" delta=\"3\" point=\"sh02\" ppm1=\"32\" ppm2=\"32\"/>\\u000a          <ttc code=\"fdeltah\" delta=\"4\" point=\"sh02\" ppm1=\"42\" ppm2=\"42\"/>\\u000a          <ttc code=\"fdeltah\" delta=\"5\" point=\"sh02\" ppm1=\"22\" ppm2=\"22\"/>\\u000a          <ttc code=\"fdeltah\" delta=\"5\" point=\"sh02\" ppm1=\"31\" ppm2=\"31\"/>\\u000a          <ttc code=\"fdeltah\" delta=\"6\" point=\"sh02\" ppm1=\"35\" ppm2=\"35\"/>\\u000a          <ttc code=\"fdeltah\" delta=\"8\" point=\"sh02\" ppm1=\"24\" ppm2=\"24\"/>\\u000a          <ttc code=\"fdeltah\" delta=\"-2\" point=\"fh06\" ppm1=\"17\" ppm2=\"17\"/>\\u000a          <ttc code=\"fdeltah\" delta=\"-2\" point=\"fh06\" ppm1=\"20\" ppm2=\"20\"/>\\u000a          <ttc code=\"fdeltah\" delta=\"-2\" point=\"fh06\" ppm1=\"38\" ppm2=\"38\"/>\\u000a          <ttc code=\"fdeltah\" delta=\"-1\" point=\"fh06\" ppm1=\"12\" ppm2=\"12\"/>\\u000a          <ttc code=\"fdeltah\" delta=\"-1\" point=\"fh06\" ppm1=\"39\" ppm2=\"39\"/>\\u000a          <ttc code=\"fdeltah\" delta=\"-1\" point=\"fh06\" ppm1=\"41\" ppm2=\"41\"/>\\u000a          <ttc code=\"fdeltah\" delta=\"-1\" point=\"fh06\" ppm1=\"43\" ppm2=\"43\"/>\\u000a          <ttc code=\"fdeltah\" delta=\"1\" point=\"fh06\" ppm1=\"33\" ppm2=\"33\"/>\\u000a          <ttc code=\"fdeltah\" delta=\"2\" point=\"fh06\" ppm1=\"15\" ppm2=\"15\"/>\\u000a          <ttc code=\"fdeltah\" delta=\"2\" point=\"fh06\" ppm1=\"35\" ppm2=\"35\"/>\\u000a          <ttc code=\"fdeltah\" delta=\"3\" point=\"fh06\" ppm1=\"22\" ppm2=\"22\"/>\\u000a          <ttc code=\"fdeltah\" delta=\"3\" point=\"fh06\" ppm1=\"42\" ppm2=\"42\"/>\\u000a          <ttc code=\"fdeltah\" delta=\"8\" point=\"ah01\" ppm1=\"22\" ppm2=\"22\"/>\\u000a          <ttc code=\"fdeltah\" delta=\"1\" point=\"fh07\" ppm1=\"11\" ppm2=\"11\"/>\\u000a          <ttc code=\"fdeltah\" delta=\"1\" point=\"fh07\" ppm1=\"31\" ppm2=\"31\"/>\\u000a          <ttc code=\"fdeltah\" delta=\"1\" point=\"fh07\" ppm1=\"38\" ppm2=\"39\"/>\\u000a          <ttc code=\"fdeltah\" delta=\"1\" point=\"fh07\" ppm1=\"43\" ppm2=\"43\"/>\\u000a          <ttc code=\"fdeltah\" delta=\"2\" point=\"fh07\" ppm1=\"12\" ppm2=\"12\"/>\\u000a          <ttc code=\"fdeltah\" delta=\"2\" point=\"fh07\" ppm1=\"15\" ppm2=\"15\"/>\\u000a          <ttc code=\"fdeltah\" delta=\"2\" point=\"fh07\" ppm1=\"35\" ppm2=\"35\"/>\\u000a          <ttc code=\"fdeltah\" delta=\"3\" point=\"fh07\" ppm1=\"42\" ppm2=\"42\"/>\\u000a          <ttc code=\"fdeltah\" delta=\"8\" point=\"fh07\" ppm1=\"22\" ppm2=\"22\"/>\\u000a          <ttc code=\"fdeltah\" delta=\"-3\" point=\"sh03\" ppm1=\"13\" ppm2=\"13\"/>\\u000a          <ttc code=\"fdeltah\" delta=\"-3\" point=\"sh03\" ppm1=\"20\" ppm2=\"20\"/>\\u000a          <ttc code=\"fdeltah\" delta=\"-2\" point=\"sh03\" ppm1=\"11\" ppm2=\"11\"/>\\u000a          <ttc code=\"fdeltah\" delta=\"-2\" point=\"sh03\" ppm1=\"29\" ppm2=\"29\"/>\\u000a          <ttc code=\"fdeltah\" delta=\"-2\" point=\"sh03\" ppm1=\"36\" ppm2=\"36\"/>\\u000a          <ttc code=\"fdeltah\" delta=\"-1\" point=\"sh03\" ppm1=\"41\" ppm2=\"41\"/>\\u000a          <ttc code=\"fdeltah\" delta=\"1\" point=\"sh03\" ppm1=\"16\" ppm2=\"16\"/>\\u000a          <ttc code=\"fdeltah\" delta=\"1\" point=\"sh03\" ppm1=\"28\" ppm2=\"28\"/>\\u000a          <ttc code=\"fdeltah\" delta=\"1\" point=\"sh03\" ppm1=\"30\" ppm2=\"30\"/>\\u000a          <ttc code=\"fdeltah\" delta=\"2\" point=\"sh03\" ppm1=\"12\" ppm2=\"12\"/>\\u000a          <ttc code=\"fdeltah\" delta=\"2\" point=\"sh03\" ppm1=\"24\" ppm2=\"24\"/>\\u000a          <ttc code=\"fdeltah\" delta=\"2\" point=\"sh03\" ppm1=\"32\" ppm2=\"32\"/>\\u000a          <ttc code=\"fdeltah\" delta=\"2\" point=\"sh03\" ppm1=\"34\" ppm2=\"34\"/>\\u000a          <ttc code=\"fdeltah\" delta=\"3\" point=\"sh03\" ppm1=\"15\" ppm2=\"15\"/>\\u000a          <ttc code=\"fdeltah\" delta=\"3\" point=\"sh03\" ppm1=\"31\" ppm2=\"31\"/>\\u000a          <ttc code=\"fdeltah\" delta=\"3\" point=\"sh03\" ppm1=\"35\" ppm2=\"35\"/>\\u000a          <ttc code=\"fdeltah\" delta=\"3\" point=\"sh03\" ppm1=\"42\" ppm2=\"42\"/>\\u000a          <ttc code=\"fdeltah\" delta=\"8\" point=\"sh03\" ppm1=\"22\" ppm2=\"22\"/>\\u000a          <ttc code=\"fdeltah\" delta=\"-8\" point=\"ih02\" ppm1=\"17\" ppm2=\"17\"/>\\u000a          <ttc code=\"fdeltah\" delta=\"-8\" point=\"ah02\" ppm1=\"17\" ppm2=\"17\"/>\\u000a          <ttc code=\"fdeltav\" delta=\"-4\" point=\"fh01\" ppm1=\"30\" ppm2=\"31\"/>\\u000a          <ttc code=\"fdeltav\" delta=\"-3\" point=\"fh01\" ppm1=\"18\" ppm2=\"18\"/>\\u000a          <ttc code=\"fdeltav\" delta=\"-3\" point=\"fh01\" ppm1=\"29\" ppm2=\"29\"/>\\u000a          <ttc code=\"fdeltav\" delta=\"-8\" point=\"fh02\" ppm1=\"24\" ppm2=\"24\"/>\\u000a          <ttc code=\"fdeltav\" delta=\"-8\" point=\"fh02\" ppm1=\"26\" ppm2=\"26\"/>\\u000a          <ttc code=\"fdeltav\" delta=\"-8\" point=\"fh02\" ppm1=\"29\" ppm2=\"29\"/>\\u000a          <ttc code=\"fdeltav\" delta=\"-5\" point=\"fh02\" ppm1=\"30\" ppm2=\"30\"/>\\u000a          <ttc code=\"fdeltav\" delta=\"-4\" point=\"fh02\" ppm1=\"31\" ppm2=\"31\"/>\\u000a          <ttc code=\"fdeltav\" delta=\"-3\" point=\"fh02\" ppm1=\"18\" ppm2=\"18\"/>\\u000a          <ttc code=\"fdeltav\" delta=\"-8\" point=\"ih01\" ppm1=\"24\" ppm2=\"24\"/>\\u000a          <ttc code=\"fdeltav\" delta=\"-8\" point=\"ih01\" ppm1=\"26\" ppm2=\"26\"/>\\u000a          <ttc code=\"fdeltav\" delta=\"-8\" point=\"ih01\" ppm1=\"29\" ppm2=\"29\"/>\\u000a          <ttc code=\"fdeltav\" delta=\"-4\" point=\"ih01\" ppm1=\"30\" ppm2=\"30\"/>\\u000a          <ttc code=\"fdeltav\" delta=\"-3\" point=\"ih01\" ppm1=\"18\" ppm2=\"18\"/>\\u000a          <ttc code=\"fdeltav\" delta=\"-8\" point=\"ih03\" ppm1=\"30\" ppm2=\"30\"/>\\u000a          <ttc code=\"fdeltav\" delta=\"-5\" point=\"ih03\" ppm1=\"37\" ppm2=\"37\"/>\\u000a          <ttc code=\"fdeltav\" delta=\"-2\" point=\"ih03\" ppm1=\"33\" ppm2=\"33\"/>\\u000a          <ttc code=\"fdeltav\" delta=\"1\" point=\"ih03\" ppm1=\"18\" ppm2=\"18\"/>\\u000a          <ttc code=\"fdeltav\" delta=\"6\" point=\"ih03\" ppm1=\"29\" ppm2=\"29\"/>\\u000a          <ttc code=\"fdeltav\" delta=\"5\" point=\"fh03\" ppm1=\"18\" ppm2=\"18\"/>\\u000a          <ttc code=\"fdeltav\" delta=\"5\" point=\"fh04\" ppm1=\"18\" ppm2=\"18\"/>\\u000a          <ttc code=\"fdeltav\" delta=\"1\" point=\"ih06\" ppm1=\"18\" ppm2=\"18\"/>\\u000a          <ttc code=\"fdeltav\" delta=\"2\" point=\"ih06\" ppm1=\"19\" ppm2=\"19\"/>\\u000a          <ttc code=\"fdeltav\" delta=\"8\" point=\"ih06\" ppm1=\"27\" ppm2=\"28\"/>\\u000a          <ttc code=\"fdeltav\" delta=\"-8\" point=\"ih04\" ppm1=\"25\" ppm2=\"31\"/>\\u000a          <ttc code=\"fdeltav\" delta=\"-7\" point=\"ih04\" ppm1=\"19\" ppm2=\"19\"/>\\u000a          <ttc code=\"fdeltav\" delta=\"-7\" point=\"ih04\" ppm1=\"24\" ppm2=\"24\"/>\\u000a          <ttc code=\"fdeltav\" delta=\"-4\" point=\"ih04\" ppm1=\"18\" ppm2=\"18\"/>\\u000a          <ttc code=\"fdeltav\" delta=\"-8\" point=\"fh05\" ppm1=\"25\" ppm2=\"31\"/>\\u000a          <ttc code=\"fdeltav\" delta=\"-7\" point=\"fh05\" ppm1=\"19\" ppm2=\"19\"/>\\u000a          <ttc code=\"fdeltav\" delta=\"-7\" point=\"fh05\" ppm1=\"24\" ppm2=\"24\"/>\\u000a          <ttc code=\"fdeltav\" delta=\"-4\" point=\"fh05\" ppm1=\"18\" ppm2=\"18\"/>\\u000a          <ttc code=\"fdeltav\" delta=\"-8\" point=\"fv01\" ppm1=\"25\" ppm2=\"31\"/>\\u000a          <ttc code=\"fdeltav\" delta=\"-3\" point=\"fv01\" ppm1=\"32\" ppm2=\"32\"/>\\u000a          <ttc code=\"fdeltav\" delta=\"-3\" point=\"fh06\" ppm1=\"29\" ppm2=\"29\"/>\\u000a          <ttc code=\"fdeltav\" delta=\"3\" point=\"fh06\" ppm1=\"11\" ppm2=\"11\"/>\\u000a          <ttc code=\"fdeltav\" delta=\"-3\" point=\"fh07\" ppm1=\"29\" ppm2=\"29\"/>\\u000a          <ttc code=\"fdeltav\" delta=\"-1\" point=\"sh03\" ppm1=\"42\" ppm2=\"42\"/>\\u000a        </ttProgram>\\u000a      </data>
p15
g4
tp16
Rp17
Ntp18
sVcom.typemytype.robofont.guides
p19
(lp20
(dp21
Vangle
p22
I0
sVisGlobal
p23
I00
sVmagnetic
p24
I5
sVx
p25
I0
sVy
p26
I1287
sas."
EndChar
StartChar: N
Encoding: 48 78 48
GlifName: N_
Width: 1500
VWidth: 0
Flags: W
LayerCount: 2
Fore
SplineSet
1100 0 m 257
NamedP: "ah01"
 485 1028 l 257
NamedP: "ih03"
 368 1317 l 257
NamedP: "ih01"
 362 1316 l 257
NamedP: "fv01"
 400 1000 l 257
NamedP: "fv02"
 400 0 l 257
NamedP: "sh02"
 200 0 l 257
NamedP: "sh01"
 200 1290 l 257
 170 1500 l 257
NamedP: "ih02"
 406 1520 l 257
NamedP: "at01"
 1022 487 l 257
NamedP: "ih05"
 1142 173 l 257
NamedP: "ih04"
 1148 174 l 257
 1100 510 l 257
NamedP: "sh04"
 1100 1500 l 257
 1295 1520 l 257
NamedP: "at02"
 1295 0 l 257
NamedP: "sh03"
 1100 0 l 257
NamedP: "ah01"
EndSplineSet
PickledDataWithLists: "(dp0
Vcom.adobe.type.autohint
p1
(c_codecs
encode
p2
(Vdata
p3
Vlatin1
p4
tp5
Rp6
g2
(V<data>\\u000a        <hintSetList>\\u000a          <hintset pointTag=\"ah01\">\\u000a            <hstem pos=\"21\" width=\"-21\"/>\\u000a            <hstem pos=\"1520\" width=\"-20\"/>\\u000a            <vstem pos=\"200\" width=\"200\"/>\\u000a            <vstem pos=\"1100\" width=\"195\"/>\\u000a          </hintset>\\u000a        </hintSetList>\\u000a      </data>
p7
g4
tp8
Rp9
Ntp10
sVcom.fontlab.ttprogram
p11
(g2
(Vdata
p12
g4
tp13
Rp14
g2
(V<data>\\u000a        <ttProgram>\\u000a          <ttc align=\"round\" code=\"alignh\" point=\"lsb\"/>\\u000a          <ttc align=\"round\" code=\"alignh\" point=\"ah01\"/>\\u000a          <ttc code=\"interpolateh\" point=\"ih01\" point1=\"ih02\" point2=\"ih03\"/>\\u000a          <ttc align=\"round\" code=\"singleh\" point1=\"lsb\" point2=\"sh01\"/>\\u000a          <ttc code=\"singleh\" point1=\"sh01\" point2=\"sh02\" stem=\"X: 199\"/>\\u000a          <ttc code=\"singleh\" point1=\"ah01\" point2=\"sh03\" stem=\"X: 199\"/>\\u000a          <ttc code=\"interpolateh\" point=\"ih04\" point1=\"sh03\" point2=\"ih05\"/>\\u000a          <ttc code=\"singleh\" point1=\"ah01\" point2=\"sh04\"/>\\u000a          <ttc code=\"singleh\" point1=\"sh03\" point2=\"rsb\" round=\"true\"/>\\u000a          <ttc code=\"alignt\" point=\"at01\" zone=\"t: 1\"/>\\u000a          <ttc code=\"alignt\" point=\"at02\" zone=\"t: 1\"/>\\u000a          <ttc code=\"alignb\" point=\"ah01\" zone=\"b: 0\"/>\\u000a          <ttc code=\"alignb\" point=\"sh02\" zone=\"b: 0\"/>\\u000a          <ttc code=\"fdeltah\" delta=\"-2\" point=\"ah01\" ppm1=\"43\" ppm2=\"43\"/>\\u000a          <ttc code=\"fdeltah\" delta=\"2\" point=\"ah01\" ppm1=\"22\" ppm2=\"22\"/>\\u000a          <ttc code=\"fdeltah\" delta=\"2\" point=\"ah01\" ppm1=\"26\" ppm2=\"26\"/>\\u000a          <ttc code=\"fdeltah\" delta=\"5\" point=\"ah01\" ppm1=\"18\" ppm2=\"18\"/>\\u000a          <ttc code=\"fdeltah\" delta=\"1\" point=\"ih03\" ppm1=\"31\" ppm2=\"31\"/>\\u000a          <ttc code=\"fdeltah\" delta=\"2\" point=\"ih03\" ppm1=\"32\" ppm2=\"32\"/>\\u000a          <ttc code=\"fdeltah\" delta=\"2\" point=\"ih03\" ppm1=\"39\" ppm2=\"39\"/>\\u000a          <ttc code=\"fdeltah\" delta=\"3\" point=\"ih03\" ppm1=\"26\" ppm2=\"26\"/>\\u000a          <ttc code=\"fdeltah\" delta=\"4\" point=\"ih03\" ppm1=\"40\" ppm2=\"40\"/>\\u000a          <ttc code=\"fdeltah\" delta=\"1\" point=\"ih01\" ppm1=\"19\" ppm2=\"19\"/>\\u000a          <ttc code=\"fdeltah\" delta=\"-3\" point=\"at01\" ppm1=\"18\" ppm2=\"18\"/>\\u000a          <ttc code=\"fdeltah\" delta=\"-3\" point=\"at01\" ppm1=\"27\" ppm2=\"27\"/>\\u000a          <ttc code=\"fdeltah\" delta=\"-1\" point=\"at01\" ppm1=\"15\" ppm2=\"15\"/>\\u000a          <ttc code=\"fdeltah\" delta=\"-1\" point=\"at01\" ppm1=\"41\" ppm2=\"41\"/>\\u000a          <ttc code=\"fdeltah\" delta=\"4\" point=\"at01\" ppm1=\"43\" ppm2=\"43\"/>\\u000a          <ttc code=\"fdeltah\" delta=\"-6\" point=\"ih05\" ppm1=\"37\" ppm2=\"37\"/>\\u000a          <ttc code=\"fdeltah\" delta=\"-5\" point=\"ih05\" ppm1=\"27\" ppm2=\"27\"/>\\u000a          <ttc code=\"fdeltah\" delta=\"-5\" point=\"ih05\" ppm1=\"39\" ppm2=\"39\"/>\\u000a          <ttc code=\"fdeltah\" delta=\"-3\" point=\"ih05\" ppm1=\"42\" ppm2=\"42\"/>\\u000a          <ttc code=\"fdeltah\" delta=\"-2\" point=\"ih05\" ppm1=\"41\" ppm2=\"41\"/>\\u000a          <ttc code=\"fdeltah\" delta=\"-1\" point=\"ih05\" ppm1=\"43\" ppm2=\"43\"/>\\u000a          <ttc code=\"fdeltav\" delta=\"-8\" point=\"ih03\" ppm1=\"40\" ppm2=\"40\"/>\\u000a          <ttc code=\"fdeltav\" delta=\"-6\" point=\"ih03\" ppm1=\"39\" ppm2=\"39\"/>\\u000a          <ttc code=\"fdeltav\" delta=\"-4\" point=\"ih03\" ppm1=\"32\" ppm2=\"32\"/>\\u000a          <ttc code=\"fdeltav\" delta=\"-2\" point=\"ih03\" ppm1=\"31\" ppm2=\"31\"/>\\u000a          <ttc code=\"fdeltav\" delta=\"5\" point=\"ih03\" ppm1=\"17\" ppm2=\"17\"/>\\u000a          <ttc code=\"fdeltav\" delta=\"-3\" point=\"ih01\" ppm1=\"19\" ppm2=\"19\"/>\\u000a          <ttc code=\"fdeltav\" delta=\"-3\" point=\"fv01\" ppm1=\"19\" ppm2=\"19\"/>\\u000a          <ttc code=\"fdeltav\" delta=\"-8\" point=\"fv02\" ppm1=\"26\" ppm2=\"26\"/>\\u000a          <ttc code=\"fdeltav\" delta=\"-8\" point=\"fv02\" ppm1=\"28\" ppm2=\"28\"/>\\u000a          <ttc code=\"fdeltav\" delta=\"-4\" point=\"fv02\" ppm1=\"29\" ppm2=\"29\"/>\\u000a          <ttc code=\"fdeltav\" delta=\"-3\" point=\"ih05\" ppm1=\"17\" ppm2=\"17\"/>\\u000a          <ttc code=\"fdeltav\" delta=\"3\" point=\"ih05\" ppm1=\"41\" ppm2=\"41\"/>\\u000a          <ttc code=\"fdeltav\" delta=\"4\" point=\"ih05\" ppm1=\"42\" ppm2=\"42\"/>\\u000a          <ttc code=\"fdeltav\" delta=\"5\" point=\"ih05\" ppm1=\"43\" ppm2=\"43\"/>\\u000a          <ttc code=\"fdeltav\" delta=\"7\" point=\"ih05\" ppm1=\"27\" ppm2=\"27\"/>\\u000a          <ttc code=\"fdeltav\" delta=\"7\" point=\"ih05\" ppm1=\"39\" ppm2=\"39\"/>\\u000a          <ttc code=\"fdeltav\" delta=\"8\" point=\"ih05\" ppm1=\"37\" ppm2=\"37\"/>\\u000a          <ttc code=\"fdeltav\" delta=\"4\" point=\"sh04\" ppm1=\"29\" ppm2=\"29\"/>\\u000a          <ttc code=\"fdeltav\" delta=\"8\" point=\"sh04\" ppm1=\"26\" ppm2=\"26\"/>\\u000a          <ttc code=\"fdeltav\" delta=\"8\" point=\"sh04\" ppm1=\"28\" ppm2=\"28\"/>\\u000a        </ttProgram>\\u000a      </data>
p15
g4
tp16
Rp17
Ntp18
s."
EndChar
StartChar: P
Encoding: 65 80 65
GlifName: P_
Width: 1200
VWidth: 0
Flags: W
LayerCount: 2
Fore
SplineSet
400 0 m 257
NamedP: "sh02"
 190 0 l 257
NamedP: "sh01"
 190 1290 l 257
 155 1490 l 257
 185 1495 185 1495 228.5 1499 c 128
 272 1503 272 1503 321 1506 c 128
 370 1509 370 1509 419 1510.5 c 128
 468 1512 468 1512 507 1512 c 257
NamedP: "at01"
 622 1512 622 1512 727.5 1491.5 c 128
 833 1471 833 1471 914 1423 c 128
 995 1375 995 1375 1043 1297 c 128
 1091 1219 1091 1219 1091 1104 c 257
NamedP: "sh03"
 1091 964 1091 964 1041 871.5 c 128
 991 779 991 779 900 724 c 128
 809 669 809 669 681.5 646.5 c 128
 554 624 554 624 400 624 c 257
NamedP: "dv01"
 400 0 l 257
NamedP: "sh02"
400 1147 m 257
NamedP: "sh04"
 400 765 l 257
NamedP: "dv02"
 520 765 520 765 613 779 c 128
 706 793 706 793 770 829.5 c 128
 834 866 834 866 867 930 c 128
 900 994 900 994 900 1095 c 257
NamedP: "ah01"
 900 1170 900 1170 868.5 1223 c 128
 837 1276 837 1276 787 1310 c 128
 737 1344 737 1344 675 1359.5 c 128
 613 1375 613 1375 552 1375 c 257
NamedP: "sv01"
 535 1375 535 1375 511.5 1373.5 c 128
 488 1372 488 1372 464 1370 c 128
 440 1368 440 1368 417.5 1365 c 128
 395 1362 395 1362 380 1359 c 257
 400 1147 l 257
NamedP: "sh04"
EndSplineSet
PickledDataWithLists: "(dp0
Vcom.adobe.type.autohint
p1
(c_codecs
encode
p2
(Vdata
p3
Vlatin1
p4
tp5
Rp6
g2
(V<data>\\u000a        <hintSetList>\\u000a          <hintset pointTag=\"sh02\">\\u000a            <hstem pos=\"21\" width=\"-21\"/>\\u000a            <hstem pos=\"624\" width=\"141\"/>\\u000a            <hstem pos=\"1375\" width=\"137\"/>\\u000a            <vstem pos=\"190\" width=\"210\"/>\\u000a            <vstem pos=\"900\" width=\"191\"/>\\u000a          </hintset>\\u000a        </hintSetList>\\u000a      </data>
p7
g4
tp8
Rp9
Ntp10
sVcom.fontlab.ttprogram
p11
(g2
(Vdata
p12
g4
tp13
Rp14
g2
(V<data>\\u000a        <ttProgram>\\u000a          <ttc align=\"round\" code=\"alignh\" point=\"lsb\"/>\\u000a          <ttc align=\"round\" code=\"alignh\" point=\"ah01\"/>\\u000a          <ttc align=\"round\" code=\"singleh\" point1=\"lsb\" point2=\"sh01\"/>\\u000a          <ttc code=\"singleh\" point1=\"sh01\" point2=\"sh02\" stem=\"X: 208\"/>\\u000a          <ttc code=\"singleh\" point1=\"ah01\" point2=\"sh03\" stem=\"X: 190\"/>\\u000a          <ttc code=\"singleh\" point1=\"sh02\" point2=\"sh04\"/>\\u000a          <ttc code=\"singleh\" point1=\"sh03\" point2=\"rsb\" round=\"true\"/>\\u000a          <ttc code=\"alignt\" point=\"at01\" zone=\"t: 1\"/>\\u000a          <ttc code=\"alignb\" point=\"sh02\" zone=\"b: 0\"/>\\u000a          <ttc code=\"doublev\" point1=\"dv01\" point2=\"dv02\" stem=\"Y: 144\"/>\\u000a          <ttc code=\"singlev\" point1=\"at01\" point2=\"sv01\" stem=\"Y: 135\"/>\\u000a        </ttProgram>\\u000a      </data>
p15
g4
tp16
Rp17
Ntp18
sVcom.typemytype.robofont.guides
p19
(lp20
(dp21
Vangle
p22
I0
sVisGlobal
p23
I00
sVmagnetic
p24
I5
sVx
p25
I0
sVy
p26
I810
sas."
EndChar
StartChar: Q
Encoding: 68 81 68
GlifName: Q_
Width: 1600
VWidth: 0
Flags: W
LayerCount: 2
Fore
SplineSet
1404 -145 m 257
NamedP: "dv01"
 1348 -145 1348 -145 1292.5 -137.5 c 128
 1237 -130 1237 -130 1184 -104 c 128
 1131 -78 1131 -78 1081 -29.5 c 128
 1031 19 1031 19 987 102 c 257
 982 111 982 111 977 120 c 128
 972 129 972 129 967 137 c 257
 957 -1 l 257
NamedP: "fh01"
 920 -9 920 -9 881 -13 c 128
 842 -17 842 -17 800 -17 c 257
NamedP: "ab01"
 642 -17 642 -17 517 41 c 128
 392 99 392 99 304.5 201.5 c 128
 217 304 217 304 170.5 444.5 c 128
 124 585 124 585 124 750 c 257
NamedP: "dh01"
 124 915 124 915 169 1055.5 c 128
 214 1196 214 1196 300.5 1298.5 c 128
 387 1401 387 1401 513 1459 c 128
 639 1517 639 1517 800 1517 c 257
NamedP: "at01"
 957 1517 957 1517 1082.5 1459 c 128
 1208 1401 1208 1401 1295.5 1298.5 c 128
 1383 1196 1383 1196 1429.5 1055.5 c 128
 1476 915 1476 915 1476 750 c 257
NamedP: "dh04"
 1476 645 1476 645 1457.5 549.5 c 128
 1439 454 1439 454 1403 371.5 c 128
 1367 289 1367 289 1314.5 221 c 128
 1262 153 1262 153 1194 103 c 257
 1223 66 1223 66 1250.5 45.5 c 128
 1278 25 1278 25 1309.5 14.5 c 128
 1341 4 1341 4 1377.5 1.5 c 128
 1414 -1 1414 -1 1461 -1 c 257
NamedP: "dv02"
 1404 -145 l 257
NamedP: "dv01"
1268 719 m 257
NamedP: "dh03"
 1268 799 1268 799 1257 876.5 c 128
 1246 954 1246 954 1222 1023.5 c 128
 1198 1093 1198 1093 1160 1152.5 c 128
 1122 1212 1122 1212 1069.5 1255 c 128
 1017 1298 1017 1298 948.5 1322.5 c 128
 880 1347 880 1347 794 1347 c 257
NamedP: "sv01"
 671 1347 671 1347 583.5 1299.5 c 128
 496 1252 496 1252 440 1173 c 128
 384 1094 384 1094 358 993 c 128
 332 892 332 892 332 785 c 257
NamedP: "dh02"
 332 704 332 704 343.5 626 c 128
 355 548 355 548 379 477.5 c 128
 403 407 403 407 440.5 347.5 c 128
 478 288 478 288 530.5 245 c 128
 583 202 583 202 651.5 177.5 c 128
 720 153 720 153 806 153 c 257
NamedP: "sv02"
 844 153 844 153 879 158 c 128
 914 163 914 163 945 172 c 257
NamedP: "iv01"
 916 217 916 217 888.5 243 c 128
NamedP: "fh03"
 861 269 861 269 831 282 c 128
 801 295 801 295 765 298 c 128
 729 301 729 301 682 301 c 257
NamedP: "dv03"
 739 445 l 257
NamedP: "dv04"
 794 445 794 445 846 433 c 128
 898 421 898 421 948.5 391 c 128
 999 361 999 361 1048 309 c 128
 1097 257 1097 257 1145 177 c 257
NamedP: "iv02"
 1145 314 l 257
NamedP: "fh04"
 1209 395 1209 395 1238.5 501 c 128
 1268 607 1268 607 1268 719 c 257
NamedP: "dh03"
EndSplineSet
PickledDataWithLists: "(dp0
Vcom.adobe.type.autohint
p1
(c_codecs
encode
p2
(Vdata
p3
Vlatin1
p4
tp5
Rp6
g2
(V<data>\\u000a        <hintSetList>\\u000a          <hintset pointTag=\"dv01\">\\u000a            <hstem pos=\"-17\" width=\"170\"/>\\u000a            <hstem pos=\"301\" width=\"144\"/>\\u000a            <hstem pos=\"1347\" width=\"170\"/>\\u000a            <vstem pos=\"124\" width=\"208\"/>\\u000a            <vstem pos=\"1268\" width=\"208\"/>\\u000a          </hintset>\\u000a        </hintSetList>\\u000a      </data>
p7
g4
tp8
Rp9
Ntp10
sVcom.fontlab.ttprogram
p11
(g2
(Vdata
p12
g4
tp13
Rp14
g2
(V<data>\\u000a        <ttProgram>\\u000a          <ttc code=\"doubleh\" point1=\"dh01\" point2=\"dh02\" stem=\"X: 208\"/>\\u000a          <ttc code=\"doubleh\" point1=\"dh03\" point2=\"dh04\" stem=\"X: 208\"/>\\u000a          <ttc code=\"singleh\" point1=\"dh04\" point2=\"rsb\" round=\"true\"/>\\u000a          <ttc code=\"alignt\" point=\"at01\" zone=\"t: 1\"/>\\u000a          <ttc code=\"alignb\" point=\"ab01\" zone=\"b: 0\"/>\\u000a          <ttc code=\"doublev\" point1=\"dv01\" point2=\"dv02\" stem=\"Y: 144\"/>\\u000a          <ttc code=\"doublev\" point1=\"dv03\" point2=\"dv04\" stem=\"Y: 144\"/>\\u000a          <ttc code=\"mdeltav\" delta=\"8\" point=\"dv01\" ppm1=\"32\" ppm2=\"32\"/>\\u000a          <ttc code=\"singlev\" point1=\"at01\" point2=\"sv01\" stem=\"Y: 171\"/>\\u000a          <ttc code=\"singlev\" point1=\"ab01\" point2=\"sv02\" stem=\"Y: 171\"/>\\u000a          <ttc code=\"mdeltav\" delta=\"8\" point=\"dv03\" ppm1=\"32\" ppm2=\"32\"/>\\u000a          <ttc code=\"interpolatev\" point=\"iv01\" point1=\"ab01\" point2=\"dv03\"/>\\u000a          <ttc code=\"interpolatev\" point=\"iv02\" point1=\"ab01\" point2=\"at01\"/>\\u000a          <ttc code=\"fdeltah\" delta=\"-5\" point=\"fh01\" ppm1=\"20\" ppm2=\"20\"/>\\u000a          <ttc code=\"fdeltah\" delta=\"-4\" point=\"fh01\" ppm1=\"21\" ppm2=\"22\"/>\\u000a          <ttc code=\"fdeltah\" delta=\"3\" point=\"fh02\" ppm1=\"24\" ppm2=\"24\"/>\\u000a          <ttc code=\"fdeltah\" delta=\"4\" point=\"fh02\" ppm1=\"23\" ppm2=\"23\"/>\\u000a          <ttc code=\"fdeltah\" delta=\"5\" point=\"fh03\" ppm1=\"24\" ppm2=\"24\"/>\\u000a          <ttc code=\"fdeltah\" delta=\"6\" point=\"fh03\" ppm1=\"23\" ppm2=\"23\"/>\\u000a          <ttc code=\"fdeltah\" delta=\"-8\" point=\"dv03\" ppm1=\"33\" ppm2=\"33\"/>\\u000a          <ttc code=\"fdeltah\" delta=\"-7\" point=\"dv03\" ppm1=\"28\" ppm2=\"28\"/>\\u000a          <ttc code=\"fdeltah\" delta=\"-6\" point=\"dv03\" ppm1=\"29\" ppm2=\"29\"/>\\u000a          <ttc code=\"fdeltah\" delta=\"-5\" point=\"dv03\" ppm1=\"34\" ppm2=\"34\"/>\\u000a          <ttc code=\"fdeltah\" delta=\"-4\" point=\"dv03\" ppm1=\"31\" ppm2=\"32\"/>\\u000a          <ttc code=\"fdeltah\" delta=\"-4\" point=\"dv03\" ppm1=\"35\" ppm2=\"35\"/>\\u000a          <ttc code=\"fdeltah\" delta=\"-3\" point=\"dv03\" ppm1=\"17\" ppm2=\"17\"/>\\u000a          <ttc code=\"fdeltah\" delta=\"-3\" point=\"dv03\" ppm1=\"19\" ppm2=\"19\"/>\\u000a          <ttc code=\"fdeltah\" delta=\"-3\" point=\"dv03\" ppm1=\"25\" ppm2=\"25\"/>\\u000a          <ttc code=\"fdeltah\" delta=\"-3\" point=\"dv03\" ppm1=\"42\" ppm2=\"43\"/>\\u000a          <ttc code=\"fdeltah\" delta=\"-2\" point=\"dv03\" ppm1=\"26\" ppm2=\"27\"/>\\u000a          <ttc code=\"fdeltah\" delta=\"-2\" point=\"dv03\" ppm1=\"36\" ppm2=\"37\"/>\\u000a          <ttc code=\"fdeltah\" delta=\"-7\" point=\"dv04\" ppm1=\"17\" ppm2=\"17\"/>\\u000a          <ttc code=\"fdeltah\" delta=\"3\" point=\"fh04\" ppm1=\"26\" ppm2=\"27\"/>\\u000a          <ttc code=\"fdeltah\" delta=\"4\" point=\"fh04\" ppm1=\"25\" ppm2=\"25\"/>\\u000a          <ttc code=\"fdeltah\" delta=\"4\" point=\"fh04\" ppm1=\"28\" ppm2=\"30\"/>\\u000a          <ttc code=\"fdeltav\" delta=\"1\" point=\"fh03\" ppm1=\"23\" ppm2=\"24\"/>\\u000a          <ttc code=\"fdeltav\" delta=\"1\" point=\"dv03\" ppm1=\"34\" ppm2=\"34\"/>\\u000a          <ttc code=\"fdeltav\" delta=\"4\" point=\"iv02\" ppm1=\"22\" ppm2=\"22\"/>\\u000a        </ttProgram>\\u000a      </data>
p15
g4
tp16
Rp17
Ntp18
s."
EndChar
StartChar: S
Encoding: 72 83 72
GlifName: S_
Width: 1100
VWidth: 0
Flags: W
LayerCount: 2
Fore
SplineSet
870 1274 m 257
NamedP: "fh01"
 802 1314 802 1314 739.5 1333 c 128
 677 1352 677 1352 600 1352 c 257
NamedP: "sv01"
 546 1352 546 1352 494.5 1341 c 128
 443 1330 443 1330 403.5 1305.5 c 128
 364 1281 364 1281 339.5 1241.5 c 128
 315 1202 315 1202 315 1145 c 257
NamedP: "sh02"
 315 1089 315 1089 345 1048 c 128
 375 1007 375 1007 423.5 974.5 c 128
 472 942 472 942 534.5 914.5 c 128
NamedP: "iv01"
 597 887 597 887 662 856.5 c 128
 727 826 727 826 789.5 789.5 c 128
 852 753 852 753 900.5 703.5 c 128
 949 654 949 654 979 588 c 128
 1009 522 1009 522 1009 432 c 257
NamedP: "sh03"
 1009 358 1009 358 989 295.5 c 128
 969 233 969 233 933.5 183 c 128
 898 133 898 133 849 95.5 c 128
 800 58 800 58 742 33 c 128
 684 8 684 8 619.5 -4.5 c 128
 555 -17 555 -17 488 -17 c 257
NamedP: "ab01"
 255 -13 255 -13 82 94 c 257
NamedP: "fh02"
 173 244 l 257
NamedP: "fh03"
 193 231 193 231 225.5 214.5 c 128
NamedP: "fh04"
 258 198 258 198 298 183 c 128
 338 168 338 168 383 158 c 128
 428 148 428 148 474 148 c 257
NamedP: "sv02"
 536 148 536 148 595.5 163.5 c 128
 655 179 655 179 701.5 211.5 c 128
 748 244 748 244 776.5 294 c 128
 805 344 805 344 805 413 c 257
NamedP: "ah01"
 805 478 805 478 775 526.5 c 128
 745 575 745 575 696.5 613.5 c 128
 648 652 648 652 585.5 683 c 128
NamedP: "iv02"
 523 714 523 714 458 745 c 128
 393 776 393 776 330.5 810 c 128
 268 844 268 844 219.5 887 c 128
 171 930 171 930 141 985.5 c 128
 111 1041 111 1041 111 1116 c 257
NamedP: "sh01"
 111 1213 111 1213 151 1287.5 c 128
 191 1362 191 1362 256.5 1413 c 128
 322 1464 322 1464 405 1490.5 c 128
 488 1517 488 1517 574 1517 c 257
NamedP: "at01"
 787 1517 787 1517 967 1397 c 257
NamedP: "fh05"
 870 1274 l 257
NamedP: "fh01"
EndSplineSet
PickledDataWithLists: "(dp0
Vcom.adobe.type.autohint
p1
(c_codecs
encode
p2
(Vdata
p3
Vlatin1
p4
tp5
Rp6
g2
(V<data>\\u000a        <hintSetList>\\u000a          <hintset pointTag=\"fh01\">\\u000a            <hstem pos=\"-17\" width=\"165\"/>\\u000a            <hstem pos=\"1352\" width=\"165\"/>\\u000a            <vstem pos=\"111\" width=\"204\"/>\\u000a            <vstem pos=\"805\" width=\"204\"/>\\u000a          </hintset>\\u000a        </hintSetList>\\u000a      </data>
p7
g4
tp8
Rp9
Ntp10
sVcom.fontlab.ttprogram
p11
(g2
(Vdata
p12
g4
tp13
Rp14
g2
(V<data>\\u000a        <ttProgram>\\u000a          <ttc align=\"round\" code=\"alignh\" point=\"lsb\"/>\\u000a          <ttc align=\"round\" code=\"alignh\" point=\"ah01\"/>\\u000a          <ttc align=\"round\" code=\"singleh\" point1=\"lsb\" point2=\"sh01\"/>\\u000a          <ttc code=\"singleh\" point1=\"sh01\" point2=\"sh02\" stem=\"X: 208\"/>\\u000a          <ttc code=\"mdeltah\" delta=\"-1\" point=\"sh02\" ppm1=\"17\" ppm2=\"17\"/>\\u000a          <ttc code=\"mdeltah\" delta=\"-2\" point=\"sh02\" ppm1=\"9\" ppm2=\"15\"/>\\u000a          <ttc code=\"mdeltah\" delta=\"-3\" point=\"sh02\" ppm1=\"16\" ppm2=\"16\"/>\\u000a          <ttc code=\"mdeltah\" delta=\"3\" point=\"ah01\" ppm1=\"16\" ppm2=\"17\"/>\\u000a          <ttc code=\"mdeltah\" delta=\"2\" point=\"ah01\" ppm1=\"9\" ppm2=\"15\"/>\\u000a          <ttc code=\"singleh\" point1=\"ah01\" point2=\"sh03\" stem=\"X: 208\"/>\\u000a          <ttc code=\"singleh\" point1=\"sh03\" point2=\"rsb\" round=\"true\"/>\\u000a          <ttc code=\"alignt\" point=\"at01\" zone=\"t: 1\"/>\\u000a          <ttc code=\"alignb\" point=\"ab01\" zone=\"b: 0\"/>\\u000a          <ttc code=\"singlev\" point1=\"at01\" point2=\"sv01\" stem=\"Y: 162\"/>\\u000a          <ttc code=\"mdeltav\" delta=\"2\" point=\"sv01\" ppm1=\"16\" ppm2=\"17\"/>\\u000a          <ttc code=\"mdeltav\" delta=\"1\" point=\"sv01\" ppm1=\"9\" ppm2=\"15\"/>\\u000a          <ttc code=\"singlev\" point1=\"ab01\" point2=\"sv02\" stem=\"Y: 162\"/>\\u000a          <ttc code=\"mdeltav\" delta=\"-1\" point=\"sv02\" ppm1=\"9\" ppm2=\"15\"/>\\u000a          <ttc code=\"mdeltav\" delta=\"-2\" point=\"sv02\" ppm1=\"16\" ppm2=\"17\"/>\\u000a          <ttc code=\"interpolatev\" point=\"iv01\" point1=\"sv01\" point2=\"sv02\"/>\\u000a          <ttc code=\"interpolatev\" point=\"iv02\" point1=\"sv02\" point2=\"sv01\"/>\\u000a          <ttc code=\"fdeltah\" delta=\"3\" point=\"fh01\" ppm1=\"19\" ppm2=\"19\"/>\\u000a          <ttc code=\"fdeltah\" delta=\"2\" point=\"fh02\" ppm1=\"17\" ppm2=\"17\"/>\\u000a          <ttc code=\"fdeltah\" delta=\"2\" point=\"fh02\" ppm1=\"21\" ppm2=\"22\"/>\\u000a          <ttc code=\"fdeltah\" delta=\"4\" point=\"fh02\" ppm1=\"43\" ppm2=\"43\"/>\\u000a          <ttc code=\"fdeltah\" delta=\"5\" point=\"fh02\" ppm1=\"19\" ppm2=\"19\"/>\\u000a          <ttc code=\"fdeltah\" delta=\"5\" point=\"fh02\" ppm1=\"30\" ppm2=\"30\"/>\\u000a          <ttc code=\"fdeltah\" delta=\"5\" point=\"fh02\" ppm1=\"32\" ppm2=\"32\"/>\\u000a          <ttc code=\"fdeltah\" delta=\"7\" point=\"fh02\" ppm1=\"18\" ppm2=\"18\"/>\\u000a          <ttc code=\"fdeltah\" delta=\"7\" point=\"fh02\" ppm1=\"28\" ppm2=\"28\"/>\\u000a          <ttc code=\"fdeltah\" delta=\"7\" point=\"fh02\" ppm1=\"31\" ppm2=\"31\"/>\\u000a          <ttc code=\"fdeltah\" delta=\"8\" point=\"fh02\" ppm1=\"13\" ppm2=\"13\"/>\\u000a          <ttc code=\"fdeltah\" delta=\"-6\" point=\"fh03\" ppm1=\"19\" ppm2=\"19\"/>\\u000a          <ttc code=\"fdeltah\" delta=\"-2\" point=\"fh03\" ppm1=\"13\" ppm2=\"13\"/>\\u000a          <ttc code=\"fdeltah\" delta=\"3\" point=\"fh03\" ppm1=\"34\" ppm2=\"34\"/>\\u000a          <ttc code=\"fdeltah\" delta=\"4\" point=\"fh03\" ppm1=\"32\" ppm2=\"32\"/>\\u000a          <ttc code=\"fdeltah\" delta=\"-1\" point=\"fh04\" ppm1=\"20\" ppm2=\"20\"/>\\u000a          <ttc code=\"fdeltah\" delta=\"-8\" point=\"fh05\" ppm1=\"18\" ppm2=\"18\"/>\\u000a          <ttc code=\"fdeltah\" delta=\"-3\" point=\"fh05\" ppm1=\"20\" ppm2=\"21\"/>\\u000a          <ttc code=\"fdeltah\" delta=\"-2\" point=\"fh05\" ppm1=\"19\" ppm2=\"19\"/>\\u000a          <ttc code=\"fdeltah\" delta=\"-2\" point=\"fh05\" ppm1=\"22\" ppm2=\"22\"/>\\u000a          <ttc code=\"fdeltav\" delta=\"-4\" point=\"fh01\" ppm1=\"18\" ppm2=\"18\"/>\\u000a          <ttc code=\"fdeltav\" delta=\"-1\" point=\"fh01\" ppm1=\"19\" ppm2=\"19\"/>\\u000a          <ttc code=\"fdeltav\" delta=\"-2\" point=\"fh02\" ppm1=\"13\" ppm2=\"13\"/>\\u000a          <ttc code=\"fdeltav\" delta=\"1\" point=\"fh02\" ppm1=\"17\" ppm2=\"17\"/>\\u000a          <ttc code=\"fdeltav\" delta=\"1\" point=\"fh02\" ppm1=\"43\" ppm2=\"43\"/>\\u000a          <ttc code=\"fdeltav\" delta=\"-4\" point=\"fh03\" ppm1=\"32\" ppm2=\"32\"/>\\u000a          <ttc code=\"fdeltav\" delta=\"-1\" point=\"fh03\" ppm1=\"13\" ppm2=\"13\"/>\\u000a          <ttc code=\"fdeltav\" delta=\"-1\" point=\"fh03\" ppm1=\"34\" ppm2=\"34\"/>\\u000a          <ttc code=\"fdeltav\" delta=\"2\" point=\"fh03\" ppm1=\"19\" ppm2=\"19\"/>\\u000a          <ttc code=\"fdeltav\" delta=\"-2\" point=\"fh04\" ppm1=\"20\" ppm2=\"20\"/>\\u000a          <ttc code=\"fdeltav\" delta=\"-2\" point=\"fh05\" ppm1=\"18\" ppm2=\"18\"/>\\u000a        </ttProgram>\\u000a      </data>
p15
g4
tp16
Rp17
Ntp18
s."
EndChar
StartChar: Y
Encoding: 96 89 96
GlifName: Y_
Width: 1200
VWidth: 0
Flags: W
LayerCount: 2
Fore
SplineSet
660 935 m 257
NamedP: "fh01"
 948 1500 l 257
NamedP: "sh01"
 1140 1500 l 257
NamedP: "at01"
 705 646 l 257
 705 0 l 257
NamedP: "dh02"
 495 0 l 257
NamedP: "dh01"
 495 645 l 257
 59 1500 l 257
NamedP: "fh02"
 263 1520 l 257
NamedP: "sh02"
 551 954 l 257
NamedP: "fh03"
 630 705 l 257
NamedP: "ah01"
 660 935 l 257
NamedP: "fh01"
EndSplineSet
PickledDataWithLists: "(dp0
Vcom.adobe.type.autohint
p1
(c_codecs
encode
p2
(Vdata
p3
Vlatin1
p4
tp5
Rp6
g2
(V<data>\\u000a        <hintSetList>\\u000a          <hintset pointTag=\"fh01\">\\u000a            <hstem pos=\"21\" width=\"-21\"/>\\u000a            <hstem pos=\"1520\" width=\"-20\"/>\\u000a            <vstem pos=\"495\" width=\"210\"/>\\u000a          </hintset>\\u000a        </hintSetList>\\u000a      </data>
p7
g4
tp8
Rp9
Ntp10
sVcom.fontlab.ttprogram
p11
(g2
(Vdata
p12
g4
tp13
Rp14
g2
(V<data>\\u000a        <ttProgram>\\u000a          <ttc align=\"center\" code=\"alignh\" point=\"ah01\"/>\\u000a          <ttc code=\"doubleh\" point1=\"dh01\" point2=\"dh02\" stem=\"X: 208\"/>\\u000a          <ttc code=\"singleh\" point1=\"ah01\" point2=\"sh01\"/>\\u000a          <ttc code=\"singleh\" point1=\"ah01\" point2=\"sh02\"/>\\u000a          <ttc code=\"alignt\" point=\"sh02\" zone=\"t: 1\"/>\\u000a          <ttc code=\"alignt\" point=\"at01\" zone=\"t: 1\"/>\\u000a          <ttc code=\"alignb\" point=\"dh02\" zone=\"b: 0\"/>\\u000a          <ttc code=\"interpolatev\" point=\"ah01\" point1=\"dh02\" point2=\"sh02\"/>\\u000a          <ttc code=\"fdeltah\" delta=\"-4\" point=\"fh01\" ppm1=\"10\" ppm2=\"10\"/>\\u000a          <ttc code=\"fdeltah\" delta=\"-4\" point=\"fh01\" ppm1=\"16\" ppm2=\"16\"/>\\u000a          <ttc code=\"fdeltah\" delta=\"2\" point=\"fh01\" ppm1=\"11\" ppm2=\"11\"/>\\u000a          <ttc code=\"fdeltah\" delta=\"4\" point=\"fh01\" ppm1=\"17\" ppm2=\"17\"/>\\u000a          <ttc code=\"fdeltah\" delta=\"7\" point=\"fh01\" ppm1=\"19\" ppm2=\"19\"/>\\u000a          <ttc code=\"fdeltah\" delta=\"8\" point=\"fh01\" ppm1=\"22\" ppm2=\"22\"/>\\u000a          <ttc code=\"fdeltah\" delta=\"-8\" point=\"sh01\" ppm1=\"10\" ppm2=\"10\"/>\\u000a          <ttc code=\"fdeltah\" delta=\"-4\" point=\"sh01\" ppm1=\"13\" ppm2=\"13\"/>\\u000a          <ttc code=\"fdeltah\" delta=\"-3\" point=\"sh01\" ppm1=\"16\" ppm2=\"16\"/>\\u000a          <ttc code=\"fdeltah\" delta=\"5\" point=\"sh01\" ppm1=\"19\" ppm2=\"19\"/>\\u000a          <ttc code=\"fdeltah\" delta=\"6\" point=\"sh01\" ppm1=\"22\" ppm2=\"22\"/>\\u000a          <ttc code=\"fdeltah\" delta=\"-8\" point=\"at01\" ppm1=\"16\" ppm2=\"16\"/>\\u000a          <ttc code=\"fdeltah\" delta=\"-7\" point=\"at01\" ppm1=\"10\" ppm2=\"10\"/>\\u000a          <ttc code=\"fdeltah\" delta=\"-3\" point=\"at01\" ppm1=\"13\" ppm2=\"13\"/>\\u000a          <ttc code=\"fdeltah\" delta=\"4\" point=\"at01\" ppm1=\"19\" ppm2=\"19\"/>\\u000a          <ttc code=\"fdeltah\" delta=\"6\" point=\"at01\" ppm1=\"22\" ppm2=\"22\"/>\\u000a          <ttc code=\"fdeltah\" delta=\"-4\" point=\"fh02\" ppm1=\"10\" ppm2=\"10\"/>\\u000a          <ttc code=\"fdeltah\" delta=\"-4\" point=\"fh02\" ppm1=\"16\" ppm2=\"16\"/>\\u000a          <ttc code=\"fdeltah\" delta=\"-3\" point=\"fh02\" ppm1=\"13\" ppm2=\"13\"/>\\u000a          <ttc code=\"fdeltah\" delta=\"2\" point=\"fh02\" ppm1=\"11\" ppm2=\"12\"/>\\u000a          <ttc code=\"fdeltah\" delta=\"2\" point=\"fh02\" ppm1=\"14\" ppm2=\"14\"/>\\u000a          <ttc code=\"fdeltah\" delta=\"5\" point=\"fh02\" ppm1=\"17\" ppm2=\"17\"/>\\u000a          <ttc code=\"fdeltah\" delta=\"6\" point=\"fh02\" ppm1=\"19\" ppm2=\"19\"/>\\u000a          <ttc code=\"fdeltah\" delta=\"-8\" point=\"sh02\" ppm1=\"16\" ppm2=\"16\"/>\\u000a          <ttc code=\"fdeltah\" delta=\"-7\" point=\"sh02\" ppm1=\"13\" ppm2=\"13\"/>\\u000a          <ttc code=\"fdeltah\" delta=\"-6\" point=\"sh02\" ppm1=\"10\" ppm2=\"10\"/>\\u000a          <ttc code=\"fdeltah\" delta=\"8\" point=\"sh02\" ppm1=\"19\" ppm2=\"19\"/>\\u000a          <ttc code=\"fdeltah\" delta=\"-8\" point=\"fh03\" ppm1=\"13\" ppm2=\"13\"/>\\u000a          <ttc code=\"fdeltah\" delta=\"-8\" point=\"fh03\" ppm1=\"16\" ppm2=\"16\"/>\\u000a          <ttc code=\"fdeltah\" delta=\"-7\" point=\"fh03\" ppm1=\"10\" ppm2=\"10\"/>\\u000a          <ttc code=\"fdeltah\" delta=\"5\" point=\"fh03\" ppm1=\"19\" ppm2=\"19\"/>\\u000a          <ttc code=\"fdeltah\" delta=\"6\" point=\"fh03\" ppm1=\"22\" ppm2=\"22\"/>\\u000a          <ttc code=\"fdeltah\" delta=\"-8\" point=\"ah01\" ppm1=\"13\" ppm2=\"13\"/>\\u000a          <ttc code=\"fdeltah\" delta=\"-5\" point=\"ah01\" ppm1=\"10\" ppm2=\"10\"/>\\u000a          <ttc code=\"fdeltah\" delta=\"-5\" point=\"ah01\" ppm1=\"16\" ppm2=\"16\"/>\\u000a          <ttc code=\"fdeltah\" delta=\"3\" point=\"ah01\" ppm1=\"12\" ppm2=\"12\"/>\\u000a          <ttc code=\"fdeltah\" delta=\"6\" point=\"ah01\" ppm1=\"22\" ppm2=\"22\"/>\\u000a          <ttc code=\"fdeltah\" delta=\"8\" point=\"ah01\" ppm1=\"19\" ppm2=\"19\"/>\\u000a        </ttProgram>\\u000a      </data>
p15
g4
tp16
Rp17
Ntp18
s."
EndChar
StartChar: Z
Encoding: 99 90 99
GlifName: Z_
Width: 1200
VWidth: 0
Flags: W
LayerCount: 2
Fore
SplineSet
1090 160 m 257
NamedP: "sv01"
 1110 0 l 257
NamedP: "ab01"
 81 0 l 257
 61 50 l 257
 716 1200 l 257
 900 1380 l 257
NamedP: "iv01"
 635 1340 l 257
NamedP: "sv02"
 150 1340 l 257
NamedP: "iv02"
 130 1500 l 257
NamedP: "at01"
 1076 1500 l 257
 1091 1478 l 257
 430 300 l 257
 252 120 l 257
NamedP: "iv03"
 517 160 l 257
 1090 160 l 257
NamedP: "sv01"
EndSplineSet
PickledDataWithLists: "(dp0
Vcom.adobe.type.autohint
p1
(c_codecs
encode
p2
(Vdata
p3
Vlatin1
p4
tp5
Rp6
g2
(V<data>\\u000a        <hintSetList>\\u000a          <hintset pointTag=\"sv01\">\\u000a            <hstem pos=\"0\" width=\"160\"/>\\u000a            <hstem pos=\"1340\" width=\"160\"/>\\u000a          </hintset>\\u000a        </hintSetList>\\u000a      </data>
p7
g4
tp8
Rp9
Ntp10
sVcom.fontlab.ttprogram
p11
(g2
(Vdata
p12
g4
tp13
Rp14
g2
(V<data>\\u000a        <ttProgram>\\u000a          <ttc code=\"alignt\" point=\"at01\" zone=\"t: 1\"/>\\u000a          <ttc code=\"alignb\" point=\"ab01\" zone=\"b: 0\"/>\\u000a          <ttc code=\"singlev\" point1=\"ab01\" point2=\"sv01\" stem=\"Y: 162\"/>\\u000a          <ttc code=\"interpolatev\" point=\"iv01\" point1=\"at01\" point2=\"iv02\"/>\\u000a          <ttc code=\"singlev\" point1=\"at01\" point2=\"sv02\" stem=\"Y: 162\"/>\\u000a          <ttc code=\"interpolatev\" point=\"iv03\" point1=\"ab01\" point2=\"sv01\"/>\\u000a        </ttProgram>\\u000a      </data>
p15
g4
tp16
Rp17
Ntp18
s."
EndChar
StartChar: bracketright
Encoding: 171 93 171
GlifName: bracketright
Width: 1000
VWidth: 0
Flags: W
LayerCount: 2
Fore
SplineSet
678 -220 m 257
NamedP: "dh02"
 700 -420 l 257
NamedP: "dv01"
 128 -420 l 257
 128 -270 l 257
 500 -270 l 257
NamedP: "dv02"
 480 -70 l 257
NamedP: "dh01"
 480 1170 l 257
 500 1370 l 257
NamedP: "sv01"
 128 1370 l 257
 128 1520 l 257
NamedP: "at01"
 700 1520 l 257
 678 1320 l 257
 678 -220 l 257
NamedP: "dh02"
EndSplineSet
PickledDataWithLists: "(dp0
Vcom.adobe.type.autohint
p1
(c_codecs
encode
p2
(Vdata
p3
Vlatin1
p4
tp5
Rp6
g2
(V<data>\\u000a        <hintSetList>\\u000a          <hintset pointTag=\"dh02\">\\u000a            <hstem pos=\"-420\" width=\"150\"/>\\u000a            <hstem pos=\"1370\" width=\"150\"/>\\u000a            <vstem pos=\"480\" width=\"198\"/>\\u000a          </hintset>\\u000a        </hintSetList>\\u000a      </data>
p7
g4
tp8
Rp9
Ntp10
sVcom.fontlab.ttprogram
p11
(g2
(Vdata
p12
g4
tp13
Rp14
g2
(V<data>\\u000a        <ttProgram>\\u000a          <ttc code=\"doubleh\" point1=\"dh01\" point2=\"dh02\" stem=\"X: 208\"/>\\u000a          <ttc code=\"alignt\" point=\"at01\" zone=\"t: 1\"/>\\u000a          <ttc code=\"doublev\" point1=\"dv01\" point2=\"dv02\" stem=\"Y: 153\"/>\\u000a          <ttc code=\"singlev\" point1=\"at01\" point2=\"sv01\" stem=\"Y: 153\"/>\\u000a        </ttProgram>\\u000a      </data>
p15
g4
tp16
Rp17
Ntp18
s."
EndChar
StartChar: asciicircum
Encoding: 135 94 135
GlifName: asciicircum
Width: 1500
VWidth: 0
Flags: W
LayerCount: 2
Fore
SplineSet
1373 912 m 257
 1172 912 l 257
 794 1239 l 257
 749 1350 l 257
 705 1241 l 257
 338 914 l 257
 122 914 l 257
 677 1500 l 257
 806 1517 l 257
 1373 912 l 257
EndSplineSet
EndChar
StartChar: c
Encoding: 176 99 176
GlifName: c
Width: 1000
VWidth: 0
Flags: W
LayerCount: 2
Fore
SplineSet
807 878 m 257
NamedP: "mh01"
 768 913 768 913 714.5 935 c 128
 661 957 661 957 604 957 c 257
NamedP: "sv01"
 520 957 520 957 461 925.5 c 128
 402 894 402 894 365.5 840 c 128
 329 786 329 786 312 714.5 c 128
 295 643 295 643 295 564 c 257
NamedP: "sh02"
 295 482 295 482 310.5 407.5 c 128
 326 333 326 333 363 276 c 128
 400 219 400 219 461.5 185.5 c 128
 523 152 523 152 615 152 c 257
NamedP: "sv02"
 692 152 692 152 745.5 170 c 128
 799 188 799 188 828 208 c 257
NamedP: "mh02"
 900 67 l 257
NamedP: "mh03"
 844 29 844 29 769.5 6 c 128
 695 -17 695 -17 601 -17 c 257
NamedP: "mh04"
 476 -17 476 -17 382 32.5 c 128
NamedP: "fh01"
 288 82 288 82 225.5 164.5 c 128
 163 247 163 247 131.5 354.5 c 128
 100 462 100 462 100 577 c 257
NamedP: "sh01"
 100 681 100 681 130.5 778.5 c 128
 161 876 161 876 223.5 951 c 128
NamedP: "fh02"
 286 1026 286 1026 381.5 1071.5 c 128
 477 1117 477 1117 606 1117 c 257
NamedP: "av01"
 698 1117 698 1117 770.5 1088.5 c 128
 843 1060 843 1060 906 991 c 257
NamedP: "mh05"
 807 878 l 257
NamedP: "mh01"
EndSplineSet
PickledDataWithLists: "(dp0
Vcom.adobe.type.autohint
p1
(c_codecs
encode
p2
(Vdata
p3
Vlatin1
p4
tp5
Rp6
g2
(V<data>\\u000a        <hintSetList>\\u000a          <hintset pointTag=\"mh01\">\\u000a            <hstem pos=\"-17\" width=\"169\"/>\\u000a            <hstem pos=\"957\" width=\"160\"/>\\u000a            <vstem pos=\"100\" width=\"195\"/>\\u000a          </hintset>\\u000a        </hintSetList>\\u000a      </data>
p7
g4
tp8
Rp9
Ntp10
sVcom.fontlab.ttprogram
p11
(g2
(Vdata
p12
g4
tp13
Rp14
g2
(V<data>\\u000a        <ttProgram>\\u000a          <ttc align=\"round\" code=\"alignh\" point=\"lsb\"/>\\u000a          <ttc code=\"mdeltah\" delta=\"3\" point=\"mh01\" ppm1=\"22\" ppm2=\"22\"/>\\u000a          <ttc code=\"mdeltah\" delta=\"3\" point=\"mh01\" ppm1=\"20\" ppm2=\"20\"/>\\u000a          <ttc code=\"mdeltah\" delta=\"3\" point=\"mh01\" ppm1=\"18\" ppm2=\"18\"/>\\u000a          <ttc code=\"singleh\" point1=\"lsb\" point2=\"sh01\" round=\"true\"/>\\u000a          <ttc code=\"singleh\" point1=\"sh01\" point2=\"sh02\" stem=\"X: 199\"/>\\u000a          <ttc code=\"mdeltah\" delta=\"5\" point=\"mh02\" ppm1=\"22\" ppm2=\"22\"/>\\u000a          <ttc code=\"mdeltah\" delta=\"6\" point=\"mh02\" ppm1=\"19\" ppm2=\"19\"/>\\u000a          <ttc code=\"mdeltah\" delta=\"3\" point=\"mh02\" ppm1=\"18\" ppm2=\"18\"/>\\u000a          <ttc code=\"mdeltah\" delta=\"2\" point=\"mh02\" ppm1=\"20\" ppm2=\"20\"/>\\u000a          <ttc code=\"mdeltah\" delta=\"-2\" point=\"mh03\" ppm1=\"19\" ppm2=\"19\"/>\\u000a          <ttc code=\"mdeltah\" delta=\"-1\" point=\"mh03\" ppm1=\"25\" ppm2=\"25\"/>\\u000a          <ttc code=\"mdeltah\" delta=\"-2\" point=\"mh03\" ppm1=\"21\" ppm2=\"21\"/>\\u000a          <ttc code=\"mdeltah\" delta=\"-3\" point=\"mh03\" ppm1=\"18\" ppm2=\"18\"/>\\u000a          <ttc code=\"mdeltah\" delta=\"-4\" point=\"mh03\" ppm1=\"22\" ppm2=\"22\"/>\\u000a          <ttc code=\"mdeltah\" delta=\"-4\" point=\"mh04\" ppm1=\"25\" ppm2=\"25\"/>\\u000a          <ttc code=\"mdeltah\" delta=\"3\" point=\"mh05\" ppm1=\"22\" ppm2=\"22\"/>\\u000a          <ttc code=\"mdeltah\" delta=\"-2\" point=\"mh05\" ppm1=\"18\" ppm2=\"18\"/>\\u000a          <ttc align=\"round\" code=\"alignv\" point=\"av01\"/>\\u000a          <ttc code=\"alignb\" point=\"mh04\" zone=\"b: 0\"/>\\u000a          <ttc code=\"mdeltav\" delta=\"1\" point=\"mh01\" ppm1=\"18\" ppm2=\"18\"/>\\u000a          <ttc code=\"singlev\" point1=\"av01\" point2=\"sv01\" stem=\"Y: 162\"/>\\u000a          <ttc code=\"mdeltav\" delta=\"-2\" point=\"sv01\" ppm1=\"19\" ppm2=\"19\"/>\\u000a          <ttc code=\"singlev\" point1=\"mh04\" point2=\"sv02\" stem=\"Y: 171\"/>\\u000a          <ttc code=\"mdeltav\" delta=\"5\" point=\"mh02\" ppm1=\"25\" ppm2=\"25\"/>\\u000a          <ttc code=\"mdeltav\" delta=\"3\" point=\"mh02\" ppm1=\"22\" ppm2=\"22\"/>\\u000a          <ttc code=\"mdeltav\" delta=\"8\" point=\"mh03\" ppm1=\"25\" ppm2=\"25\"/>\\u000a          <ttc code=\"mdeltav\" delta=\"2\" point=\"mh03\" ppm1=\"18\" ppm2=\"18\"/>\\u000a          <ttc code=\"mdeltav\" delta=\"1\" point=\"mh03\" ppm1=\"22\" ppm2=\"22\"/>\\u000a          <ttc code=\"fdeltah\" delta=\"2\" point=\"mh01\" ppm1=\"13\" ppm2=\"13\"/>\\u000a          <ttc code=\"fdeltah\" delta=\"2\" point=\"mh02\" ppm1=\"24\" ppm2=\"24\"/>\\u000a          <ttc code=\"fdeltah\" delta=\"3\" point=\"mh02\" ppm1=\"23\" ppm2=\"23\"/>\\u000a          <ttc code=\"fdeltah\" delta=\"-5\" point=\"mh03\" ppm1=\"29\" ppm2=\"29\"/>\\u000a          <ttc code=\"fdeltah\" delta=\"-1\" point=\"fh01\" ppm1=\"15\" ppm2=\"15\"/>\\u000a          <ttc code=\"fdeltah\" delta=\"2\" point=\"fh02\" ppm1=\"16\" ppm2=\"16\"/>\\u000a          <ttc code=\"fdeltah\" delta=\"-4\" point=\"mh05\" ppm1=\"29\" ppm2=\"29\"/>\\u000a          <ttc code=\"fdeltah\" delta=\"-2\" point=\"mh05\" ppm1=\"16\" ppm2=\"16\"/>\\u000a          <ttc code=\"fdeltav\" delta=\"2\" point=\"mh01\" ppm1=\"15\" ppm2=\"16\"/>\\u000a          <ttc code=\"fdeltav\" delta=\"3\" point=\"mh03\" ppm1=\"29\" ppm2=\"29\"/>\\u000a          <ttc code=\"fdeltav\" delta=\"2\" point=\"fh01\" ppm1=\"15\" ppm2=\"15\"/>\\u000a          <ttc code=\"fdeltav\" delta=\"-2\" point=\"mh05\" ppm1=\"13\" ppm2=\"13\"/>\\u000a        </ttProgram>\\u000a      </data>
p15
g4
tp16
Rp17
Ntp18
s."
EndChar
StartChar: d
Encoding: 214 100 214
GlifName: d
Width: 1200
VWidth: 0
Flags: W
LayerCount: 2
Fore
SplineSet
656 940 m 257
NamedP: "sv01"
 564 940 564 940 497 905.5 c 128
 430 871 430 871 386 812 c 128
 342 753 342 753 321 673 c 128
 300 593 300 593 300 502 c 257
NamedP: "sh02"
 300 413 300 413 321 346 c 128
 342 279 342 279 375.5 234 c 128
 409 189 409 189 452 166.5 c 128
 495 144 495 144 540 144 c 257
NamedP: "sv02"
 587 144 587 144 627.5 160 c 128
 668 176 668 176 702 200 c 128
 736 224 736 224 763 252.5 c 128
 790 281 790 281 810 306 c 257
NamedP: "sh03"
 810 940 l 257
 656 940 l 257
NamedP: "sv01"
810 0 m 257
NamedP: "ab02"
 810 162 l 257
NamedP: "ah01"
 715 49 l 257
 697 37 697 37 676 25 c 128
 655 13 655 13 629 4 c 128
 603 -5 603 -5 571.5 -11 c 128
 540 -17 540 -17 501 -17 c 257
NamedP: "ab01"
 419 -17 419 -17 348 23.5 c 128
 277 64 277 64 224.5 136 c 128
 172 208 172 208 141.5 307.5 c 128
 111 407 111 407 111 526 c 257
NamedP: "sh01"
 111 646 111 646 149.5 750.5 c 128
 188 855 188 855 259 933 c 128
 330 1011 330 1011 430.5 1055.5 c 128
 531 1100 531 1100 655 1100 c 257
NamedP: "av02"
 810 1100 l 257
NamedP: "sh04"
 810 1620 l 257
NamedP: "av01"
 1000 1600 l 257
 1000 180 l 257
NamedP: "sh05"
 1020 0 l 257
 810 0 l 257
NamedP: "ab02"
EndSplineSet
PickledDataWithLists: "(dp0
Vcom.adobe.type.autohint
p1
(c_codecs
encode
p2
(Vdata
p3
Vlatin1
p4
tp5
Rp6
g2
(V<data>\\u000a        <hintSetList>\\u000a          <hintset pointTag=\"sv01\">\\u000a            <hstem pos=\"-17\" width=\"161\"/>\\u000a            <hstem pos=\"940\" width=\"160\"/>\\u000a            <hstem pos=\"1620\" width=\"-20\"/>\\u000a            <vstem pos=\"111\" width=\"189\"/>\\u000a            <vstem pos=\"810\" width=\"190\"/>\\u000a          </hintset>\\u000a        </hintSetList>\\u000a      </data>
p7
g4
tp8
Rp9
Ntp10
sVcom.fontlab.ttprogram
p11
(g2
(Vdata
p12
g4
tp13
Rp14
g2
(V<data>\\u000a        <ttProgram>\\u000a          <ttc align=\"round\" code=\"alignh\" point=\"lsb\"/>\\u000a          <ttc align=\"round\" code=\"alignh\" point=\"ah01\"/>\\u000a          <ttc align=\"round\" code=\"singleh\" point1=\"lsb\" point2=\"sh01\"/>\\u000a          <ttc code=\"singleh\" point1=\"sh01\" point2=\"sh02\" stem=\"X: 190\"/>\\u000a          <ttc code=\"singleh\" point1=\"ah01\" point2=\"sh03\"/>\\u000a          <ttc code=\"singleh\" point1=\"ah01\" point2=\"sh04\"/>\\u000a          <ttc code=\"singleh\" point1=\"ah01\" point2=\"sh05\" stem=\"X: 190\"/>\\u000a          <ttc code=\"singleh\" point1=\"sh05\" point2=\"rsb\" round=\"true\"/>\\u000a          <ttc align=\"round\" code=\"alignv\" point=\"av01\"/>\\u000a          <ttc align=\"round\" code=\"alignv\" point=\"av02\"/>\\u000a          <ttc code=\"alignb\" point=\"ab01\" zone=\"b: 0\"/>\\u000a          <ttc code=\"alignb\" point=\"ab02\" zone=\"b: 0\"/>\\u000a          <ttc code=\"singlev\" point1=\"av02\" point2=\"sv01\" stem=\"Y: 162\"/>\\u000a          <ttc code=\"singlev\" point1=\"ab01\" point2=\"sv02\" stem=\"Y: 162\"/>\\u000a        </ttProgram>\\u000a      </data>
p15
g4
tp16
Rp17
Ntp18
s."
EndChar
StartChar: f
Encoding: 261 102 261
GlifName: f
Width: 800
VWidth: 0
Flags: W
LayerCount: 2
Fore
SplineSet
50 1100 m 257
NamedP: "dv03"
 200 1100 l 257
NamedP: "sh01"
 200 1255 l 257
 200 1340 200 1340 218.5 1407 c 128
 237 1474 237 1474 277 1520.5 c 128
 317 1567 317 1567 379.5 1592 c 128
 442 1617 442 1617 530 1617 c 257
NamedP: "av01"
 575 1617 575 1617 612.5 1609.5 c 128
 650 1602 650 1602 681.5 1590 c 128
 713 1578 713 1578 739.5 1562 c 128
 766 1546 766 1546 787 1529 c 257
NamedP: "mh01"
 702 1411 l 257
 681 1426 681 1426 644 1441.5 c 128
 607 1457 607 1457 562 1457 c 257
NamedP: "sv01"
 476 1457 476 1457 430.5 1408.5 c 128
 385 1360 385 1360 385 1245 c 257
NamedP: "sh02"
 385 1100 l 257
 675 1100 l 257
NamedP: "dv02"
 655 940 l 257
NamedP: "dv01"
 390 940 l 257
NamedP: "dh02"
 390 0 l 257
NamedP: "ab01"
 200 0 l 257
 200 940 l 257
NamedP: "dh01"
 50 940 l 257
NamedP: "dv04"
 50 1100 l 257
NamedP: "dv03"
EndSplineSet
PickledDataWithLists: "(dp0
Vcom.adobe.type.autohint
p1
(c_codecs
encode
p2
(Vdata
p3
Vlatin1
p4
tp5
Rp6
g2
(V<data>\\u000a        <hintSetList>\\u000a          <hintset pointTag=\"dv03\">\\u000a            <hstem pos=\"21\" width=\"-21\"/>\\u000a            <hstem pos=\"940\" width=\"160\"/>\\u000a            <hstem pos=\"1457\" width=\"160\"/>\\u000a            <vstem pos=\"200\" width=\"190\"/>\\u000a          </hintset>\\u000a        </hintSetList>\\u000a      </data>
p7
g4
tp8
Rp9
Ntp10
sVcom.fontlab.ttprogram
p11
(g2
(Vdata
p12
g4
tp13
Rp14
g2
(V<data>\\u000a        <ttProgram>\\u000a          <ttc code=\"doubleh\" point1=\"dh01\" point2=\"dh02\" stem=\"X: 190\"/>\\u000a          <ttc code=\"singleh\" point1=\"dh01\" point2=\"sh01\"/>\\u000a          <ttc code=\"mdeltah\" delta=\"-4\" point=\"mh01\" ppm1=\"22\" ppm2=\"22\"/>\\u000a          <ttc align=\"round\" code=\"singleh\" point1=\"dh02\" point2=\"sh02\"/>\\u000a          <ttc align=\"left\" code=\"alignv\" point=\"av01\"/>\\u000a          <ttc code=\"alignb\" point=\"ab01\" zone=\"b: 0\"/>\\u000a          <ttc code=\"doublev\" point1=\"dv01\" point2=\"dv02\" stem=\"Y: 162\"/>\\u000a          <ttc code=\"doublev\" point1=\"dv03\" point2=\"dv04\" stem=\"Y: 162\"/>\\u000a          <ttc code=\"singlev\" point1=\"av01\" point2=\"sv01\" stem=\"Y: 162\"/>\\u000a        </ttProgram>\\u000a      </data>
p15
g4
tp16
Rp17
Ntp18
sVcom.typemytype.robofont.guides
p19
(lp20
(dp21
Vangle
p22
I0
sVisGlobal
p23
I00
sVmagnetic
p24
I5
sVx
p25
I0
sVy
p26
I3258
sas."
EndChar
StartChar: g
Encoding: 289 103 289
GlifName: g
Width: 1200
VWidth: 0
Flags: W
LayerCount: 2
Fore
SplineSet
810 135 m 257
NamedP: "iv01"
 723 25 l 257
 714 19 714 19 697.5 12 c 128
 681 5 681 5 657 -1.5 c 128
 633 -8 633 -8 601 -12.5 c 128
 569 -17 569 -17 530 -17 c 257
NamedP: "ab01"
 439 -17 439 -17 360.5 27.5 c 128
 282 72 282 72 224 148.5 c 128
 166 225 166 225 133 327.5 c 128
 100 430 100 430 100 545 c 257
NamedP: "sh01"
 100 662 100 662 130 766 c 128
 160 870 160 870 220 948 c 128
 280 1026 280 1026 369 1071.5 c 128
 458 1117 458 1117 576 1117 c 257
NamedP: "av01"
 613 1117 613 1117 648.5 1114 c 128
 684 1111 684 1111 715 1100 c 257
 810 958 l 257
NamedP: "sh02"
 810 1120 l 257
NamedP: "av02"
 1000 1100 l 257
 1000 -46 l 257
NamedP: "sh03"
 1000 -144 1000 -144 966.5 -230 c 128
 933 -316 933 -316 870 -379.5 c 128
 807 -443 807 -443 716.5 -480 c 128
 626 -517 626 -517 512 -517 c 257
NamedP: "ab02"
 433 -517 433 -517 373.5 -497 c 128
 314 -477 314 -477 272 -453 c 257
 224 -425 224 -425 189 -388 c 257
 287 -278 l 257
NamedP: "sh05"
 316 -300 316 -300 352 -318 c 257
 383 -333 383 -333 424 -345 c 128
 465 -357 465 -357 513 -357 c 257
NamedP: "sv03"
 575 -357 575 -357 629 -331.5 c 128
 683 -306 683 -306 723.5 -262 c 128
 764 -218 764 -218 787 -158.5 c 128
 810 -99 810 -99 810 -31 c 257
NamedP: "ah01"
 810 135 l 257
NamedP: "iv01"
810 834 m 257
NamedP: "sh06"
 783 868 783 868 747 895 c 257
 716 918 716 918 672 937.5 c 128
 628 957 628 957 571 957 c 257
NamedP: "sv02"
 511 957 511 957 467 938 c 128
 423 919 423 919 391.5 887 c 128
 360 855 360 855 340.5 812.5 c 128
 321 770 321 770 309.5 722.5 c 128
 298 675 298 675 294 626.5 c 128
 290 578 290 578 290 533 c 257
NamedP: "sh04"
 290 448 290 448 308.5 376.5 c 128
 327 305 327 305 360.5 253.5 c 128
 394 202 394 202 441.5 173 c 128
 489 144 489 144 546 144 c 257
NamedP: "sv01"
 597 144 597 144 637 155 c 128
 677 166 677 166 709 184.5 c 128
 741 203 741 203 765.5 226.5 c 128
 790 250 790 250 810 275 c 257
 810 834 l 257
NamedP: "sh06"
EndSplineSet
PickledDataWithLists: "(dp0
Vcom.adobe.type.autohint
p1
(c_codecs
encode
p2
(Vdata
p3
Vlatin1
p4
tp5
Rp6
g2
(V<data>\\u000a        <hintSetList>\\u000a          <hintset pointTag=\"iv01\">\\u000a            <hstem pos=\"-517\" width=\"160\"/>\\u000a            <hstem pos=\"-17\" width=\"161\"/>\\u000a            <hstem pos=\"957\" width=\"160\"/>\\u000a            <vstem pos=\"100\" width=\"190\"/>\\u000a            <vstem pos=\"810\" width=\"190\"/>\\u000a          </hintset>\\u000a        </hintSetList>\\u000a      </data>
p7
g4
tp8
Rp9
Ntp10
sVcom.fontlab.ttprogram
p11
(g2
(Vdata
p12
g4
tp13
Rp14
g2
(V<data>\\u000a        <ttProgram>\\u000a          <ttc align=\"round\" code=\"alignh\" point=\"lsb\"/>\\u000a          <ttc align=\"round\" code=\"alignh\" point=\"ah01\"/>\\u000a          <ttc align=\"round\" code=\"singleh\" point1=\"lsb\" point2=\"sh01\"/>\\u000a          <ttc code=\"singleh\" point1=\"ah01\" point2=\"sh02\"/>\\u000a          <ttc code=\"singleh\" point1=\"ah01\" point2=\"sh03\" stem=\"X: 190\"/>\\u000a          <ttc code=\"singleh\" point1=\"sh01\" point2=\"sh04\" stem=\"X: 190\"/>\\u000a          <ttc align=\"round\" code=\"singleh\" point1=\"sh04\" point2=\"sh05\"/>\\u000a          <ttc code=\"mdeltah\" delta=\"-4\" point=\"sh05\" ppm1=\"26\" ppm2=\"26\"/>\\u000a          <ttc code=\"singleh\" point1=\"ah01\" point2=\"sh06\"/>\\u000a          <ttc code=\"singleh\" point1=\"sh03\" point2=\"rsb\" round=\"true\"/>\\u000a          <ttc align=\"round\" code=\"alignv\" point=\"av01\"/>\\u000a          <ttc align=\"round\" code=\"alignv\" point=\"av02\"/>\\u000a          <ttc code=\"alignb\" point=\"ab01\" zone=\"b: 0\"/>\\u000a          <ttc code=\"alignb\" point=\"ab02\" zone=\"b: -500\"/>\\u000a          <ttc code=\"singlev\" point1=\"ab01\" point2=\"sv01\" stem=\"Y: 162\"/>\\u000a          <ttc code=\"interpolatev\" point=\"iv01\" point1=\"ab01\" point2=\"sv01\"/>\\u000a          <ttc code=\"singlev\" point1=\"av01\" point2=\"sv02\" stem=\"Y: 162\"/>\\u000a          <ttc code=\"interpolatev\" point=\"sh02\" point1=\"av01\" point2=\"sv02\"/>\\u000a          <ttc code=\"mdeltav\" delta=\"-4\" point=\"av02\" ppm1=\"42\" ppm2=\"42\"/>\\u000a          <ttc code=\"mdeltav\" delta=\"5\" point=\"sh05\" ppm1=\"26\" ppm2=\"26\"/>\\u000a          <ttc code=\"mdeltav\" delta=\"6\" point=\"sh05\" ppm1=\"25\" ppm2=\"25\"/>\\u000a          <ttc code=\"mdeltav\" delta=\"5\" point=\"sh05\" ppm1=\"23\" ppm2=\"23\"/>\\u000a          <ttc code=\"mdeltav\" delta=\"4\" point=\"sh05\" ppm1=\"24\" ppm2=\"24\"/>\\u000a          <ttc code=\"singlev\" point1=\"ab02\" point2=\"sv03\" stem=\"Y: 162\"/>\\u000a          <ttc code=\"fdeltav\" delta=\"-3\" point=\"av02\" ppm1=\"42\" ppm2=\"42\"/>\\u000a        </ttProgram>\\u000a      </data>
p15
g4
tp16
Rp17
Ntp18
s."
EndChar
StartChar: j
Encoding: 325 106 325
GlifName: j
Width: 600
VWidth: 0
Flags: W
LayerCount: 2
Fore
SplineSet
194 1500 m 257
NamedP: "sh01"
 396 1500 l 257
NamedP: "sh02"
 396 1300 l 257
NamedP: "sv01"
 194 1300 l 257
 194 1500 l 257
NamedP: "sh01"
-22 -345 m 257
 -11 -349 -11 -349 14 -353 c 128
 39 -357 39 -357 70 -357 c 257
NamedP: "sv02"
 107 -357 107 -357 132 -337.5 c 128
 157 -318 157 -318 172 -284 c 128
 187 -250 187 -250 193.5 -204.5 c 128
 200 -159 200 -159 200 -107 c 257
NamedP: "dh01"
 200 1055 l 257
 390 1075 l 257
NamedP: "av01"
 390 -97 l 257
NamedP: "dh02"
 390 -186 390 -186 378.5 -263 c 128
 367 -340 367 -340 333 -396.5 c 128
 299 -453 299 -453 238.5 -485 c 128
 178 -517 178 -517 80 -517 c 257
NamedP: "ab01"
 19 -517 19 -517 -15.5 -506 c 128
 -50 -495 -50 -495 -61 -489 c 257
 -22 -345 l 257
EndSplineSet
PickledDataWithLists: "(dp0
Vcom.adobe.type.autohint
p1
(c_codecs
encode
p2
(Vdata
p3
Vlatin1
p4
tp5
Rp6
g2
(V<data>\\u000a        <hintSetList>\\u000a          <hintset pointTag=\"sh01\">\\u000a            <hstem pos=\"-517\" width=\"160\"/>\\u000a            <hstem pos=\"1300\" width=\"200\"/>\\u000a            <vstem pos=\"200\" width=\"190\"/>\\u000a          </hintset>\\u000a        </hintSetList>\\u000a      </data>
p7
g4
tp8
Rp9
Ntp10
sVcom.fontlab.ttprogram
p11
(g2
(Vdata
p12
g4
tp13
Rp14
g2
(V<data>\\u000a        <ttProgram>\\u000a          <ttc code=\"doubleh\" point1=\"dh01\" point2=\"dh02\" stem=\"X: 190\"/>\\u000a          <ttc align=\"round\" code=\"singleh\" point1=\"dh01\" point2=\"sh01\"/>\\u000a          <ttc align=\"round\" code=\"singleh\" point1=\"dh02\" point2=\"sh02\"/>\\u000a          <ttc align=\"round\" code=\"alignv\" point=\"av01\"/>\\u000a          <ttc code=\"alignt\" point=\"sh01\" zone=\"t: 1\"/>\\u000a          <ttc code=\"alignb\" point=\"ab01\" zone=\"b: -500\"/>\\u000a          <ttc code=\"singlev\" point1=\"sh01\" point2=\"sv01\" round=\"true\"/>\\u000a          <ttc code=\"singlev\" point1=\"ab01\" point2=\"sv02\" stem=\"Y: 162\"/>\\u000a          <ttc code=\"mdeltav\" delta=\"8\" point=\"av01\" ppm1=\"10\" ppm2=\"10\"/>\\u000a        </ttProgram>\\u000a      </data>
p15
g4
tp16
Rp17
Ntp18
s."
EndChar
StartChar: m
Encoding: 344 109 344
GlifName: m
Width: 1800
VWidth: 0
Flags: W
LayerCount: 2
Fore
SplineSet
390 0 m 257
NamedP: "dh02"
 200 0 l 257
NamedP: "dh01"
 200 1100 l 257
 390 1120 l 257
NamedP: "sh01"
 390 937 l 257
NamedP: "iv01"
 451 1044 l 257
 469 1056 469 1056 496 1069 c 128
 523 1082 523 1082 557 1092.5 c 128
 591 1103 591 1103 630 1110 c 128
 669 1117 669 1117 710 1117 c 257
NamedP: "av01"
 822 1117 822 1117 892 1062.5 c 128
 962 1008 962 1008 983 923 c 257
NamedP: "ih01"
 1059 1040 l 257
 1094 1068 1094 1068 1158 1092.5 c 128
 1222 1117 1222 1117 1305 1117 c 257
NamedP: "av02"
 1381 1117 1381 1117 1435 1091.5 c 128
 1489 1066 1489 1066 1523.5 1018 c 128
 1558 970 1558 970 1574 902 c 128
 1590 834 1590 834 1590 750 c 257
 1590 0 l 257
NamedP: "sh05"
 1400 0 l 257
NamedP: "sh04"
 1400 740 l 257
 1400 794 1400 794 1392.5 834.5 c 128
 1385 875 1385 875 1366.5 902.5 c 128
 1348 930 1348 930 1317 943.5 c 128
 1286 957 1286 957 1240 957 c 257
NamedP: "sv01"
 1211 957 1211 957 1179.5 947 c 128
 1148 937 1148 937 1116 920.5 c 128
 1084 904 1084 904 1053.5 882.5 c 128
 1023 861 1023 861 996 839 c 257
NamedP: "sh06"
 999 810 999 810 999.5 790.5 c 128
 1000 771 1000 771 1000 740 c 257
 1000 0 l 257
NamedP: "sh03"
 810 0 l 257
NamedP: "sh02"
 810 740 l 257
 810 848 810 848 774 902.5 c 128
 738 957 738 957 645 957 c 257
NamedP: "sv02"
 615 957 615 957 581 948 c 128
 547 939 547 939 513.5 923 c 128
 480 907 480 907 448 886.5 c 128
 416 866 416 866 390 844 c 257
 390 0 l 257
NamedP: "dh02"
EndSplineSet
PickledDataWithLists: "(dp0
Vcom.adobe.type.autohint
p1
(c_codecs
encode
p2
(Vdata
p3
Vlatin1
p4
tp5
Rp6
g2
(V<data>\\u000a        <hintSetList>\\u000a          <hintset pointTag=\"dh02\">\\u000a            <hstem pos=\"21\" width=\"-21\"/>\\u000a            <hstem pos=\"957\" width=\"160\"/>\\u000a            <vstem pos=\"200\" width=\"190\"/>\\u000a            <vstem pos=\"810\" width=\"190\"/>\\u000a            <vstem pos=\"1400\" width=\"190\"/>\\u000a          </hintset>\\u000a        </hintSetList>\\u000a      </data>
p7
g4
tp8
Rp9
Ntp10
sVcom.fontlab.ttprogram
p11
(g2
(Vdata
p12
g4
tp13
Rp14
g2
(V<data>\\u000a        <ttProgram>\\u000a          <ttc code=\"doubleh\" point1=\"dh01\" point2=\"dh02\" stem=\"X: 199\"/>\\u000a          <ttc code=\"singleh\" point1=\"dh02\" point2=\"sh01\"/>\\u000a          <ttc code=\"singleh\" point1=\"dh02\" point2=\"sh02\" round=\"true\"/>\\u000a          <ttc code=\"mdeltah\" delta=\"-8\" point=\"sh02\" ppm1=\"27\" ppm2=\"27\"/>\\u000a          <ttc code=\"mdeltah\" delta=\"-8\" point=\"sh02\" ppm1=\"41\" ppm2=\"41\"/>\\u000a          <ttc code=\"mdeltah\" delta=\"-8\" point=\"sh02\" ppm1=\"31\" ppm2=\"32\"/>\\u000a          <ttc code=\"mdeltah\" delta=\"-8\" point=\"sh02\" ppm1=\"22\" ppm2=\"22\"/>\\u000a          <ttc code=\"mdeltah\" delta=\"-8\" point=\"sh02\" ppm1=\"36\" ppm2=\"37\"/>\\u000a          <ttc code=\"singleh\" point1=\"sh02\" point2=\"sh03\" stem=\"X: 199\"/>\\u000a          <ttc code=\"interpolateh\" point=\"ih01\" point1=\"sh02\" point2=\"sh03\"/>\\u000a          <ttc code=\"singleh\" point1=\"sh03\" point2=\"sh04\" round=\"true\"/>\\u000a          <ttc code=\"mdeltah\" delta=\"8\" point=\"sh04\" ppm1=\"12\" ppm2=\"12\"/>\\u000a          <ttc code=\"mdeltah\" delta=\"8\" point=\"sh04\" ppm1=\"17\" ppm2=\"17\"/>\\u000a          <ttc code=\"singleh\" point1=\"sh04\" point2=\"sh05\" stem=\"X: 199\"/>\\u000a          <ttc align=\"round\" code=\"singleh\" point1=\"sh03\" point2=\"sh06\"/>\\u000a          <ttc code=\"singleh\" point1=\"sh05\" point2=\"rsb\" round=\"true\"/>\\u000a          <ttc align=\"round\" code=\"alignv\" point=\"sh01\"/>\\u000a          <ttc align=\"round\" code=\"alignv\" point=\"av01\"/>\\u000a          <ttc align=\"round\" code=\"alignv\" point=\"av02\"/>\\u000a          <ttc code=\"alignb\" point=\"dh02\" zone=\"b: 0\"/>\\u000a          <ttc code=\"alignb\" point=\"sh05\" zone=\"b: 0\"/>\\u000a          <ttc code=\"alignb\" point=\"sh03\" zone=\"b: 0\"/>\\u000a          <ttc code=\"mdeltav\" delta=\"-5\" point=\"sh01\" ppm1=\"42\" ppm2=\"42\"/>\\u000a          <ttc code=\"interpolatev\" point=\"iv01\" point1=\"dh02\" point2=\"sh01\"/>\\u000a          <ttc code=\"interpolatev\" point=\"ih01\" point1=\"dh02\" point2=\"sh01\"/>\\u000a          <ttc code=\"singlev\" point1=\"av02\" point2=\"sv01\" stem=\"Y: 162\"/>\\u000a          <ttc code=\"singlev\" point1=\"av01\" point2=\"sv02\" stem=\"Y: 162\"/>\\u000a        </ttProgram>\\u000a      </data>
p15
g4
tp16
Rp17
Ntp18
s."
EndChar
StartChar: o
Encoding: 373 111 373
GlifName: o
Width: 1200
VWidth: 0
Flags: W
LayerCount: 2
Fore
SplineSet
599 -17 m 257
NamedP: "ab01"
 488 -17 488 -17 396.5 26.5 c 128
 305 70 305 70 239 146.5 c 128
 173 223 173 223 136.5 327.5 c 128
 100 432 100 432 100 553 c 257
NamedP: "sh01"
 100 674 100 674 135 777.5 c 128
 170 881 170 881 235 956.5 c 128
 300 1032 300 1032 392.5 1074.5 c 128
 485 1117 485 1117 599 1117 c 257
NamedP: "av01"
 710 1117 710 1117 802 1074.5 c 128
 894 1032 894 1032 960 956.5 c 128
 1026 881 1026 881 1063 777.5 c 128
 1100 674 1100 674 1100 553 c 257
NamedP: "sh02"
 1100 432 1100 432 1064.5 327.5 c 128
 1029 223 1029 223 964 146.5 c 128
 899 70 899 70 806 26.5 c 128
 713 -17 713 -17 599 -17 c 257
NamedP: "ab01"
910 526 m 257
NamedP: "ah01"
 910 607 910 607 892.5 685 c 128
 875 763 875 763 837 824.5 c 128
 799 886 799 886 739 924 c 128
 679 962 679 962 595 962 c 257
NamedP: "sv01"
 515 962 515 962 457 929 c 128
 399 896 399 896 362 841 c 128
 325 786 325 786 307.5 716 c 128
 290 646 290 646 290 572 c 257
NamedP: "sh03"
 290 491 290 491 307.5 413 c 128
 325 335 325 335 362.5 274 c 128
 400 213 400 213 459.5 175.5 c 128
 519 138 519 138 603 138 c 257
NamedP: "sv02"
 682 138 682 138 740 171 c 128
 798 204 798 204 836 258.5 c 128
 874 313 874 313 892 383 c 128
 910 453 910 453 910 526 c 257
NamedP: "ah01"
EndSplineSet
PickledDataWithLists: "(dp0
Vcom.adobe.type.autohint
p1
(c_codecs
encode
p2
(Vdata
p3
Vlatin1
p4
tp5
Rp6
g2
(V<data>\\u000a        <hintSetList>\\u000a          <hintset pointTag=\"ab01\">\\u000a            <hstem pos=\"-17\" width=\"155\"/>\\u000a            <hstem pos=\"962\" width=\"155\"/>\\u000a            <vstem pos=\"100\" width=\"190\"/>\\u000a            <vstem pos=\"910\" width=\"190\"/>\\u000a          </hintset>\\u000a        </hintSetList>\\u000a      </data>
p7
g4
tp8
Rp9
Ntp10
sVcom.fontlab.ttprogram
p11
(g2
(Vdata
p12
g4
tp13
Rp14
g2
(V<data>\\u000a        <ttProgram>\\u000a          <ttc align=\"round\" code=\"alignh\" point=\"lsb\"/>\\u000a          <ttc align=\"round\" code=\"alignh\" point=\"ah01\"/>\\u000a          <ttc align=\"round\" code=\"singleh\" point1=\"lsb\" point2=\"sh01\"/>\\u000a          <ttc code=\"singleh\" point1=\"ah01\" point2=\"sh02\" stem=\"X: 199\"/>\\u000a          <ttc code=\"singleh\" point1=\"sh01\" point2=\"sh03\" stem=\"X: 199\"/>\\u000a          <ttc code=\"singleh\" point1=\"sh02\" point2=\"rsb\" round=\"true\"/>\\u000a          <ttc align=\"round\" code=\"alignv\" point=\"av01\"/>\\u000a          <ttc code=\"alignb\" point=\"ab01\" zone=\"b: 0\"/>\\u000a          <ttc code=\"singlev\" point1=\"av01\" point2=\"sv01\" stem=\"Y: 153\"/>\\u000a          <ttc code=\"singlev\" point1=\"ab01\" point2=\"sv02\" stem=\"Y: 153\"/>\\u000a        </ttProgram>\\u000a      </data>
p15
g4
tp16
Rp17
Ntp18
s."
EndChar
StartChar: q
Encoding: 435 113 435
GlifName: q
Width: 1200
VWidth: 0
Flags: W
LayerCount: 2
Fore
SplineSet
810 935 m 257
NamedP: "ah01"
 791 939 791 939 765.5 943 c 128
 740 947 740 947 711.5 950 c 128
 683 953 683 953 653 955 c 128
 623 957 623 957 596 957 c 257
NamedP: "sv01"
 504 957 504 957 446 918 c 128
 388 879 388 879 354 817 c 128
 320 755 320 755 307.5 677.5 c 128
 295 600 295 600 295 524 c 257
NamedP: "sh02"
 295 424 295 424 314 352 c 128
 333 280 333 280 364.5 233.5 c 128
 396 187 396 187 437.5 165 c 128
 479 143 479 143 525 143 c 257
NamedP: "sv02"
 564 143 564 143 602 153.5 c 128
 640 164 640 164 676 181.5 c 128
 712 199 712 199 745.5 222 c 128
 779 245 779 245 810 270 c 257
 810 935 l 257
NamedP: "ah01"
810 136 m 257
NamedP: "sh03"
 705 29 l 257
 654 5 654 5 604 -6 c 128
 554 -17 554 -17 506 -17 c 257
NamedP: "ab01"
 423 -17 423 -17 349.5 20.5 c 128
 276 58 276 58 220.5 127.5 c 128
 165 197 165 197 132.5 297.5 c 128
 100 398 100 398 100 524 c 257
NamedP: "sh01"
 100 662 100 662 137 772 c 128
 174 882 174 882 240 958.5 c 128
 306 1035 306 1035 398 1076 c 128
 490 1117 490 1117 600 1117 c 257
NamedP: "av02"
 663 1117 663 1117 726 1111.5 c 128
 789 1106 789 1106 843 1098.5 c 128
 897 1091 897 1091 938.5 1081.5 c 128
 980 1072 980 1072 1000 1065 c 257
NamedP: "sh04"
 1000 -500 l 257
NamedP: "av01"
 810 -500 l 257
 810 136 l 257
NamedP: "sh03"
EndSplineSet
PickledDataWithLists: "(dp0
Vcom.adobe.type.autohint
p1
(c_codecs
encode
p2
(Vdata
p3
Vlatin1
p4
tp5
Rp6
g2
(V<data>\\u000a        <hintSetList>\\u000a          <hintset pointTag=\"ah01\">\\u000a            <hstem pos=\"-479\" width=\"-21\"/>\\u000a            <hstem pos=\"-17\" width=\"160\"/>\\u000a            <hstem pos=\"957\" width=\"160\"/>\\u000a            <vstem pos=\"100\" width=\"195\"/>\\u000a            <vstem pos=\"810\" width=\"190\"/>\\u000a          </hintset>\\u000a        </hintSetList>\\u000a      </data>
p7
g4
tp8
Rp9
Ntp10
sVcom.fontlab.ttprogram
p11
(g2
(Vdata
p12
g4
tp13
Rp14
g2
(V<data>\\u000a        <ttProgram>\\u000a          <ttc align=\"round\" code=\"alignh\" point=\"lsb\"/>\\u000a          <ttc align=\"round\" code=\"alignh\" point=\"ah01\"/>\\u000a          <ttc code=\"mdeltah\" delta=\"8\" point=\"ah01\" ppm1=\"10\" ppm2=\"11\"/>\\u000a          <ttc align=\"round\" code=\"singleh\" point1=\"lsb\" point2=\"sh01\"/>\\u000a          <ttc code=\"mdeltah\" delta=\"8\" point=\"sh01\" ppm1=\"29\" ppm2=\"29\"/>\\u000a          <ttc code=\"mdeltah\" delta=\"8\" point=\"sh01\" ppm1=\"25\" ppm2=\"27\"/>\\u000a          <ttc code=\"singleh\" point1=\"sh01\" point2=\"sh02\" stem=\"X: 190\"/>\\u000a          <ttc code=\"singleh\" point1=\"ah01\" point2=\"sh03\"/>\\u000a          <ttc code=\"singleh\" point1=\"ah01\" point2=\"sh04\" stem=\"X: 190\"/>\\u000a          <ttc align=\"round\" code=\"alignv\" point=\"av01\"/>\\u000a          <ttc align=\"round\" code=\"alignv\" point=\"av02\"/>\\u000a          <ttc code=\"alignb\" point=\"ab01\" zone=\"b: 0\"/>\\u000a          <ttc code=\"singlev\" point1=\"av02\" point2=\"sv01\" stem=\"Y: 162\"/>\\u000a          <ttc code=\"singlev\" point1=\"ab01\" point2=\"sv02\" stem=\"Y: 162\"/>\\u000a          <ttc code=\"interpolatev\" point=\"sh03\" point1=\"ab01\" point2=\"sv02\"/>\\u000a        </ttProgram>\\u000a      </data>
p15
g4
tp16
Rp17
Ntp18
s."
EndChar
StartChar: u
Encoding: 542 117 542
GlifName: u
Width: 1200
VWidth: 0
Flags: W
LayerCount: 2
Fore
SplineSet
810 1100 m 257
NamedP: "ah01"
 1000 1120 l 257
NamedP: "sh01"
 1000 0 l 257
NamedP: "ab01"
 810 0 l 257
NamedP: "sh02"
 810 163 l 257
NamedP: "ih01"
 749 56 l 257
 731 44 731 44 706.5 31 c 128
 682 18 682 18 651 7.5 c 128
 620 -3 620 -3 583 -10 c 128
 546 -17 546 -17 505 -17 c 257
NamedP: "ab02"
 425 -17 425 -17 367.5 12 c 128
 310 41 310 41 273 93 c 128
 236 145 236 145 218 216.5 c 128
 200 288 200 288 200 372 c 257
NamedP: "sh03"
 200 1100 l 257
 390 1120 l 257
NamedP: "av01"
 390 372 l 257
NamedP: "sh04"
 390 264 390 264 433.5 203.5 c 128
 477 143 477 143 570 143 c 257
NamedP: "sv01"
 604 143 604 143 637 154 c 128
 670 165 670 165 701 182 c 128
 732 199 732 199 759.5 219 c 128
 787 239 787 239 810 258 c 257
 810 1100 l 257
NamedP: "ah01"
EndSplineSet
PickledDataWithLists: "(dp0
Vcom.adobe.type.autohint
p1
(c_codecs
encode
p2
(Vdata
p3
Vlatin1
p4
tp5
Rp6
g2
(V<data>\\u000a        <hintSetList>\\u000a          <hintset pointTag=\"ah01\">\\u000a            <hstem pos=\"-17\" width=\"160\"/>\\u000a            <hstem pos=\"1120\" width=\"-20\"/>\\u000a            <vstem pos=\"200\" width=\"190\"/>\\u000a            <vstem pos=\"810\" width=\"190\"/>\\u000a          </hintset>\\u000a        </hintSetList>\\u000a      </data>
p7
g4
tp8
Rp9
Ntp10
sVcom.fontlab.ttprogram
p11
(g2
(Vdata
p12
g4
tp13
Rp14
g2
(V<data>\\u000a        <ttProgram>\\u000a          <ttc align=\"round\" code=\"alignh\" point=\"lsb\"/>\\u000a          <ttc align=\"round\" code=\"alignh\" point=\"ah01\"/>\\u000a          <ttc code=\"singleh\" point1=\"ah01\" point2=\"sh01\" stem=\"X: 190\"/>\\u000a          <ttc code=\"singleh\" point1=\"ah01\" point2=\"sh02\"/>\\u000a          <ttc align=\"round\" code=\"singleh\" point1=\"lsb\" point2=\"sh03\"/>\\u000a          <ttc code=\"interpolateh\" point=\"ih01\" point1=\"sh03\" point2=\"sh01\"/>\\u000a          <ttc code=\"singleh\" point1=\"sh03\" point2=\"sh04\" stem=\"X: 190\"/>\\u000a          <ttc code=\"singleh\" point1=\"sh01\" point2=\"rsb\"/>\\u000a          <ttc align=\"round\" code=\"alignv\" point=\"sh01\"/>\\u000a          <ttc align=\"round\" code=\"alignv\" point=\"av01\"/>\\u000a          <ttc code=\"alignb\" point=\"ab01\" zone=\"b: 0\"/>\\u000a          <ttc code=\"alignb\" point=\"ab02\" zone=\"b: 0\"/>\\u000a          <ttc code=\"mdeltav\" delta=\"-5\" point=\"sh01\" ppm1=\"42\" ppm2=\"42\"/>\\u000a          <ttc code=\"interpolatev\" point=\"ih01\" point1=\"ab02\" point2=\"sh01\"/>\\u000a          <ttc code=\"mdeltav\" delta=\"-5\" point=\"av01\" ppm1=\"42\" ppm2=\"42\"/>\\u000a          <ttc code=\"singlev\" point1=\"ab02\" point2=\"sv01\" stem=\"Y: 162\"/>\\u000a        </ttProgram>\\u000a      </data>
p15
g4
tp16
Rp17
Ntp18
s."
EndChar
StartChar: w
Encoding: 557 119 557
GlifName: w
Width: 1500
VWidth: 0
Flags: W
LayerCount: 2
Fore
SplineSet
997 480 m 257
NamedP: "mh01"
 1039 200 l 257
NamedP: "ah02"
 1079 480 l 257
 1250 1100 l 257
NamedP: "sh01"
 1412 1117 l 257
NamedP: "sh02"
 1103 0 l 257
NamedP: "mh02"
 951 0 l 257
NamedP: "sh03"
 780 620 l 257
NamedP: "mh03"
 742 900 l 257
NamedP: "ah03"
 701 620 l 257
NamedP: "mh04"
 530 0 l 257
NamedP: "ab01"
 378 0 l 257
 75 1100 l 257
NamedP: "sh05"
 247 1120 l 257
NamedP: "sh04"
 423 480 l 257
NamedP: "fh01"
 466 200 l 257
NamedP: "ah01"
 506 480 l 257
NamedP: "fh02"
 677 1100 l 257
NamedP: "sh06"
 825 1100 l 257
NamedP: "sh07"
 997 480 l 257
NamedP: "mh01"
EndSplineSet
PickledDataWithLists: "(dp0
Vcom.adobe.type.autohint
p1
(c_codecs
encode
p2
(Vdata
p3
Vlatin1
p4
tp5
Rp6
g2
(V<data>\\u000a        <hintSetList>\\u000a          <hintset pointTag=\"mh01\">\\u000a            <hstem pos=\"21\" width=\"-21\"/>\\u000a            <hstem pos=\"1120\" width=\"-20\"/>\\u000a          </hintset>\\u000a        </hintSetList>\\u000a      </data>
p7
g4
tp8
Rp9
Ntp10
sVcom.fontlab.ttprogram
p11
(g2
(Vdata
p12
g4
tp13
Rp14
g2
(V<data>\\u000a        <ttProgram>\\u000a          <ttc align=\"center\" code=\"alignh\" point=\"ah01\"/>\\u000a          <ttc align=\"center\" code=\"alignh\" point=\"ah02\"/>\\u000a          <ttc align=\"center\" code=\"alignh\" point=\"ah03\"/>\\u000a          <ttc code=\"mdeltah\" delta=\"-2\" point=\"mh01\" ppm1=\"10\" ppm2=\"10\"/>\\u000a          <ttc code=\"mdeltah\" delta=\"-4\" point=\"mh01\" ppm1=\"35\" ppm2=\"35\"/>\\u000a          <ttc code=\"singleh\" point1=\"ah02\" point2=\"sh01\"/>\\u000a          <ttc code=\"singleh\" point1=\"sh01\" point2=\"sh02\" stem=\"X: dia Lite\"/>\\u000a          <ttc code=\"mdeltah\" delta=\"-3\" point=\"sh02\" ppm1=\"10\" ppm2=\"10\"/>\\u000a          <ttc code=\"mdeltah\" delta=\"5\" point=\"mh02\" ppm1=\"10\" ppm2=\"10\"/>\\u000a          <ttc code=\"mdeltah\" delta=\"3\" point=\"ah03\" ppm1=\"10\" ppm2=\"10\"/>\\u000a          <ttc code=\"singleh\" point1=\"ah03\" point2=\"sh03\"/>\\u000a          <ttc code=\"mdeltah\" delta=\"4\" point=\"sh03\" ppm1=\"10\" ppm2=\"10\"/>\\u000a          <ttc code=\"mdeltah\" delta=\"4\" point=\"mh03\" ppm1=\"10\" ppm2=\"10\"/>\\u000a          <ttc code=\"mdeltah\" delta=\"2\" point=\"mh04\" ppm1=\"10\" ppm2=\"10\"/>\\u000a          <ttc code=\"singleh\" point1=\"ah01\" point2=\"sh04\"/>\\u000a          <ttc code=\"mdeltah\" delta=\"-2\" point=\"sh04\" ppm1=\"10\" ppm2=\"10\"/>\\u000a          <ttc code=\"singleh\" point1=\"sh04\" point2=\"sh05\" stem=\"X: dia Fat\"/>\\u000a          <ttc code=\"singleh\" point1=\"ah01\" point2=\"sh06\"/>\\u000a          <ttc code=\"mdeltah\" delta=\"3\" point=\"sh06\" ppm1=\"10\" ppm2=\"10\"/>\\u000a          <ttc code=\"singleh\" point1=\"ah02\" point2=\"sh07\"/>\\u000a          <ttc code=\"mdeltah\" delta=\"-1\" point=\"sh07\" ppm1=\"10\" ppm2=\"10\"/>\\u000a          <ttc code=\"mdeltah\" delta=\"-2\" point=\"sh07\" ppm1=\"35\" ppm2=\"35\"/>\\u000a          <ttc align=\"round\" code=\"alignv\" point=\"sh04\"/>\\u000a          <ttc align=\"round\" code=\"alignv\" point=\"sh02\"/>\\u000a          <ttc align=\"round\" code=\"alignv\" point=\"sh07\"/>\\u000a          <ttc align=\"round\" code=\"alignv\" point=\"sh06\"/>\\u000a          <ttc code=\"alignb\" point=\"mh02\" zone=\"b: 0\"/>\\u000a          <ttc code=\"alignb\" point=\"ab01\" zone=\"b: 0\"/>\\u000a          <ttc code=\"mdeltav\" delta=\"-5\" point=\"sh04\" ppm1=\"42\" ppm2=\"42\"/>\\u000a          <ttc code=\"interpolatev\" point=\"ah02\" point1=\"mh02\" point2=\"sh04\"/>\\u000a          <ttc code=\"interpolatev\" point=\"ah03\" point1=\"mh02\" point2=\"sh04\"/>\\u000a          <ttc code=\"mdeltav\" delta=\"4\" point=\"ah03\" ppm1=\"10\" ppm2=\"10\"/>\\u000a          <ttc code=\"interpolatev\" point=\"ah01\" point1=\"mh02\" point2=\"sh04\"/>\\u000a          <ttc code=\"fdeltah\" delta=\"-2\" point=\"mh01\" ppm1=\"16\" ppm2=\"16\"/>\\u000a          <ttc code=\"fdeltah\" delta=\"3\" point=\"mh02\" ppm1=\"13\" ppm2=\"13\"/>\\u000a          <ttc code=\"fdeltah\" delta=\"4\" point=\"sh03\" ppm1=\"16\" ppm2=\"16\"/>\\u000a          <ttc code=\"fdeltah\" delta=\"5\" point=\"sh03\" ppm1=\"13\" ppm2=\"13\"/>\\u000a          <ttc code=\"fdeltah\" delta=\"1\" point=\"mh03\" ppm1=\"11\" ppm2=\"11\"/>\\u000a          <ttc code=\"fdeltah\" delta=\"6\" point=\"mh03\" ppm1=\"13\" ppm2=\"13\"/>\\u000a          <ttc code=\"fdeltah\" delta=\"7\" point=\"mh03\" ppm1=\"16\" ppm2=\"16\"/>\\u000a          <ttc code=\"fdeltah\" delta=\"4\" point=\"ah03\" ppm1=\"13\" ppm2=\"13\"/>\\u000a          <ttc code=\"fdeltah\" delta=\"4\" point=\"ah03\" ppm1=\"16\" ppm2=\"16\"/>\\u000a          <ttc code=\"fdeltah\" delta=\"-4\" point=\"mh04\" ppm1=\"11\" ppm2=\"11\"/>\\u000a          <ttc code=\"fdeltah\" delta=\"3\" point=\"mh04\" ppm1=\"13\" ppm2=\"13\"/>\\u000a          <ttc code=\"fdeltah\" delta=\"4\" point=\"mh04\" ppm1=\"16\" ppm2=\"16\"/>\\u000a          <ttc code=\"fdeltah\" delta=\"-2\" point=\"ab01\" ppm1=\"11\" ppm2=\"11\"/>\\u000a          <ttc code=\"fdeltah\" delta=\"3\" point=\"ab01\" ppm1=\"13\" ppm2=\"13\"/>\\u000a          <ttc code=\"fdeltah\" delta=\"-2\" point=\"fh01\" ppm1=\"13\" ppm2=\"13\"/>\\u000a          <ttc code=\"fdeltah\" delta=\"2\" point=\"fh02\" ppm1=\"13\" ppm2=\"13\"/>\\u000a          <ttc code=\"fdeltah\" delta=\"4\" point=\"fh02\" ppm1=\"11\" ppm2=\"11\"/>\\u000a          <ttc code=\"fdeltah\" delta=\"1\" point=\"sh06\" ppm1=\"13\" ppm2=\"13\"/>\\u000a          <ttc code=\"fdeltah\" delta=\"3\" point=\"sh06\" ppm1=\"16\" ppm2=\"16\"/>\\u000a          <ttc code=\"fdeltah\" delta=\"4\" point=\"sh06\" ppm1=\"11\" ppm2=\"11\"/>\\u000a          <ttc code=\"fdeltah\" delta=\"1\" point=\"sh07\" ppm1=\"16\" ppm2=\"16\"/>\\u000a          <ttc code=\"fdeltah\" delta=\"4\" point=\"sh07\" ppm1=\"11\" ppm2=\"11\"/>\\u000a          <ttc code=\"fdeltah\" delta=\"4\" point=\"sh07\" ppm1=\"13\" ppm2=\"13\"/>\\u000a          <ttc code=\"fdeltav\" delta=\"5\" point=\"ah02\" ppm1=\"11\" ppm2=\"11\"/>\\u000a          <ttc code=\"fdeltav\" delta=\"-7\" point=\"ah03\" ppm1=\"11\" ppm2=\"11\"/>\\u000a          <ttc code=\"fdeltav\" delta=\"5\" point=\"ah01\" ppm1=\"11\" ppm2=\"11\"/>\\u000a        </ttProgram>\\u000a      </data>
p15
g4
tp16
Rp17
Ntp18
sVcom.typemytype.robofont.guides
p19
(lp20
(dp21
Vangle
p22
I0
sVisGlobal
p23
I00
sVmagnetic
p24
I5
sVx
p25
I0
sVy
p26
I500
sa(dp27
g22
I0
sg23
I00
sg24
I5
sg25
I0
sg26
I600
sa(dp28
g22
I90
sg23
I00
sg24
I5
sg25
I466
sg26
I0
sa(dp29
g22
I90
sg23
I00
sg24
I5
sg25
I1039
sg26
I0
sa(dp30
g22
I90
sg23
I00
sg24
I5
sg25
I742
sg26
I0
sas."
EndChar
StartChar: y
Encoding: 582 121 582
GlifName: y
Width: 1100
VWidth: 0
Flags: W
LayerCount: 2
Fore
SplineSet
602 364 m 257
NamedP: "hr00"
 871 1100 l 257
NamedP: "sh01"
 1051 1117 l 257
NamedP: "sh02"
 637 -17 l 257
NamedP: "ih01"
 606 -101 606 -101 569.5 -184 c 128
 533 -267 533 -267 487 -332.5 c 128
 441 -398 441 -398 385.5 -439 c 128
 330 -480 330 -480 262 -480 c 257
NamedP: "av01"
 211 -480 211 -480 162 -459.5 c 128
 113 -439 113 -439 72 -403 c 257
 145 -296 l 257
NamedP: "ih02"
 162 -308 162 -308 184 -318 c 128
 206 -328 206 -328 230 -328 c 257
NamedP: "sv01"
 263 -328 263 -328 294 -302.5 c 128
 325 -277 325 -277 353.5 -237 c 128
 382 -197 382 -197 406.5 -147 c 128
 431 -97 431 -97 451 -47 c 257
NamedP: "ab01"
 34 1100 l 257
NamedP: "sh04"
 224 1117 l 257
NamedP: "sh03"
 498 364 l 257
 550 132 l 257
NamedP: "ah01"
 602 364 l 257
NamedP: "hr00"
EndSplineSet
PickledDataWithLists: "(dp0
Vcom.adobe.type.autohint
p1
(c_codecs
encode
p2
(Vdata
p3
Vlatin1
p4
tp5
Rp6
g2
(V<data>\\u000a        <hintSetList>\\u000a          <hintset pointTag=\"hr00\">\\u000a            <hstem pos=\"-480\" width=\"152\"/>\\u000a            <hstem pos=\"1117\" width=\"-20\"/>\\u000a          </hintset>\\u000a        </hintSetList>\\u000a      </data>
p7
g4
tp8
Rp9
Ntp10
sVcom.fontlab.ttprogram
p11
(g2
(Vdata
p12
g4
tp13
Rp14
g2
(V<data>\\u000a        <ttProgram>\\u000a          <ttc align=\"center\" code=\"alignh\" point=\"ah01\"/>\\u000a          <ttc code=\"singleh\" point1=\"ah01\" point2=\"sh01\"/>\\u000a          <ttc code=\"singleh\" point1=\"sh01\" point2=\"sh02\" stem=\"X: dia Lite\"/>\\u000a          <ttc code=\"interpolateh\" point=\"ih01\" point1=\"sh02\" point2=\"ih02\"/>\\u000a          <ttc code=\"singleh\" point1=\"ah01\" point2=\"sh03\"/>\\u000a          <ttc code=\"singleh\" point1=\"sh03\" point2=\"sh04\" stem=\"X: dia Fat\"/>\\u000a          <ttc align=\"round\" code=\"alignv\" point=\"sh02\"/>\\u000a          <ttc align=\"round\" code=\"alignv\" point=\"sh03\"/>\\u000a          <ttc align=\"right\" code=\"alignv\" point=\"av01\"/>\\u000a          <ttc code=\"alignb\" point=\"ab01\" zone=\"b: 0\"/>\\u000a          <ttc code=\"singlev\" point1=\"av01\" point2=\"sv01\" stem=\"Y: 153\"/>\\u000a          <ttc code=\"fdeltah\" delta=\"3\" point=\"ab01\" ppm1=\"26\" ppm2=\"26\"/>\\u000a        </ttProgram>\\u000a      </data>
p15
g4
tp16
Rp17
Ntp18
sVcom.typemytype.robofont.guides
p19
(lp20
(dp21
Vangle
p22
I90
sVisGlobal
p23
I00
sVmagnetic
p24
I5
sVx
p25
I550
sVy
p26
I0
sas."
EndChar
StartChar: braceleft
Encoding: 168 123 168
GlifName: braceleft
Width: 1298
VWidth: 0
Flags: W
LayerCount: 2
Fore
SplineSet
228 625 m 257
NamedP: "hr00"
 350 625 l 257
 399 632 399 632 428.5 652 c 128
 458 672 458 672 474 704 c 128
 490 736 490 736 495 780.5 c 128
 500 825 500 825 500 880 c 257
 500 1119 l 257
 500 1204 500 1204 515.5 1277 c 128
 531 1350 531 1350 569 1404 c 128
 607 1458 607 1458 670.5 1488.5 c 128
 734 1519 734 1519 830 1519 c 257
 876 1519 876 1519 908.5 1515.5 c 128
 941 1512 941 1512 966.5 1505.5 c 128
 992 1499 992 1499 1012.5 1490.5 c 128
 1033 1482 1033 1482 1054 1472 c 257
 991 1349 l 257
 972 1360 972 1360 939.5 1368 c 128
 907 1376 907 1376 882 1376 c 257
 874 1376 874 1376 866 1376 c 128
 858 1376 858 1376 850 1374 c 257
 801 1367 801 1367 771.5 1347 c 128
 742 1327 742 1327 726 1295 c 128
 710 1263 710 1263 705 1218.5 c 128
 700 1174 700 1174 700 1119 c 257
 700 880 l 257
 700 776 700 776 676 690 c 128
 652 604 652 604 593 550 c 257
 623 523 623 523 643 487.5 c 128
 663 452 663 452 676 409.5 c 128
 689 367 689 367 694.5 319 c 128
 700 271 700 271 700 220 c 257
 700 -20 l 257
 700 -75 700 -75 705 -119.5 c 128
 710 -164 710 -164 726 -196 c 128
 742 -228 742 -228 771.5 -248 c 128
 801 -268 801 -268 850 -275 c 257
 858 -277 858 -277 866 -277 c 128
 874 -277 874 -277 882 -277 c 257
 907 -277 907 -277 939.5 -269 c 128
 972 -261 972 -261 991 -250 c 257
 1054 -373 l 257
 1033 -383 1033 -383 1012.5 -391.5 c 128
 992 -400 992 -400 966.5 -406.5 c 128
 941 -413 941 -413 908.5 -416.5 c 128
 876 -420 876 -420 830 -420 c 257
 734 -420 734 -420 670.5 -389.5 c 128
 607 -359 607 -359 569 -305 c 128
 531 -251 531 -251 515.5 -178 c 128
 500 -105 500 -105 500 -20 c 257
 500 220 l 257
 500 275 500 275 495 319.5 c 128
 490 364 490 364 474 396 c 128
 458 428 458 428 428.5 448 c 128
 399 468 399 468 350 475 c 257
 228 475 l 257
 228 625 l 257
NamedP: "hr00"
EndSplineSet
PickledDataWithLists: "(dp0
Vcom.adobe.type.autohint
p1
(c_codecs
encode
p2
(Vdata
p3
Vlatin1
p4
tp5
Rp6
g2
(V<data>\\u000a        <hintSetList>\\u000a          <hintset pointTag=\"hr00\">\\u000a            <hstem pos=\"-399\" width=\"-21\"/>\\u000a            <hstem pos=\"475\" width=\"150\"/>\\u000a            <hstem pos=\"1519\" width=\"-20\"/>\\u000a            <vstem pos=\"500\" width=\"200\"/>\\u000a          </hintset>\\u000a        </hintSetList>\\u000a      </data>
p7
g4
tp8
Rp9
Ntp10
sVcom.typemytype.robofont.guides
p11
(lp12
(dp13
Vangle
p14
I0
sVisGlobal
p15
I00
sVmagnetic
p16
I5
sVx
p17
I0
sVy
p18
I550
sa(dp19
g14
I0
sg15
I00
sg16
I5
sg17
I0
sg18
I475
sas."
EndChar
StartChar: yen
Encoding: 585 165 585
GlifName: yen
Width: 1200
VWidth: 0
Flags: W
LayerCount: 2
Fore
SplineSet
100 550 m 257
NamedP: "hr00"
 495 550 l 257
 495 645 l 257
 467 700 l 257
 100 700 l 257
 100 850 l 257
 390 850 l 257
 59 1500 l 257
 263 1520 l 257
 551 954 l 257
 630 705 l 257
 660 935 l 257
 948 1500 l 257
 1140 1500 l 257
 809 850 l 257
 1100 850 l 257
 1100 700 l 257
 732 700 l 257
 705 646 l 257
 705 550 l 257
 1100 550 l 257
 1100 400 l 257
 705 400 l 257
 705 0 l 257
 495 0 l 257
 495 400 l 257
 100 400 l 257
 100 550 l 257
NamedP: "hr00"
EndSplineSet
PickledDataWithLists: "(dp0
Vcom.adobe.type.autohint
p1
(c_codecs
encode
p2
(Vdata
p3
Vlatin1
p4
tp5
Rp6
g2
(V<data>\\u000a        <hintSetList>\\u000a          <hintset pointTag=\"hr00\">\\u000a            <hstem pos=\"21\" width=\"-21\"/>\\u000a            <hstem pos=\"400\" width=\"150\"/>\\u000a            <hstem pos=\"700\" width=\"150\"/>\\u000a            <hstem pos=\"1518\" width=\"-20\"/>\\u000a            <vstem pos=\"500\" width=\"200\"/>\\u000a          </hintset>\\u000a        </hintSetList>\\u000a      </data>
p7
g4
tp8
Rp9
Ntp10
s."
EndChar
StartChar: brokenbar
Encoding: 173 166 173
GlifName: brokenbar
Width: 400
VWidth: 0
Flags: W
LayerCount: 2
Fore
SplineSet
300 1520 m 257
 300 700 l 257
 100 700 l 257
 100 1500 l 257
 300 1520 l 257
300 362 m 257
 300 -400 l 257
 100 -400 l 257
 100 362 l 257
 300 362 l 257
EndSplineSet
EndChar
StartChar: section
Encoding: 468 167 468
GlifName: section
Width: 1000
VWidth: 0
Flags: W
LayerCount: 2
Fore
SplineSet
772 1351 m 257
NamedP: "hr00"
 724 1377 724 1377 672 1385 c 128
 620 1393 620 1393 563 1393 c 257
 514 1393 514 1393 470 1382 c 128
 426 1371 426 1371 392.5 1347 c 128
 359 1323 359 1323 339.5 1286 c 128
 320 1249 320 1249 320 1197 c 257
 320 1147 320 1147 343.5 1108 c 128
 367 1069 367 1069 406 1035.5 c 128
 445 1002 445 1002 494 971.5 c 128
 543 941 543 941 595 908.5 c 128
 647 876 647 876 696 838.5 c 128
 745 801 745 801 784 754.5 c 128
 823 708 823 708 846.5 649.5 c 128
 870 591 870 591 870 515 c 257
 870 422 870 422 834 359 c 128
 798 296 798 296 736 257 c 257
 696 232 696 232 646 216 c 257
 662 204 662 204 678 192 c 257
 727 155 727 155 765 112.5 c 128
 803 70 803 70 826.5 20.5 c 128
 850 -29 850 -29 850 -88 c 257
 850 -165 850 -165 823 -226.5 c 128
 796 -288 796 -288 745 -331 c 128
 694 -374 694 -374 620 -397 c 128
 546 -420 546 -420 451 -420 c 257
 368 -420 368 -420 299.5 -404.5 c 128
 231 -389 231 -389 164 -348 c 257
 224 -251 l 257
 272 -277 272 -277 324 -285 c 128
 376 -293 376 -293 433 -293 c 257
 482 -293 482 -293 526 -282 c 128
 570 -271 570 -271 603.5 -247 c 128
 637 -223 637 -223 656.5 -186 c 128
 676 -149 676 -149 676 -97 c 257
 676 -47 676 -47 652.5 -8 c 128
 629 31 629 31 590 64.5 c 128
 551 98 551 98 502 128.5 c 128
 453 159 453 159 401 191.5 c 128
 349 224 349 224 300 261.5 c 128
 251 299 251 299 212 345.5 c 128
 173 392 173 392 149.5 450.5 c 128
 126 509 126 509 126 585 c 257
 126 678 126 678 162 741 c 128
 198 804 198 804 259 842 c 257
 300 868 300 868 349 883 c 257
 333 895 333 895 318 907 c 257
 269 945 269 945 231 987.5 c 128
 193 1030 193 1030 169.5 1079.5 c 128
 146 1129 146 1129 146 1188 c 257
 146 1265 146 1265 173 1326.5 c 128
 200 1388 200 1388 251 1431 c 128
 302 1474 302 1474 376 1497 c 128
 450 1520 450 1520 545 1520 c 257
 627 1520 627 1520 696 1504.5 c 128
 765 1489 765 1489 832 1448 c 257
 772 1351 l 257
NamedP: "hr00"
385 767 m 257
 348 737 348 737 327 691.5 c 128
 306 646 306 646 306 587 c 257
 306 536 306 536 329.5 492.5 c 128
 353 449 353 449 391 410.5 c 128
 429 372 429 372 478 336 c 257
 508 314 508 314 540 291 c 257
 580 307 580 307 611 332 c 257
 648 363 648 363 669 408.5 c 128
 690 454 690 454 690 513 c 257
 690 564 690 564 666.5 607.5 c 128
 643 651 643 651 605 689.5 c 128
 567 728 567 728 518 763 c 257
 487 786 487 786 455 808 c 257
 416 793 416 793 385 767 c 257
EndSplineSet
PickledDataWithLists: "(dp0
Vcom.adobe.type.autohint
p1
(c_codecs
encode
p2
(Vdata
p3
Vlatin1
p4
tp5
Rp6
g2
(V<data>\\u000a        <hintSetList>\\u000a          <hintset pointTag=\"hr00\">\\u000a            <hstem pos=\"-420\" width=\"127\"/>\\u000a            <hstem pos=\"186\" width=\"85\"/>\\u000a            <hstem pos=\"829\" width=\"85\"/>\\u000a            <hstem pos=\"1393\" width=\"127\"/>\\u000a            <vstem pos=\"126\" width=\"180\"/>\\u000a            <vstem pos=\"676\" width=\"174\"/>\\u000a          </hintset>\\u000a        </hintSetList>\\u000a      </data>
p7
g4
tp8
Rp9
Ntp10
sVcom.typemytype.robofont.guides
p11
(lp12
(dp13
Vangle
p14
I90
sVisGlobal
p15
I00
sVmagnetic
p16
I5
sVx
p17
I850
sVy
p18
I0
sas."
EndChar
StartChar: copyright
Encoding: 210 169 210
GlifName: copyright
Width: 1100
VWidth: 0
Flags: W
LayerCount: 2
Fore
SplineSet
550 1517 m 256
 356 1517 356 1517 218 1379 c 0
 80 1241 80 1241 80 1047 c 256
 80 852 80 852 218 714.5 c 0
 356 577 356 577 550 577 c 256
 744 577 744 577 882 714.5 c 0
 1020 852 1020 852 1020 1047 c 256
 1020 1241 1020 1241 882 1379 c 0
 744 1517 744 1517 550 1517 c 256
550 663 m 256
 392 663 392 663 279 777 c 0
 166 891 166 891 166 1047 c 256
 166 1206 166 1206 278.5 1318.5 c 0
 391 1431 391 1431 550 1431 c 256
 709 1431 709 1431 821.5 1318.5 c 0
 934 1206 934 1206 934 1047 c 256
 934 889 934 889 820 776 c 0
 706 663 706 663 550 663 c 256
EndSplineSet
Refer: 176 99 N 0.5 0 0 0.45 256 802 2
EndChar
StartChar: logicalnot
Encoding: 341 172 341
GlifName: logicalnot
Width: 1700
VWidth: 0
Flags: W
LayerCount: 2
Fore
SplineSet
212 800 m 257
 212 640 l 257
 1216 640 l 257
 1200 449 l 257
 1200 280 l 257
 1400 280 l 257
 1400 589 l 257
 1417 800 l 257
 212 800 l 257
EndSplineSet
EndChar
StartChar: plusminus
Encoding: 427 177 427
GlifName: plusminus
Width: 1200
VWidth: 0
Flags: W
LayerCount: 2
Fore
SplineSet
100 862 m 257
 473 862 l 257
 473 1199 l 257
 628 1199 l 257
 628 862 l 257
 1000 862 l 257
 1000 738 l 257
 628 738 l 257
 628 400 l 257
 473 400 l 257
 473 738 l 257
 100 738 l 257
 100 862 l 257
100 290 m 257
NamedP: "hr01"
 1000 290 l 257
 1000 150 l 257
 100 150 l 257
 100 290 l 257
NamedP: "hr01"
EndSplineSet
PickledDataWithLists: "(dp0
Vcom.adobe.type.autohint
p1
(c_codecs
encode
p2
(Vdata
p3
Vlatin1
p4
tp5
Rp6
g2
(V<data>\\u000a        <hintSetList>\\u000a          <hintset pointTag=\"hr01\">\\u000a            <hstem pos=\"-261\" width=\"-19\"/>\\u000a            <hstem pos=\"56\" width=\"139\"/>\\u000a            <hstem pos=\"531\" width=\"-18\"/>\\u000a            <vstem pos=\"472\" width=\"155\"/>\\u000a          </hintset>\\u000a        </hintSetList>\\u000a      </data>
p7
g4
tp8
Rp9
Ntp10
s."
EndChar
StartChar: threesuperior
Encoding: 526 179 526
GlifName: threesuperior
Width: 600
VWidth: 0
Flags: W
LayerCount: 2
Fore
SplineSet
107 1390 m 257
NamedP: "hr00"
 115 1470 l 257
 480 1470 l 257
 480 1400 l 257
 474 1380 474 1380 459.5 1358 c 128
 445 1336 445 1336 426 1314 c 128
 407 1292 407 1292 384 1270.5 c 128
 361 1249 361 1249 338 1229 c 257
 272 1192 l 257
 277 1193 277 1193 285 1193.5 c 128
 293 1194 293 1194 300 1194 c 257
 348 1194 348 1194 390 1182 c 128
 432 1170 432 1170 462.5 1145.5 c 128
 493 1121 493 1121 511 1084 c 128
 529 1047 529 1047 529 996 c 257
 529 948 529 948 511 908.5 c 128
 493 869 493 869 461.5 838 c 128
 430 807 430 807 388 785 c 128
 346 763 346 763 298.5 748.5 c 128
 251 734 251 734 200 727 c 128
 149 720 149 720 100 720 c 257
 100 800 l 257
 141 801 141 801 181 807 c 128
 221 813 221 813 257 824 c 128
 293 835 293 835 323.5 850.5 c 128
 354 866 354 866 376.5 886.5 c 128
 399 907 399 907 411.5 933 c 128
 424 959 424 959 424 991 c 257
 424 1027 424 1027 408.5 1051 c 128
 393 1075 393 1075 366.5 1089 c 128
 340 1103 340 1103 304.5 1109 c 128
 269 1115 269 1115 228 1115 c 257
 212 1115 212 1115 193 1114 c 128
 174 1113 174 1113 159 1112 c 257
 159 1190 l 257
 180 1205 180 1205 204 1224 c 128
 228 1243 228 1243 252.5 1263.5 c 128
 277 1284 277 1284 300 1305.5 c 128
 323 1327 323 1327 342 1346 c 128
 361 1365 361 1365 374 1381.5 c 128
 387 1398 387 1398 391 1410 c 257
 315 1390 l 257
 107 1390 l 257
NamedP: "hr00"
EndSplineSet
PickledDataWithLists: "(dp0
Vcom.adobe.type.autohint
p1
(c_codecs
encode
p2
(Vdata
p3
Vlatin1
p4
tp5
Rp6
g2
(V<data>\\u000a        <hintSetList>\\u000a          <hintset pointTag=\"hr00\">\\u000a            <hstem pos=\"720\" width=\"80\"/>\\u000a            <hstem pos=\"1115\" width=\"79\"/>\\u000a            <hstem pos=\"1390\" width=\"80\"/>\\u000a            <vstem pos=\"424\" width=\"105\"/>\\u000a          </hintset>\\u000a        </hintSetList>\\u000a      </data>
p7
g4
tp8
Rp9
Ntp10
s."
EndChar
StartChar: acute
Encoding: 104 180 104
GlifName: acute
Width: 1100
VWidth: 0
Flags: W
LayerCount: 2
Fore
SplineSet
600 1500 m 257
NamedP: "hr00"
 830 1520 l 257
NamedP: "at01"
 590 1200 l 257
NamedP: "av01"
 440 1200 l 257
 600 1500 l 257
NamedP: "hr00"
EndSplineSet
PickledDataWithLists: "(dp0
Vcom.adobe.type.autohint
p1
(c_codecs
encode
p2
(Vdata
p3
Vlatin1
p4
tp5
Rp6
g2
(V<data>\\u000a        <hintSetList>\\u000a          <hintset pointTag=\"hr00\">\\u000a            <hstem pos=\"1221\" width=\"-21\"/>\\u000a            <hstem pos=\"1520\" width=\"-20\"/>\\u000a          </hintset>\\u000a        </hintSetList>\\u000a      </data>
p7
g4
tp8
Rp9
Ntp10
sVcom.fontlab.ttprogram
p11
(g2
(Vdata
p12
g4
tp13
Rp14
g2
(V<data>\\u000a        <ttProgram>\\u000a          <ttc align=\"round\" code=\"alignv\" point=\"av01\"/>\\u000a          <ttc code=\"alignt\" point=\"at01\" zone=\"t: 1\"/>\\u000a        </ttProgram>\\u000a      </data>
p15
g4
tp16
Rp17
Ntp18
s."
EndChar
StartChar: mu
Encoding: 354 181 354
GlifName: mu
Width: 1300
VWidth: 0
Flags: W
LayerCount: 2
Fore
SplineSet
1177 150 m 257
 1129 133 1129 133 1086 133 c 256
 1033 133 1033 133 1005.5 184 c 0
 978 235 978 235 978 352 c 258
 978 1118 l 257
 800 1100 l 257
 800 241 l 257
 666 133 666 133 569 133 c 256
 477 133 477 133 428.5 196 c 0
 380 259 380 259 380 348 c 258
 380 1118 l 257
 200 1100 l 257
 200 -500 l 257
 380 -500 l 257
 380 -166 l 257
 335 25 l 257
 383 -17 383 -17 518 -17 c 256
 611 -17 611 -17 684 11 c 0
 757 39 757 39 800 86 c 257
 825 155 l 257
 848 71 848 71 911.5 27 c 0
 975 -17 975 -17 1068 -17 c 256
 1116 -17 1116 -17 1169.5 0 c 0
 1223 17 1223 17 1242 36 c 257
 1177 150 l 257
EndSplineSet
EndChar
StartChar: paragraph
Encoding: 400 182 400
GlifName: paragraph
Width: 1400
VWidth: 0
Flags: W
LayerCount: 2
Fore
SplineSet
730 -400 m 257
NamedP: "hr00"
 899 -400 l 257
 899 1348 l 257
 1033 1348 l 257
 1033 -400 l 257
 1202 -400 l 257
 1202 1500 l 257
 730 1500 l 257
 669 1496 669 1496 610 1482.5 c 0
 551 1469 551 1469 491.5 1439 c 0
 432 1409 432 1409 387.5 1366.5 c 0
 343 1324 343 1324 315 1258.5 c 0
 287 1193 287 1193 287 1112 c 256
 287 1046 287 1046 295 994 c 0
 303 942 303 942 325 885.5 c 0
 347 829 347 829 392.5 782 c 0
 438 735 438 735 507 702 c 256
 606 653 606 653 730 647 c 257
 730 -400 l 257
NamedP: "hr00"
EndSplineSet
PickledDataWithLists: "(dp0
Vcom.adobe.type.autohint
p1
(c_codecs
encode
p2
(Vdata
p3
Vlatin1
p4
tp5
Rp6
g2
(V<data>\\u000a        <hintSetList>\\u000a          <hintset pointTag=\"hr00\">\\u000a            <hstem pos=\"-379\" width=\"-21\"/>\\u000a            <hstem pos=\"1348\" width=\"152\"/>\\u000a            <vstem pos=\"730\" width=\"169\"/>\\u000a            <vstem pos=\"1033\" width=\"169\"/>\\u000a          </hintset>\\u000a        </hintSetList>\\u000a      </data>
p7
g4
tp8
Rp9
Ntp10
s."
EndChar
StartChar: onesuperior
Encoding: 391 185 391
GlifName: onesuperior
Width: 600
VWidth: 0
Flags: W
LayerCount: 2
Fore
SplineSet
177 720 m 257
NamedP: "hr00"
 177 800 l 257
 299 800 l 257
 299 1283 l 257
 328 1396 l 257
 260 1303 l 257
 154 1209 l 257
 100 1270 l 257
 329 1480 l 257
 404 1470 l 257
 404 800 l 257
 527 800 l 257
 527 720 l 257
 177 720 l 257
NamedP: "hr00"
EndSplineSet
PickledDataWithLists: "(dp0
Vcom.adobe.type.autohint
p1
(c_codecs
encode
p2
(Vdata
p3
Vlatin1
p4
tp5
Rp6
g2
(V<data>\\u000a        <hintSetList>\\u000a          <hintset pointTag=\"hr00\">\\u000a            <hstem pos=\"720\" width=\"80\"/>\\u000a            <hstem pos=\"1480\" width=\"-10\"/>\\u000a            <vstem pos=\"299\" width=\"105\"/>\\u000a          </hintset>\\u000a        </hintSetList>\\u000a      </data>
p7
g4
tp8
Rp9
Ntp10
s."
EndChar
StartChar: ordmasculine
Encoding: 394 186 394
GlifName: ordmasculine
Width: 800
VWidth: 0
Flags: W
LayerCount: 2
Fore
SplineSet
100 800 m 257
 500 800 l 257
 500 700 l 257
 100 700 l 257
 100 800 l 257
EndSplineSet
Refer: 373 111 N 0.5 0 0 0.5 0 959 2
EndChar
StartChar: onequarter
Encoding: 388 188 388
GlifName: onequarter
Width: 1500
VWidth: 0
Flags: W
LayerCount: 2
Fore
SplineSet
454 0 m 257
 319 0 l 257
 1094 1500 l 257
 1220 1500 l 257
 454 0 l 257
175 720 m 257
NamedP: "hr01"
 175 800 l 257
 297 800 l 257
 297 1283 l 257
 326 1396 l 257
 258 1303 l 257
 152 1209 l 257
 98 1270 l 257
 327 1480 l 257
 402 1470 l 257
 402 800 l 257
 525 800 l 257
 525 720 l 257
 175 720 l 257
NamedP: "hr01"
1395 150 m 257
NamedP: "hr02"
 1305 150 l 257
 1305 0 l 257
 1200 0 l 257
 1200 150 l 257
 903 150 l 257
 903 235 l 257
 1145 760 l 257
 1239 750 l 257
 1032 300 l 257
 985 230 l 257
 1200 230 l 257
 1200 433 l 257
 1305 425 l 257
 1305 230 l 257
 1403 230 l 257
 1395 150 l 257
NamedP: "hr02"
EndSplineSet
PickledDataWithLists: "(dp0
Vcom.adobe.type.autohint
p1
(c_codecs
encode
p2
(Vdata
p3
Vlatin1
p4
tp5
Rp6
g2
(V<data>\\u000a        <hintSetList>\\u000a          <hintset pointTag=\"hr01\">\\u000a            <hstem pos=\"720\" width=\"80\"/>\\u000a            <hstem pos=\"1480\" width=\"-10\"/>\\u000a            <vstem pos=\"297\" width=\"105\"/>\\u000a          </hintset>\\u000a          <hintset pointTag=\"hr02\">\\u000a            <hstem pos=\"10\" width=\"-10\"/>\\u000a            <hstem pos=\"150\" width=\"80\"/>\\u000a            <hstem pos=\"760\" width=\"-10\"/>\\u000a            <vstem pos=\"1200\" width=\"105\"/>\\u000a          </hintset>\\u000a        </hintSetList>\\u000a      </data>
p7
g4
tp8
Rp9
Ntp10
s."
EndChar
StartChar: onehalf
Encoding: 386 189 386
GlifName: onehalf
Width: 1500
VWidth: 0
Flags: W
LayerCount: 2
Fore
SplineSet
454 0 m 257
 319 0 l 257
 1094 1500 l 257
 1220 1500 l 257
 454 0 l 257
175 720 m 257
 175 800 l 257
 297 800 l 257
 297 1283 l 257
 326 1396 l 257
 258 1303 l 257
 152 1209 l 257
 98 1270 l 257
 327 1480 l 257
 402 1470 l 257
 402 800 l 257
 525 800 l 257
 525 720 l 257
 175 720 l 257
949 0 m 257
NamedP: "hr01"
 949 84 l 257
 973 122 973 122 1000.5 158.5 c 128
 1028 195 1028 195 1056.5 229.5 c 128
 1085 264 1085 264 1112.5 294.5 c 128
 1140 325 1140 325 1163 351 c 257
 1188 379 1188 379 1211 403.5 c 128
 1234 428 1234 428 1251.5 452.5 c 128
 1269 477 1269 477 1279.5 502.5 c 128
 1290 528 1290 528 1290 557 c 257
 1290 581 1290 581 1281 602.5 c 128
 1272 624 1272 624 1256 639.5 c 128
 1240 655 1240 655 1217.5 664.5 c 128
 1195 674 1195 674 1168 674 c 257
 1137 674 1137 674 1115 665.5 c 128
 1093 657 1093 657 1076 643.5 c 128
 1059 630 1059 630 1047 613.5 c 128
 1035 597 1035 597 1024 580 c 257
 954 610 l 257
 967 642 967 642 987 669.5 c 128
 1007 697 1007 697 1034.5 716.5 c 128
 1062 736 1062 736 1097 747 c 128
 1132 758 1132 758 1175 758 c 257
 1226 758 1226 758 1265.5 740 c 128
 1305 722 1305 722 1332 693 c 128
 1359 664 1359 664 1373.5 627 c 128
 1388 590 1388 590 1388 552 c 257
 1388 513 1388 513 1373.5 478.5 c 128
 1359 444 1359 444 1338 412.5 c 128
 1317 381 1317 381 1292.5 353.5 c 128
 1268 326 1268 326 1247 302 c 257
 1221 272 1221 272 1195 242.5 c 128
 1169 213 1169 213 1145.5 184.5 c 128
 1122 156 1122 156 1101.5 130 c 128
 1081 104 1081 104 1066 80 c 257
 1401 80 l 257
 1401 0 l 257
 949 0 l 257
NamedP: "hr01"
EndSplineSet
PickledDataWithLists: "(dp0
Vcom.adobe.type.autohint
p1
(c_codecs
encode
p2
(Vdata
p3
Vlatin1
p4
tp5
Rp6
g2
(V<data>\\u000a        <hintSetList>\\u000a          <hintset pointTag=\"hr01\">\\u000a            <hstem pos=\"0\" width=\"80\"/>\\u000a            <hstem pos=\"674\" width=\"84\"/>\\u000a            <vstem pos=\"1290\" width=\"98\"/>\\u000a          </hintset>\\u000a        </hintSetList>\\u000a      </data>
p7
g4
tp8
Rp9
Ntp10
s."
EndChar
StartChar: AE
Encoding: 2 198 2
GlifName: A_E_
Width: 1700
VWidth: 0
Flags: W
LayerCount: 2
Fore
SplineSet
990 160 m 257
 1000 340 l 257
 1000 740 l 257
 1539 740 l 257
 1539 885 l 257
 1000 885 l 257
 1000 1149 l 257
 978 1340 l 257
 1610 1340 l 257
 1610 1500 l 257
 619 1500 l 257
 575 1300 l 257
 50 0 l 257
 257 0 l 257
 437 450 l 257
 791 450 l 257
 791 200 l 257
 775 0 l 257
 1625 0 l 257
 1645 160 l 257
 990 160 l 257
498 599 m 257
 697 1099 l 257
 770 1340 l 257
 791 1106 l 257
 791 599 l 257
 498 599 l 257
EndSplineSet
EndChar
StartChar: Eth
Encoding: 26 208 26
GlifName: E_th
Width: 1300
VWidth: 0
Flags: W
LayerCount: 2
Fore
SplineSet
0 855 m 257
NamedP: "hr00"
 200 855 l 257
 200 1290 l 257
 170 1500 l 257
 201 1503 201 1503 244 1505 c 128
 287 1507 287 1507 332.5 1508.5 c 128
 378 1510 378 1510 422.5 1510.5 c 128
 467 1511 467 1511 500 1511 c 257
 659 1511 659 1511 794.5 1472 c 128
 930 1433 930 1433 1029 1348 c 128
 1128 1263 1128 1263 1184 1130 c 128
 1240 997 1240 997 1240 810 c 257
 1240 664 1240 664 1212 547.5 c 128
 1184 431 1184 431 1134.5 341 c 128
 1085 251 1085 251 1015.5 186.5 c 128
 946 122 946 122 862.5 80.5 c 128
 779 39 779 39 685 19.5 c 128
 591 0 591 0 491 0 c 257
 200 0 l 257
 200 700 l 257
 0 700 l 257
 0 855 l 257
NamedP: "hr00"
410 1150 m 257
 410 855 l 257
 600 855 l 257
 600 700 l 257
 410 700 l 257
 410 160 l 257
 430 160 l 257
 575 160 575 160 676 190 c 128
 777 220 777 220 843.5 269.5 c 128
 910 319 910 319 947.5 383.5 c 128
 985 448 985 448 1003.5 517 c 128
 1022 586 1022 586 1026 654 c 128
 1030 722 1030 722 1030 780 c 257
 1030 907 1030 907 1008 1013.5 c 128
 986 1120 986 1120 927 1196.5 c 128
 868 1273 868 1273 762.5 1315.5 c 128
 657 1358 657 1358 491 1358 c 257
 475 1358 475 1358 457 1357 c 128
 439 1356 439 1356 423 1354 c 257
 405 1352 405 1352 385 1350 c 257
 410 1150 l 257
EndSplineSet
PickledDataWithLists: "(dp0
Vcom.adobe.type.autohint
p1
(c_codecs
encode
p2
(Vdata
p3
Vlatin1
p4
tp5
Rp6
g2
(V<data>\\u000a        <hintSetList>\\u000a          <hintset pointTag=\"hr00\">\\u000a            <hstem pos=\"0\" width=\"160\"/>\\u000a            <hstem pos=\"500\" width=\"155\"/>\\u000a            <hstem pos=\"1358\" width=\"153\"/>\\u000a            <vstem pos=\"200\" width=\"210\"/>\\u000a            <vstem pos=\"1030\" width=\"210\"/>\\u000a          </hintset>\\u000a        </hintSetList>\\u000a      </data>
p7
g4
tp8
Rp9
Ntp10
s."
EndChar
StartChar: multiply
Encoding: 356 215 356
GlifName: multiply
Width: 1600
VWidth: 0
Flags: W
LayerCount: 2
Fore
SplineSet
1375 1052 m 257
 1251 1153 l 257
 876 777 l 257
 858 679 l 257
 800 777 l 257
 425 1153 l 257
 300 1052 l 257
 726 627 l 257
 300 203 l 257
 425 102 l 257
 800 477 l 257
 818 576 l 257
 876 477 l 257
 1251 102 l 257
 1375 203 l 257
 950 627 l 257
 1375 1052 l 257
EndSplineSet
EndChar
StartChar: ccedilla
Encoding: 180 231 180
GlifName: ccedilla
Width: 1042
VWidth: 0
Flags: W
LayerCount: 2
Fore
SplineSet
664 0 m 257
 673 -10 673 -10 687 -28 c 0
 701 -46 701 -46 724 -98 c 0
 747 -150 747 -150 747 -198 c 256
 747 -285 747 -285 680 -346 c 0
 613 -407 613 -407 523 -407 c 256
 465 -407 465 -407 399.5 -384.5 c 0
 334 -362 334 -362 298 -340 c 0
 262 -318 l 257
 333 -218 l 257
 343 -225 343 -225 360 -235 c 0
 377 -245 377 -245 421 -262 c 0
 465 -279 465 -279 499 -279 c 256
 537 -279 537 -279 565.5 -254 c 0
 594 -229 594 -229 594 -189 c 256
 594 -150 594 -150 567.5 -102.5 c 0
 541 -55 541 -55 514.5 -27.5 c 0
 488 0 l 257
 664 0 l 257
EndSplineSet
Refer: 176 99 N 1 0 0 1 -6 0 2
EndChar
StartChar: divide
Encoding: 224 247 224
GlifName: divide
Width: 1100
VWidth: 0
Flags: W
LayerCount: 2
Fore
SplineSet
441 307 m 257
NamedP: "hr00"
 441 329 441 329 449.5 348.5 c 128
 458 368 458 368 473 383 c 128
 488 398 488 398 507.5 406.5 c 128
 527 415 527 415 549 415 c 257
 571 415 571 415 590.5 406.5 c 128
 610 398 610 398 625 383 c 128
 640 368 640 368 648.5 348.5 c 128
 657 329 657 329 657 307 c 257
 657 285 657 285 648.5 265 c 128
 640 245 640 245 625.5 230 c 128
 611 215 611 215 591.5 206 c 128
 572 197 572 197 550 197 c 257
 528 197 528 197 508 206 c 128
 488 215 488 215 473 230 c 128
 458 245 458 245 449.5 265 c 128
 441 285 441 285 441 307 c 257
NamedP: "hr00"
441 920 m 257
 441 942 441 942 449.5 961.5 c 128
 458 981 458 981 473 996 c 128
 488 1011 488 1011 507.5 1019.5 c 128
 527 1028 527 1028 549 1028 c 257
 571 1028 571 1028 590.5 1019.5 c 128
 610 1011 610 1011 625 996 c 128
 640 981 640 981 648.5 961.5 c 128
 657 942 657 942 657 920 c 257
 657 898 657 898 648.5 878 c 128
 640 858 640 858 625.5 843 c 128
 611 828 611 828 591.5 819 c 128
 572 810 572 810 550 810 c 257
 528 810 528 810 508 819 c 128
 488 828 488 828 473 843 c 128
 458 858 458 858 449.5 878 c 128
 441 898 441 898 441 920 c 257
EndSplineSet
Refer: 349 8722 N 1 0 0 1 0 0 2
PickledDataWithLists: "(dp0
Vcom.adobe.type.autohint
p1
(c_codecs
encode
p2
(Vdata
p3
Vlatin1
p4
tp5
Rp6
g2
(V<data>\\u000a        <hintSetList>\\u000a          <hintset pointTag=\"hr00\">\\u000a            <hstem pos=\"283\" width=\"218\"/>\\u000a            <hstem pos=\"783\" width=\"218\"/>\\u000a            <vstem pos=\"41\" width=\"216\"/>\\u000a          </hintset>\\u000a        </hintSetList>\\u000a      </data>
p7
g4
tp8
Rp9
Ntp10
s."
EndChar
StartChar: oslash
Encoding: 395 248 395
GlifName: oslash
Width: 1200
VWidth: 0
Flags: W
LayerCount: 2
Fore
SplineSet
311 -100 m 257
 101 -100 l 257
 901 1209 l 257
 1101 1209 l 257
 311 -100 l 257
EndSplineSet
Refer: 373 111 N 1 0 0 1 0 0 2
EndChar
StartChar: oe
Encoding: 377 339 377
GlifName: oe
Width: 1900
VWidth: 0
Flags: W
LayerCount: 2
Fore
SplineSet
1096 631 m 257
 1221 650 l 257
 1586 650 l 257
 1588 680 1588 680 1588 694 c 256
 1588 813 1588 813 1533.5 885.5 c 0
 1479 958 1479 958 1371 958 c 256
 1308 958 1308 958 1257.5 937 c 0
 1207 916 1207 916 1175.5 880.5 c 0
 1144 845 1144 845 1125.5 809 c 0
 1107 773 1107 773 1095 732 c 257
 1043 623 l 257
 1096 631 l 257
896 572 m 256
 896 634 896 634 887.5 688.5 c 0
 879 743 879 743 857 794 c 0
 835 845 835 845 801.5 881.5 c 0
 768 918 768 918 715.5 940 c 0
 663 962 663 962 595 962 c 256
 518 962 518 962 457.5 929 c 0
 397 896 397 896 361.5 840.5 c 0
 326 785 326 785 308 716.5 c 0
 290 648 290 648 290 572 c 256
 290 505 290 505 300 443.5 c 0
 310 382 310 382 333.5 325.5 c 0
 357 269 357 269 391.5 228 c 0
 426 187 426 187 478 162.5 c 0
 530 138 530 138 594 138 c 256
 675 138 675 138 735.5 174.5 c 0
 796 211 796 211 830 274.5 c 0
 864 338 864 338 880 412 c 0
 896 486 896 486 896 572 c 256
1356 1117 m 256
 1563 1117 1563 1117 1669.5 989 c 0
 1776 861 1776 861 1776 638 c 256
 1776 570 1776 570 1768 500 c 257
 1076 500 l 257
 1076 450 1076 450 1085 403 c 256
 1109 286 1109 286 1182.5 214.5 c 0
 1256 143 1256 143 1361 143 c 256
 1527 143 1527 143 1643 225 c 257
 1752 129 l 257
 1611 -17 1611 -17 1381 -17 c 256
 1148 -17 1148 -17 1018 133 c 257
 986 215 l 257
 954 136 l 257
 817 -17 817 -17 599 -17 c 256
 454 -17 454 -17 339.5 58 c 0
 225 133 225 133 162.5 263 c 0
 100 393 100 393 100 553 c 256
 100 799 100 799 237 958 c 0
 374 1117 374 1117 599 1117 c 256
 813 1117 813 1117 954 963 c 257
 985 885 l 257
 1018 961 l 257
 1074 1036 1074 1036 1163 1076.5 c 0
 1252 1117 1252 1117 1356 1117 c 256
EndSplineSet
EndChar
StartChar: circumflex
Encoding: 194 710 194
GlifName: circumflex
Width: 1100
VWidth: 0
Flags: W
LayerCount: 2
Fore
SplineSet
780 1220 m 257
NamedP: "av01"
 630 1220 l 257
 530 1372 l 257
 500 1460 l 257
NamedP: "iv01"
 470 1373 l 257
 369 1220 l 257
NamedP: "av02"
 219 1220 l 257
 395 1500 l 257
 595 1520 l 257
NamedP: "at01"
 780 1220 l 257
NamedP: "av01"
EndSplineSet
PickledDataWithLists: "(dp0
Vcom.adobe.type.autohint
p1
(c_codecs
encode
p2
(Vdata
p3
Vlatin1
p4
tp5
Rp6
g2
(V<data>\\u000a        <hintSetList>\\u000a          <hintset pointTag=\"av01\">\\u000a            <hstem pos=\"1241\" width=\"-21\"/>\\u000a            <hstem pos=\"1520\" width=\"-20\"/>\\u000a          </hintset>\\u000a        </hintSetList>\\u000a      </data>
p7
g4
tp8
Rp9
Ntp10
sVcom.fontlab.ttprogram
p11
(g2
(Vdata
p12
g4
tp13
Rp14
g2
(V<data>\\u000a        <ttProgram>\\u000a          <ttc align=\"round\" code=\"alignv\" point=\"av01\"/>\\u000a          <ttc align=\"round\" code=\"alignv\" point=\"av02\"/>\\u000a          <ttc code=\"alignt\" point=\"at01\" zone=\"t: 1\"/>\\u000a          <ttc code=\"interpolatev\" point=\"iv01\" point1=\"av01\" point2=\"at01\"/>\\u000a        </ttProgram>\\u000a      </data>
p15
g4
tp16
Rp17
Ntp18
s."
EndChar
StartChar: dotaccent
Encoding: 227 729 227
GlifName: dotaccent
Width: 600
VWidth: 0
Flags: W
LayerCount: 2
Fore
SplineSet
194 1500 m 257
 396 1500 l 257
 396 1300 l 257
 194 1300 l 257
 194 1500 l 257
EndSplineSet
EndChar
StartChar: ring
Encoding: 461 730 461
GlifName: ring
Width: 1100
VWidth: 0
Flags: W
LayerCount: 2
Fore
SplineSet
500 1634 m 256
 598 1634 598 1634 667.5 1564.5 c 0
 737 1495 737 1495 737 1397 c 256
 737 1298 737 1298 668.5 1227 c 0
 600 1156 600 1156 502 1156 c 256
 404 1156 404 1156 333 1227.5 c 0
 262 1299 262 1299 262 1397 c 256
 262 1495 262 1495 332 1564.5 c 0
 402 1634 402 1634 500 1634 c 256
501 1273 m 256
 551 1273 551 1273 586 1309 c 0
 621 1345 621 1345 621 1396 c 256
 621 1446 621 1446 585.5 1481.5 c 0
 550 1517 550 1517 500 1517 c 256
 450 1517 450 1517 414.5 1481.5 c 0
 379 1446 379 1446 379 1396 c 256
 379 1346 379 1346 415 1309.5 c 0
 451 1273 451 1273 501 1273 c 256
EndSplineSet
EndChar
StartChar: hungarumlaut
Encoding: 308 733 308
GlifName: hungarumlaut
Width: 1100
VWidth: 0
Flags: W
LayerCount: 2
Fore
SplineSet
156 1117 m 257
 306 1117 l 257
 608 1520 l 257
 378 1500 l 257
 156 1117 l 257
519 1117 m 257
 669 1117 l 257
 971 1520 l 257
 741 1500 l 257
 519 1117 l 257
EndSplineSet
EndChar
StartChar: Theta
Encoding: 80 920 80
GlifName: T_heta
Width: 1600
VWidth: 0
Flags: W
LayerCount: 2
Fore
SplineSet
520 835 m 257
NamedP: "hr00"
 1100 835 l 257
 1080 665 l 257
 500 665 l 257
 520 835 l 257
NamedP: "hr00"
EndSplineSet
Refer: 53 79 N 1 0 0 1 0 0 2
PickledDataWithLists: "(dp0
Vcom.adobe.type.autohint
p1
(c_codecs
encode
p2
(Vdata
p3
Vlatin1
p4
tp5
Rp6
g2
(V<data>\\u000a        <hintSetList>\\u000a          <hintset pointTag=\"hr00\">\\u000a            <hstem pos=\"675\" width=\"150\"/>\\u000a          </hintset>\\u000a        </hintSetList>\\u000a      </data>
p7
g4
tp8
Rp9
Ntp10
s."
EndChar
StartChar: Xi
Encoding: 95 926 95
GlifName: X_i
Width: 1200
VWidth: 0
Flags: W
LayerCount: 2
Fore
SplineSet
200 711 m 257
 1000 711 l 257
 1000 885 l 257
 200 885 l 257
 200 711 l 257
100 0 m 257
 1100 0 l 257
 1100 174 l 257
 100 174 l 257
 100 0 l 257
100 1326 m 257
 1100 1326 l 257
 1100 1500 l 257
 100 1500 l 257
 100 1326 l 257
EndSplineSet
EndChar
StartChar: Phi
Encoding: 66 934 66
GlifName: P_hi
Width: 1400
VWidth: 0
Flags: W
LayerCount: 2
Fore
SplineSet
600 204 m 257
NamedP: "av03"
 529 213 529 213 462 233 c 257
 348 268 348 268 261 336.5 c 128
 174 405 174 405 122.5 508.5 c 128
 71 612 71 612 71 750 c 257
NamedP: "sh02"
 71 888 71 888 122.5 991 c 128
 174 1094 174 1094 261 1163 c 128
 348 1232 348 1232 462 1266 c 257
 529 1287 529 1287 600 1295 c 257
NamedP: "av02"
 600 1500 l 257
NamedP: "sh03"
 799 1520 l 257
NamedP: "at01"
 799 1295 l 257
NamedP: "av01"
 870 1287 870 1287 938 1266 c 257
 1052 1232 1052 1232 1139.5 1163 c 128
 1227 1094 1227 1094 1279 991 c 128
 1331 888 1331 888 1331 750 c 257
NamedP: "sh06"
 1331 612 1331 612 1279 508.5 c 128
 1227 405 1227 405 1140 336.5 c 128
 1053 268 1053 268 939 233 c 257
 871 213 871 213 799 204 c 257
NamedP: "av04"
 799 0 l 257
 600 0 l 257
NamedP: "sh07"
 600 204 l 257
NamedP: "av03"
867 1123 m 257
 833 1133 833 1133 799 1139 c 257
NamedP: "sv01"
 799 361 l 257
NamedP: "sh04"
 832 366 832 366 865 376 c 257
 946 399 946 399 1010 448 c 128
 1074 497 1074 497 1113 571.5 c 128
 1152 646 1152 646 1152 750 c 257
NamedP: "sh05"
 1152 853 1152 853 1113.5 928 c 128
 1075 1003 1075 1003 1012 1051.5 c 128
 949 1100 949 1100 867 1123 c 257
535 376 m 257
 567 367 567 367 600 361 c 257
NamedP: "ah01"
 600 1139 l 257
NamedP: "ah02"
 566 1133 566 1133 533 1123 c 257
 452 1100 452 1100 389 1051.5 c 128
 326 1003 326 1003 287.5 928 c 128
 249 853 249 853 249 750 c 257
NamedP: "sh01"
 249 646 249 646 288 571.5 c 128
 327 497 327 497 390.5 448 c 128
 454 399 454 399 535 376 c 257
EndSplineSet
PickledDataWithLists: "(dp0
Vcom.adobe.type.autohint
p1
(c_codecs
encode
p2
(Vdata
p3
Vlatin1
p4
tp5
Rp6
g2
(V<data>\\u000a        <hintSetList>\\u000a          <hintset pointTag=\"av03\">\\u000a            <hstem pos=\"199\" width=\"154\"/>\\u000a            <hstem pos=\"1147\" width=\"154\"/>\\u000a            <hstem pos=\"1520\" width=\"-20\"/>\\u000a            <vstem pos=\"71\" width=\"178\"/>\\u000a            <vstem pos=\"1152\" width=\"179\"/>\\u000a          </hintset>\\u000a        </hintSetList>\\u000a      </data>
p7
g4
tp8
Rp9
Ntp10
sVcom.fontlab.ttprogram
p11
(g2
(Vdata
p12
g4
tp13
Rp14
g2
(V<data>\\u000a        <ttProgram>\\u000a          <ttc align=\"round\" code=\"alignh\" point=\"ah01\"/>\\u000a          <ttc align=\"round\" code=\"alignh\" point=\"ah02\"/>\\u000a          <ttc code=\"singleh\" point1=\"ah02\" point2=\"sh01\" round=\"true\"/>\\u000a          <ttc code=\"singleh\" point1=\"sh01\" point2=\"sh02\" stem=\"X: 176\"/>\\u000a          <ttc code=\"singleh\" point1=\"ah01\" point2=\"sh03\"/>\\u000a          <ttc code=\"singleh\" point1=\"ah02\" point2=\"sh04\" stem=\"X: 199\"/>\\u000a          <ttc code=\"singleh\" point1=\"sh04\" point2=\"sh05\" round=\"true\"/>\\u000a          <ttc code=\"singleh\" point1=\"sh05\" point2=\"sh06\" stem=\"X: 176\"/>\\u000a          <ttc code=\"singleh\" point1=\"ah02\" point2=\"sh07\"/>\\u000a          <ttc align=\"round\" code=\"alignv\" point=\"av01\"/>\\u000a          <ttc align=\"round\" code=\"alignv\" point=\"av02\"/>\\u000a          <ttc align=\"round\" code=\"alignv\" point=\"av03\"/>\\u000a          <ttc align=\"round\" code=\"alignv\" point=\"av04\"/>\\u000a          <ttc code=\"alignt\" point=\"at01\" zone=\"t: 1\"/>\\u000a          <ttc code=\"alignb\" point=\"sh07\" zone=\"b: 0\"/>\\u000a          <ttc code=\"singlev\" point1=\"av01\" point2=\"sv01\" stem=\"Y: 153\"/>\\u000a          <ttc code=\"singlev\" point1=\"av04\" point2=\"sh04\" stem=\"Y: 153\"/>\\u000a          <ttc code=\"singlev\" point1=\"av03\" point2=\"ah01\" stem=\"Y: 153\"/>\\u000a          <ttc code=\"singlev\" point1=\"av02\" point2=\"ah02\" stem=\"Y: 153\"/>\\u000a        </ttProgram>\\u000a      </data>
p15
g4
tp16
Rp17
Ntp18
s."
EndChar
StartChar: Psi
Encoding: 67 936 67
GlifName: P_si
Width: 1400
VWidth: 0
Flags: W
LayerCount: 2
Fore
SplineSet
800 1520 m 257
 800 605 l 257
 853 608 853 608 895.5 616 c 0
 938 624 938 624 980.5 641.5 c 0
 1023 659 1023 659 1051.5 685.5 c 0
 1080 712 1080 712 1097.5 755 c 0
 1115 798 1115 798 1115 854 c 258
 1115 1500 l 257
 1320 1500 l 257
 1320 873 l 258
 1320 476 1320 476 800 437 c 257
 800 1 l 257
 600 1 l 257
 600 436 l 257
 489 445 489 445 397 477 c 0
 305 509 305 509 233 566.5 c 0
 161 624 161 624 120.5 715 c 0
 80 806 80 806 80 923 c 258
 80 1290 l 257
 50 1500 l 257
 285 1520 l 257
 285 904 l 258
 285 844 285 844 303.5 795.5 c 0
 322 747 322 747 352 715 c 0
 382 683 382 683 424 660 c 0
 466 637 466 637 508.5 625.5 c 0
 551 614 551 614 600 608 c 257
 600 1500 l 257
 800 1520 l 257
EndSplineSet
EndChar
StartChar: Omegagreek
Encoding: 60 937 60
GlifName: O_megagreek
Width: 1600
VWidth: 0
Flags: W
LayerCount: 2
Fore
SplineSet
102 160 m 257
NamedP: "hr00"
 300 160 l 257
 501 100 l 257
 257 299 l 257
 124 486 124 486 124 775 c 256
 124 996 124 996 202.5 1162.5 c 0
 281 1329 281 1329 435 1423 c 0
 589 1517 589 1517 800 1517 c 256
 955 1517 955 1517 1082.5 1463 c 0
 1210 1409 1210 1409 1296 1311.5 c 0
 1382 1214 1382 1214 1429 1076.5 c 0
 1476 939 1476 939 1476 775 c 256
 1476 491 1476 491 1349 304 c 257
 1099 100 l 257
 1299 160 l 257
 1497 160 l 257
 1497 0 l 257
 949 0 l 257
 949 200 l 257
 1093 263 1093 263 1180.5 408 c 0
 1268 553 1268 553 1268 744 c 256
 1268 842 1268 842 1252 929 c 0
 1236 1016 1236 1016 1200 1093.5 c 0
 1164 1171 1164 1171 1110 1226.5 c 0
 1056 1282 1056 1282 975 1314.5 c 0
 894 1347 894 1347 794 1347 c 256
 675 1347 675 1347 584 1303.5 c 0
 493 1260 493 1260 439 1184.5 c 0
 385 1109 385 1109 358.5 1014.5 c 0
 332 920 332 920 332 810 c 256
 332 591 332 591 418 430.5 c 0
 504 270 504 270 650 200 c 257
 650 0 l 257
 102 0 l 257
 102 160 l 257
NamedP: "hr00"
EndSplineSet
PickledDataWithLists: "(dp0
Vcom.adobe.type.autohint
p1
(c_codecs
encode
p2
(Vdata
p3
Vlatin1
p4
tp5
Rp6
g2
(V<data>\\u000a        <hintSetList>\\u000a          <hintset pointTag=\"hr00\">\\u000a            <hstem pos=\"0\" width=\"160\"/>\\u000a            <hstem pos=\"740\" width=\"145\"/>\\u000a            <hstem pos=\"1340\" width=\"160\"/>\\u000a            <vstem pos=\"-1147\" width=\"210\"/>\\u000a          </hintset>\\u000a        </hintSetList>\\u000a      </data>
p7
g4
tp8
Rp9
Ntp10
s."
EndChar
StartChar: gamma
Encoding: 290 947 290
GlifName: gamma
Width: 1100
VWidth: 0
Flags: W
LayerCount: 2
Fore
SplineSet
0 1117 m 257
 33 1117 33 1117 52 1116 c 0
 71 1115 71 1115 103.5 1110.5 c 0
 136 1106 136 1106 158 1094.5 c 0
 180 1083 180 1083 205.5 1064.5 c 0
 231 1046 231 1046 251.5 1014 c 0
 272 982 272 982 287 940 c 258
 498 364 l 257
 550 132 l 257
 602 364 l 257
 871 1100 l 257
 1051 1117 l 257
 643 -17 l 257
 643 -500 l 257
 451 -500 l 257
 451 -47 l 257
 118 869 l 258
 99 921 99 921 69.5 950.5 c 0
 40 980 40 980 20 983.5 c 0
 0 987 l 257
 0 1117 l 257
EndSplineSet
EndChar
StartChar: delta
Encoding: 220 948 220
GlifName: delta
Width: 1200
VWidth: 0
Flags: W
LayerCount: 2
Fore
SplineSet
600 127 m 256
 726 127 726 127 806 241 c 0
 886 355 886 355 886 526 c 257
 886 593 886 593 868.5 660.5 c 0
 851 728 851 728 818 787.5 c 0
 785 847 785 847 728.5 884 c 0
 672 921 672 921 603 921 c 256
 460 921 460 921 386 819.5 c 0
 312 718 312 718 312 526 c 257
 312 353 312 353 391 240 c 0
 470 127 470 127 600 127 c 256
960 1500 m 257
 917 1342 l 257
 565 1342 l 258
 488 1342 488 1342 447 1329.5 c 0
 406 1317 406 1317 406 1284 c 256
 406 1254 406 1254 462 1218 c 0
 518 1182 518 1182 613.5 1140.5 c 0
 709 1099 709 1099 723 1091 c 256
 855 1020 855 1020 935 946 c 0
 1015 872 1015 872 1057.5 768.5 c 0
 1100 665 1100 665 1100 526 c 257
 1100 384 1100 384 1033.5 259 c 0
 967 134 967 134 852 58.5 c 0
 737 -17 737 -17 604 -17 c 256
 497 -17 497 -17 403 31.5 c 0
 309 80 309 80 245.5 158.5 c 0
 182 237 182 237 145.5 337 c 0
 109 437 109 437 109 539 c 256
 109 611 109 611 124 678.5 c 0
 139 746 139 746 171 811 c 0
 203 876 203 876 261 929.5 c 0
 319 983 319 983 397 1015 c 257
 600 1015 l 257
 499 1059 l 257
 358 1106 358 1106 292.5 1156 c 0
 227 1206 227 1206 227 1289 c 256
 227 1331 227 1331 239.5 1364 c 0
 252 1397 252 1397 271.5 1419 c 0
 291 1441 291 1441 321.5 1456.5 c 0
 352 1472 352 1472 380.5 1480.5 c 0
 409 1489 409 1489 448.5 1493.5 c 0
 488 1498 488 1498 516.5 1499 c 0
 545 1500 545 1500 583 1500 c 258
 960 1500 l 257
EndSplineSet
EndChar
StartChar: epsilon
Encoding: 248 949 248
GlifName: epsilon
Width: 1000
VWidth: 0
Flags: W
LayerCount: 2
Fore
SplineSet
720 633 m 257
 700 500 l 257
 446 500 l 257
 372 500 372 500 316 445 c 0
 260 390 260 390 260 312 c 256
 260 234 260 234 331.5 185.5 c 0
 403 137 403 137 515 137 c 256
 559 137 559 137 600 143.5 c 0
 641 150 641 150 668 159.5 c 0
 695 169 695 169 715.5 178 c 0
 736 187 736 187 745.5 193.5 c 0
 755 200 l 257
 845 99 l 257
 841 94 841 94 833.5 86.5 c 0
 826 79 826 79 795.5 59 c 0
 765 39 765 39 727 23.5 c 0
 689 8 689 8 621.5 -4.5 c 0
 554 -17 554 -17 475 -17 c 256
 404 -17 404 -17 334 4 c 0
 264 25 264 25 204 64 c 0
 144 103 144 103 107 168 c 0
 70 233 70 233 70 313 c 256
 70 476 70 476 199 564 c 257
 70 648 70 648 70 810 c 256
 70 890 70 890 107 951.5 c 0
 144 1013 144 1013 204.5 1048 c 0
 265 1083 265 1083 333.5 1100 c 0
 402 1117 402 1117 475 1117 c 256
 542 1117 542 1117 611.5 1103.5 c 0
 681 1090 681 1090 717.5 1077 c 0
 754 1064 l 257
 698 944 l 257
 615 963 615 963 515 963 c 256
 405 963 405 963 332.5 913 c 0
 260 863 260 863 260 791 c 256
 260 727 260 727 315.5 680 c 0
 371 633 371 633 446 633 c 257
 720 633 l 257
EndSplineSet
EndChar
StartChar: iota
Encoding: 323 953 323
GlifName: iota
Width: 700
VWidth: 0
Flags: W
LayerCount: 2
Fore
SplineSet
200 902 m 257
NamedP: "hr00"
 180 1100 l 257
 390 1120 l 257
 390 389 l 257
 390 337 390 337 395 267.5 c 128
 400 198 400 198 428 163.5 c 128
 456 129 456 129 500 129 c 257
 522 129 522 129 533 130.5 c 128
 544 132 544 132 550 134 c 257
 619 8 l 257
 602 -1 602 -1 570 -9 c 128
 538 -17 538 -17 500 -17 c 257
 398 -17 398 -17 338.5 15 c 128
 279 47 279 47 248.5 103.5 c 128
 218 160 218 160 209 237 c 128
 200 314 200 314 200 403 c 257
 200 902 l 257
NamedP: "hr00"
EndSplineSet
PickledDataWithLists: "(dp0
Vcom.adobe.type.autohint
p1
(c_codecs
encode
p2
(Vdata
p3
Vlatin1
p4
tp5
Rp6
g2
(V<data>\\u000a        <hintSetList>\\u000a          <hintset pointTag=\"hr00\">\\u000a            <hstem pos=\"-15\" width=\"146\"/>\\u000a            <hstem pos=\"1120\" width=\"-20\"/>\\u000a            <vstem pos=\"200\" width=\"180\"/>\\u000a          </hintset>\\u000a        </hintSetList>\\u000a      </data>
p7
g4
tp8
Rp9
Ntp10
s."
EndChar
StartChar: kappa
Encoding: 327 954 327
GlifName: kappa
Width: 1000
VWidth: 0
Flags: W
LayerCount: 2
Fore
SplineSet
200 0 m 257
NamedP: "dh01"
 200 919 l 257
 180 1099 l 257
 380 1119 l 257
NamedP: "sh01"
 380 644 l 257
NamedP: "iv01"
 750 1100 l 257
 950 1121 l 257
NamedP: "av01"
 600 670 l 257
 446 600 l 257
NamedP: "iv02"
 600 530 l 257
 1000 0 l 257
NamedP: "ab01"
 800 0 l 257
 380 554 l 257
NamedP: "iv03"
 380 0 l 257
NamedP: "dh02"
 200 0 l 257
NamedP: "dh01"
EndSplineSet
PickledDataWithLists: "(dp0
Vcom.adobe.type.autohint
p1
(c_codecs
encode
p2
(Vdata
p3
Vlatin1
p4
tp5
Rp6
g2
(V<data>\\u000a        <hintSetList>\\u000a          <hintset pointTag=\"dh01\">\\u000a            <hstem pos=\"21\" width=\"-21\"/>\\u000a            <hstem pos=\"1121\" width=\"-20\"/>\\u000a            <vstem pos=\"200\" width=\"180\"/>\\u000a          </hintset>\\u000a        </hintSetList>\\u000a      </data>
p7
g4
tp8
Rp9
Ntp10
sVcom.fontlab.ttprogram
p11
(g2
(Vdata
p12
g4
tp13
Rp14
g2
(V<data>\\u000a        <ttProgram>\\u000a          <ttc code=\"doubleh\" point1=\"dh01\" point2=\"dh02\" stem=\"X: ecart du B\"/>\\u000a          <ttc code=\"singleh\" point1=\"dh02\" point2=\"sh01\"/>\\u000a          <ttc align=\"round\" code=\"alignv\" point=\"sh01\"/>\\u000a          <ttc align=\"round\" code=\"alignv\" point=\"av01\"/>\\u000a          <ttc code=\"alignb\" point=\"dh01\" zone=\"b: 0\"/>\\u000a          <ttc code=\"alignb\" point=\"ab01\" zone=\"b: 0\"/>\\u000a          <ttc code=\"interpolatev\" point=\"iv01\" point1=\"dh01\" point2=\"av01\"/>\\u000a          <ttc code=\"interpolatev\" point=\"iv02\" point1=\"dh01\" point2=\"av01\"/>\\u000a          <ttc code=\"interpolatev\" point=\"iv03\" point1=\"dh01\" point2=\"av01\"/>\\u000a        </ttProgram>\\u000a      </data>
p15
g4
tp16
Rp17
Ntp18
s."
EndChar
StartChar: nu
Encoding: 371 957 371
GlifName: nu
Width: 1200
VWidth: 0
Flags: W
LayerCount: 2
Fore
SplineSet
724 0 m 257
 1106 1100 l 257
 915 1100 l 257
 638 295 l 257
 590 75 l 257
 544 295 l 257
 267 1100 l 257
 74 1100 l 257
 457 0 l 257
 724 0 l 257
EndSplineSet
EndChar
StartChar: xi
Encoding: 581 958 581
GlifName: xi
Width: 1000
VWidth: 0
Flags: W
LayerCount: 2
Fore
SplineSet
400 30 m 257
 430 13 430 13 487 -16 c 0
 544 -45 544 -45 572.5 -62 c 0
 601 -79 601 -79 635.5 -105 c 0
 670 -131 670 -131 685 -159.5 c 0
 700 -188 700 -188 700 -222 c 256
 700 -305 700 -305 544 -386 c 257
 634 -517 l 257
 750 -465 750 -465 823 -382 c 0
 896 -299 896 -299 896 -203 c 256
 896 -160 896 -160 885.5 -124 c 0
 875 -88 875 -88 853 -58.5 c 0
 831 -29 831 -29 807 -6.5 c 0
 783 16 783 16 745 39.5 c 0
 707 63 707 63 676 79.5 c 0
 645 96 645 96 597 121 c 0
 549 146 549 146 517 164 c 257
 419 220 419 220 370 296 c 0
 321 372 321 372 321 447 c 256
 321 504 321 504 337.5 549 c 0
 354 594 354 594 380.5 624 c 0
 407 654 407 654 448 676 c 0
 489 698 489 698 528.5 710 c 0
 568 722 568 722 620.5 729 c 0
 673 736 673 736 713 737.5 c 0
 753 739 753 739 805 739 c 257
 830 885 l 257
 601 885 l 258
 572 885 572 885 534 898 c 0
 496 911 496 911 457.5 935.5 c 0
 419 960 419 960 393 1002.5 c 0
 367 1045 367 1045 367 1097 c 256
 367 1156 367 1156 396 1205 c 0
 425 1254 425 1254 468 1282.5 c 0
 511 1311 511 1311 555.5 1326.5 c 0
 600 1342 600 1342 637 1342 c 258
 900 1342 l 257
 921 1500 l 257
 438 1500 l 257
 376 1500 376 1500 343 1532 c 0
 310 1564 310 1564 310 1587 c 257
 115 1587 l 257
 115 1493 115 1493 191 1446.5 c 0
 267 1400 267 1400 400 1400 c 257
 300 1359 l 257
 181 1278 181 1278 181 1097 c 256
 181 960 181 960 300 847 c 257
 434 790 l 257
 300 778 l 257
 116 686 116 686 116 437 c 256
 116 366 116 366 142 300.5 c 0
 168 235 168 235 212 184 c 0
 256 133 256 133 302.5 96 c 0
 349 59 349 59 400 30 c 257
EndSplineSet
EndChar
StartChar: sigma
Encoding: 478 963 478
GlifName: sigma
Width: 1300
VWidth: 0
Flags: W
LayerCount: 2
Fore
SplineSet
100 551 m 257
NamedP: "hr00"
 100 663 100 663 129 766.5 c 128
 158 870 158 870 219 948.5 c 128
 280 1027 280 1027 374.5 1074 c 128
 469 1121 469 1121 600 1121 c 257
 1200 1121 l 257
 1200 981 l 257
 1100 981 l 257
 933 995 l 257
 1038 853 l 257
 1070 785 1070 785 1085 709 c 128
 1100 633 1100 633 1100 551 c 257
 1100 435 1100 435 1071 331 c 128
 1042 227 1042 227 981 150 c 128
 920 73 920 73 825.5 28 c 128
 731 -17 731 -17 600 -17 c 257
 469 -17 469 -17 374.5 30 c 128
 280 77 280 77 219 155.5 c 128
 158 234 158 234 129 337 c 128
 100 440 100 440 100 551 c 257
NamedP: "hr00"
270 551 m 257
 270 475 270 475 290 398 c 128
 310 321 310 321 350.5 260 c 128
 391 199 391 199 453.5 161 c 128
 516 123 516 123 600 123 c 257
 684 123 684 123 746.5 161 c 128
 809 199 809 199 849.5 260 c 128
 890 321 890 321 910 398 c 128
 930 475 930 475 930 551 c 257
 930 629 930 629 910 706 c 128
 890 783 890 783 849.5 844 c 128
 809 905 809 905 746.5 943 c 128
 684 981 684 981 600 981 c 257
 516 981 516 981 453.5 942.5 c 128
 391 904 391 904 350.5 842.5 c 128
 310 781 310 781 290 704 c 128
 270 627 270 627 270 551 c 257
EndSplineSet
PickledDataWithLists: "(dp0
Vcom.adobe.type.autohint
p1
(c_codecs
encode
p2
(Vdata
p3
Vlatin1
p4
tp5
Rp6
g2
(V<data>\\u000a        <hintSetList>\\u000a          <hintset pointTag=\"hr00\">\\u000a            <hstem pos=\"-20\" width=\"140\"/>\\u000a            <hstem pos=\"980\" width=\"140\"/>\\u000a            <vstem pos=\"100\" width=\"170\"/>\\u000a            <vstem pos=\"930\" width=\"170\"/>\\u000a          </hintset>\\u000a        </hintSetList>\\u000a      </data>
p7
g4
tp8
Rp9
Ntp10
s."
EndChar
StartChar: tau
Encoding: 513 964 513
GlifName: tau
Width: 1100
VWidth: 0
Flags: W
LayerCount: 2
Fore
SplineSet
980 942 m 257
 1000 1100 l 257
 120 1100 l 257
 100 942 l 257
 467 942 l 257
 467 303 l 258
 467 179 467 179 484 106 c 0
 501 33 501 33 547 0 c 257
 758 0 l 257
 699 80 699 80 679 134.5 c 0
 659 189 659 189 659 265 c 258
 659 942 l 257
 980 942 l 257
EndSplineSet
EndChar
StartChar: upsilon
Encoding: 553 965 553
GlifName: upsilon
Width: 1200
VWidth: 0
Flags: W
LayerCount: 2
Fore
SplineSet
400 497 m 257
 400 434 400 434 406 383 c 0
 412 332 412 332 429 283 c 0
 446 234 446 234 473.5 201.5 c 0
 501 169 501 169 545.5 149 c 0
 590 129 590 129 650 129 c 256
 726 129 726 129 777.5 158.5 c 0
 829 188 829 188 854.5 243 c 0
 880 298 880 298 890 358 c 0
 900 418 900 418 900 497 c 257
 900 732 l 257
 900 793 900 793 885 842.5 c 0
 870 892 870 892 847.5 921.5 c 0
 825 951 825 951 797 971.5 c 0
 769 992 769 992 745 999.5 c 0
 721 1007 721 1007 700 1007 c 257
 700 1117 l 257
 870 1117 870 1117 980 1020 c 0
 1090 923 1090 923 1090 759 c 258
 1090 495 l 257
 1090 450 1090 450 1088.5 416 c 0
 1087 382 1087 382 1077.5 325 c 0
 1068 268 1068 268 1052 226 c 0
 1036 184 1036 184 1003 135.5 c 0
 970 87 970 87 925 56 c 0
 880 25 880 25 809.5 4 c 0
 739 -17 739 -17 650 -17 c 256
 212 -17 212 -17 212 495 c 257
 212 845 l 257
 212 974 212 974 124 974 c 256
 75 974 75 974 45 939 c 0
 15 904 15 904 15 845 c 257
 -99 845 l 257
 -99 954 -99 954 -36.5 1035.5 c 0
 26 1117 26 1117 132 1117 c 256
 251 1117 251 1117 325.5 1041.5 c 0
 400 966 400 966 400 845 c 257
 400 497 l 257
EndSplineSet
EndChar
StartChar: theta1
Encoding: 518 977 518
GlifName: theta1
Width: 1300
VWidth: 0
Flags: W
LayerCount: 2
Fore
SplineSet
309 484 m 257
 342 334 342 334 414.5 240 c 0
 487 146 487 146 600 146 c 256
 693 146 693 146 764.5 214.5 c 0
 836 283 836 283 875 395.5 c 0
 914 508 914 508 924 650 c 257
 500 650 l 258
 431 650 431 650 377.5 657 c 0
 324 664 324 664 270 685.5 c 0
 216 707 216 707 180 742.5 c 0
 144 778 144 778 122 838.5 c 0
 100 899 100 899 100 980 c 256
 100 1055 100 1055 123 1131.5 c 0
 146 1208 146 1208 190 1277 c 0
 234 1346 234 1346 294 1400 c 0
 354 1454 354 1454 433.5 1485.5 c 0
 513 1517 513 1517 600 1517 c 256
 702 1517 702 1517 785.5 1474.5 c 0
 869 1432 869 1432 924.5 1362.5 c 0
 980 1293 980 1293 1019 1198.5 c 0
 1058 1104 1058 1104 1076.5 1005 c 0
 1095 906 1095 906 1099 800 c 257
 1322 800 l 257
 1302 650 l 257
 1096 650 l 257
 1089 548 1089 548 1068 455 c 0
 1047 362 1047 362 1007.5 274.5 c 0
 968 187 968 187 913 123.5 c 0
 858 60 858 60 777.5 21.5 c 0
 697 -17 697 -17 600 -17 c 256
 510 -17 510 -17 434.5 15 c 0
 359 47 359 47 304.5 105.5 c 0
 250 164 250 164 211.5 236 c 0
 173 308 173 308 147 397 c 257
 309 484 l 257
600 1354 m 256
 504 1354 504 1354 427 1297.5 c 0
 350 1241 350 1241 310.5 1154.5 c 0
 271 1068 271 1068 271 972 c 256
 271 944 271 944 276.5 921 c 0
 282 898 282 898 289 881 c 0
 296 864 296 864 312.5 851 c 0
 329 838 329 838 341.5 829.5 c 0
 354 821 354 821 381 815 c 0
 408 809 408 809 425.5 806 c 0
 443 803 443 803 478.5 801.5 c 0
 514 800 514 800 535 800 c 0
 556 800 556 800 600 800 c 258
 925 800 l 257
 920 912 920 912 897.5 1010 c 0
 875 1108 875 1108 836.5 1186 c 0
 798 1264 798 1264 737 1309 c 0
 676 1354 676 1354 600 1354 c 256
EndSplineSet
EndChar
StartChar: phi1
Encoding: 418 981 418
GlifName: phi1
Width: 1500
VWidth: 0
Flags: W
LayerCount: 2
Fore
SplineSet
651 -500 m 257
 843 -500 l 257
 843 -3 l 257
 945 8 945 8 1034.5 44.5 c 0
 1124 81 1124 81 1194.5 141.5 c 0
 1265 202 1265 202 1306 293 c 0
 1347 384 1347 384 1347 495 c 256
 1347 626 1347 626 1279 739 c 0
 1211 852 1211 852 1100.5 916.5 c 0
 990 981 990 981 867 981 c 256
 825 981 825 981 789 972 c 0
 753 963 753 963 721 942.5 c 0
 689 922 689 922 670 884 c 0
 651 846 651 846 651 794 c 258
 651 140 l 257
 508 163 508 163 413.5 254 c 0
 319 345 319 345 319 495 c 256
 319 548 319 548 331.5 593.5 c 0
 344 639 344 639 359 667.5 c 0
 374 696 374 696 403 724.5 c 0
 432 753 432 753 448.5 765.5 c 0
 465 778 465 778 496 799 c 257
 400 917 l 257
 369 901 369 901 338.5 879 c 0
 308 857 308 857 272.5 819.5 c 0
 237 782 237 782 211 737.5 c 0
 185 693 185 693 167.5 629.5 c 0
 150 566 150 566 150 495 c 256
 150 384 150 384 190.5 293.5 c 0
 231 203 231 203 301 142.5 c 0
 371 82 371 82 460 45.5 c 0
 549 9 549 9 651 -3 c 257
 651 -500 l 257
906 835 m 256
 1010 835 1010 835 1093.5 734 c 0
 1177 633 1177 633 1177 495 c 256
 1177 417 1177 417 1150 353.5 c 0
 1123 290 1123 290 1076 247.5 c 0
 1029 205 1029 205 970 177.5 c 0
 911 150 911 150 842 138 c 257
 842 775 l 258
 842 835 842 835 906 835 c 256
EndSplineSet
EndChar
StartChar: endash
Encoding: 247 8211 247
GlifName: endash
Width: 1100
VWidth: 0
Flags: W
LayerCount: 2
Fore
SplineSet
0 446 m 257
 1000 446 l 257
 1000 600 l 257
 0 600 l 257
 0 446 l 257
EndSplineSet
EndChar
StartChar: dblverticalbar
Encoding: 218 8214 218
GlifName: dblverticalbar
Width: 800
VWidth: 0
Flags: W
LayerCount: 2
Fore
SplineSet
355 1500 m 257
 355 0 l 257
 200 0 l 257
 200 1500 l 257
 355 1500 l 257
655 1500 m 257
 655 0 l 257
 500 0 l 257
 500 1500 l 257
 655 1500 l 257
EndSplineSet
EndChar
StartChar: quotesinglbase
Encoding: 445 8218 445
GlifName: quotesinglbase
Width: 700
VWidth: 0
Flags: W
LayerCount: 2
Fore
SplineSet
176 105 m 256
 176 51 176 51 209.5 18.5 c 0
 243 -14 243 -14 288 -16 c 257
 288 -59 288 -59 271 -115 c 0
 254 -171 254 -171 237 -205.5 c 0
 220 -240 l 257
 264 -260 l 257
 361 -172 361 -172 393 -91 c 0
 425 -10 425 -10 425 91 c 256
 425 155 425 155 389 190.5 c 0
 353 226 353 226 300 226 c 256
 250 226 250 226 213 190 c 0
 176 154 176 154 176 105 c 256
EndSplineSet
EndChar
StartChar: daggerdbl
Encoding: 216 8225 216
GlifName: daggerdbl
Width: 1000
VWidth: 0
Flags: W
LayerCount: 2
Fore
SplineSet
100 1049 m 257
NamedP: "at02"
 400 1049 l 257
NamedP: "dh01"
 400 1500 l 257
 600 1520 l 257
NamedP: "at01"
 600 1049 l 257
NamedP: "dh02"
 920 1049 l 257
 900 900 l 257
NamedP: "sv01"
 600 900 l 257
NamedP: "sh01"
 600 300 l 257
 900 300 l 257
NamedP: "dv02"
 900 150 l 257
NamedP: "dv01"
 600 150 l 257
NamedP: "sh02"
 600 -400 l 257
NamedP: "av01"
 400 -400 l 257
NamedP: "sh03"
 400 150 l 257
NamedP: "sv02"
 100 150 l 257
 100 300 l 257
NamedP: "sv03"
 400 300 l 257
NamedP: "sh04"
 400 900 l 257
NamedP: "sv04"
 100 900 l 257
NamedP: "sv05"
 100 1049 l 257
NamedP: "at02"
EndSplineSet
PickledDataWithLists: "(dp0
Vcom.adobe.type.autohint
p1
(c_codecs
encode
p2
(Vdata
p3
Vlatin1
p4
tp5
Rp6
g2
(V<data>\\u000a        <hintSetList>\\u000a          <hintset pointTag=\"at02\">\\u000a            <hstem pos=\"-379\" width=\"-21\"/>\\u000a            <hstem pos=\"150\" width=\"150\"/>\\u000a            <hstem pos=\"900\" width=\"149\"/>\\u000a            <hstem pos=\"1520\" width=\"-20\"/>\\u000a            <vstem pos=\"400\" width=\"200\"/>\\u000a          </hintset>\\u000a        </hintSetList>\\u000a      </data>
p7
g4
tp8
Rp9
Ntp10
sVcom.fontlab.ttprogram
p11
(g2
(Vdata
p12
g4
tp13
Rp14
g2
(V<data>\\u000a        <ttProgram>\\u000a          <ttc code=\"doubleh\" point1=\"dh01\" point2=\"dh02\" stem=\"X: 208\"/>\\u000a          <ttc code=\"singleh\" point1=\"dh02\" point2=\"sh01\"/>\\u000a          <ttc code=\"singleh\" point1=\"dh02\" point2=\"sh02\"/>\\u000a          <ttc code=\"singleh\" point1=\"dh01\" point2=\"sh03\"/>\\u000a          <ttc code=\"singleh\" point1=\"dh01\" point2=\"sh04\"/>\\u000a          <ttc align=\"round\" code=\"alignv\" point=\"av01\"/>\\u000a          <ttc code=\"alignt\" point=\"at01\" zone=\"t: 1\"/>\\u000a          <ttc code=\"alignt\" point=\"at02\" zone=\"t: x\"/>\\u000a          <ttc code=\"alignt\" point=\"dh02\" zone=\"t: x\"/>\\u000a          <ttc code=\"doublev\" point1=\"dv01\" point2=\"dv02\" stem=\"Y: 153\"/>\\u000a          <ttc code=\"singlev\" point1=\"dh02\" point2=\"sv01\" stem=\"Y: 153\"/>\\u000a          <ttc code=\"singlev\" point1=\"dv01\" point2=\"sv02\"/>\\u000a          <ttc code=\"singlev\" point1=\"dv02\" point2=\"sv03\"/>\\u000a          <ttc code=\"singlev\" point1=\"sv01\" point2=\"sv04\"/>\\u000a          <ttc code=\"singlev\" point1=\"sv04\" point2=\"sv05\"/>\\u000a        </ttProgram>\\u000a      </data>
p15
g4
tp16
Rp17
Ntp18
s."
EndChar
StartChar: bullet
Encoding: 174 8226 174
GlifName: bullet
Width: 1200
VWidth: 0
Flags: W
LayerCount: 2
Fore
SplineSet
298 807 m 256
 298 686 298 686 386 597 c 0
 474 508 474 508 595 508 c 256
 714 508 714 508 800 597 c 0
 886 686 886 686 886 807 c 256
 886 927 886 927 799 1013.5 c 0
 712 1100 712 1100 592 1100 c 256
 472 1100 472 1100 385 1013.5 c 0
 298 927 298 927 298 807 c 256
EndSplineSet
EndChar
StartChar: guilsinglleft
Encoding: 298 8249 298
GlifName: guilsinglleft
Width: 900
VWidth: 0
Flags: W
LayerCount: 2
Fore
SplineSet
670 1026 m 257
 720 901 l 257
 395 610 l 257
 257 550 l 257
 394 490 l 257
 722 201 l 257
 668 66 l 257
 200 478 l 257
 200 617 l 257
 670 1026 l 257
EndSplineSet
EndChar
StartChar: guilsinglright
Encoding: 299 8250 299
GlifName: guilsinglright
Width: 900
VWidth: 0
Flags: W
LayerCount: 2
Fore
SplineSet
700 617 m 257
 700 478 l 257
 232 66 l 257
 178 201 l 257
 506 490 l 257
 643 550 l 257
 505 610 l 257
 180 901 l 257
 230 1026 l 257
 700 617 l 257
EndSplineSet
EndChar
StartChar: zerosuperior
Encoding: 589 8304 589
GlifName: zerosuperior
Width: 800
VWidth: 0
Flags: W
LayerCount: 2
Fore
SplineSet
300 711 m 257
NamedP: "hr00"
 257 711 257 711 221.5 727.5 c 128
 186 744 186 744 158 772 c 128
 130 800 130 800 108.5 837.5 c 128
 87 875 87 875 73 917.5 c 128
 59 960 59 960 52 1005.5 c 128
 45 1051 45 1051 45 1095 c 257
 45 1140 45 1140 51 1186 c 128
 57 1232 57 1232 70 1274.5 c 128
 83 1317 83 1317 103 1354 c 128
 123 1391 123 1391 151.5 1418.5 c 128
 180 1446 180 1446 216.5 1462 c 128
 253 1478 253 1478 300 1478 c 257
 342 1478 342 1478 377.5 1462 c 128
 413 1446 413 1446 441.5 1418 c 128
 470 1390 470 1390 491 1352.5 c 128
 512 1315 512 1315 526.5 1272 c 128
 541 1229 541 1229 548 1183.5 c 128
 555 1138 555 1138 555 1095 c 257
 555 1050 555 1050 549 1004 c 128
 543 958 543 958 530 915.5 c 128
 517 873 517 873 496.5 835.5 c 128
 476 798 476 798 448 770.5 c 128
 420 743 420 743 383 727 c 128
 346 711 346 711 300 711 c 257
NamedP: "hr00"
148 1116 m 257
 148 1087 148 1087 150 1052.5 c 128
 152 1018 152 1018 158 982.5 c 128
 164 947 164 947 175 914 c 128
 186 881 186 881 203 855.5 c 128
 220 830 220 830 245 814.5 c 128
 270 799 270 799 304 799 c 257
 334 799 334 799 357 810.5 c 128
 380 822 380 822 396.5 842.5 c 128
 413 863 413 863 423.5 889.5 c 128
 434 916 434 916 440 946.5 c 128
 446 977 446 977 448.5 1009.5 c 128
 451 1042 451 1042 451 1073 c 257
 451 1102 451 1102 449 1137 c 128
 447 1172 447 1172 441 1207 c 128
 435 1242 435 1242 424.5 1275 c 128
 414 1308 414 1308 396.5 1333.5 c 128
 379 1359 379 1359 354.5 1374.5 c 128
 330 1390 330 1390 296 1390 c 257
 265 1390 265 1390 242.5 1378.5 c 128
 220 1367 220 1367 203.5 1347 c 128
 187 1327 187 1327 176.5 1300 c 128
 166 1273 166 1273 159.5 1242.5 c 128
 153 1212 153 1212 150.5 1179.5 c 128
 148 1147 148 1147 148 1116 c 257
EndSplineSet
PickledDataWithLists: "(dp0
Vcom.adobe.type.autohint
p1
(c_codecs
encode
p2
(Vdata
p3
Vlatin1
p4
tp5
Rp6
g2
(V<data>\\u000a        <hintSetList>\\u000a          <hintset pointTag=\"hr00\">\\u000a            <hstem pos=\"711\" width=\"88\"/>\\u000a            <hstem pos=\"1390\" width=\"88\"/>\\u000a            <vstem pos=\"45\" width=\"103\"/>\\u000a            <vstem pos=\"451\" width=\"104\"/>\\u000a          </hintset>\\u000a        </hintSetList>\\u000a      </data>
p7
g4
tp8
Rp9
Ntp10
s."
EndChar
StartChar: ismallsuperior
Encoding: 324 8305 324
GlifName: ismallsuperior
Width: 300
VWidth: 0
Flags: W
LayerCount: 2
Fore
SplineSet
195 720 m 257
NamedP: "hr00"
 100 720 l 257
 100 1247 l 257
 195 1257 l 257
 195 720 l 257
NamedP: "hr00"
97 1470 m 257
 198 1470 l 257
 198 1370 l 257
 97 1370 l 257
 97 1470 l 257
EndSplineSet
PickledDataWithLists: "(dp0
Vcom.adobe.type.autohint
p1
(c_codecs
encode
p2
(Vdata
p3
Vlatin1
p4
tp5
Rp6
g2
(V<data>\\u000a        <hintSetList>\\u000a          <hintset pointTag=\"hr00\">\\u000a            <hstem pos=\"730\" width=\"-10\"/>\\u000a            <hstem pos=\"1370\" width=\"100\"/>\\u000a            <vstem pos=\"100\" width=\"95\"/>\\u000a          </hintset>\\u000a        </hintSetList>\\u000a      </data>
p7
g4
tp8
Rp9
Ntp10
s."
EndChar
StartChar: sevensuperior
Encoding: 475 8311 475
GlifName: sevensuperior
Width: 600
VWidth: 0
Flags: W
LayerCount: 2
Fore
SplineSet
100 1470 m 257
NamedP: "hr00"
 550 1470 l 257
 550 1405 l 257
 550 1383 550 1383 533.5 1349.5 c 128
 517 1316 517 1316 492 1274 c 128
 467 1232 467 1232 437.5 1183.5 c 128
 408 1135 408 1135 381 1084.5 c 128
 354 1034 354 1034 334 983 c 128
 314 932 314 932 309 884 c 257
 306 864 306 864 305 842 c 128
 304 820 304 820 303 798.5 c 128
 302 777 302 777 302 757 c 128
 302 737 302 737 302 720 c 257
 200 720 l 257
 200 735 200 735 200 760 c 128
 200 785 200 785 201 813 c 128
 202 841 202 841 204.5 868.5 c 128
 207 896 207 896 211 916 c 257
 222 969 222 969 243.5 1021 c 128
 265 1073 265 1073 290.5 1120.5 c 128
 316 1168 316 1168 342.5 1210.5 c 128
 369 1253 369 1253 390.5 1288 c 128
 412 1323 412 1323 425.5 1349 c 128
 439 1375 439 1375 439 1390 c 257
 100 1390 l 257
 100 1470 l 257
NamedP: "hr00"
EndSplineSet
PickledDataWithLists: "(dp0
Vcom.adobe.type.autohint
p1
(c_codecs
encode
p2
(Vdata
p3
Vlatin1
p4
tp5
Rp6
g2
(V<data>\\u000a        <hintSetList>\\u000a          <hintset pointTag=\"hr00\">\\u000a            <hstem pos=\"730\" width=\"-10\"/>\\u000a            <hstem pos=\"1390\" width=\"80\"/>\\u000a            <vstem pos=\"200\" width=\"102\"/>\\u000a            <vstem pos=\"439\" width=\"111\"/>\\u000a          </hintset>\\u000a        </hintSetList>\\u000a      </data>
p7
g4
tp8
Rp9
Ntp10
s."
EndChar
StartChar: eightsuperior
Encoding: 238 8312 238
GlifName: eightsuperior
Width: 600
VWidth: 0
Flags: W
LayerCount: 2
Fore
SplineSet
305 1478 m 257
NamedP: "hr00"
 351 1478 351 1478 390 1465.5 c 128
 429 1453 429 1453 457 1429.5 c 128
 485 1406 485 1406 501 1372.5 c 128
 517 1339 517 1339 517 1297 c 257
 517 1268 517 1268 508.5 1245 c 128
 500 1222 500 1222 485 1203.5 c 128
 470 1185 470 1185 450 1170.5 c 128
 430 1156 430 1156 408 1143 c 257
 445 1126 445 1126 474.5 1105 c 128
 504 1084 504 1084 524 1057 c 128
 544 1030 544 1030 555 997 c 128
 566 964 566 964 566 925 c 257
 566 869 566 869 544 829 c 128
 522 789 522 789 485.5 762.5 c 128
 449 736 449 736 403 723.5 c 128
 357 711 357 711 308 711 c 257
 261 711 261 711 217 725.5 c 128
 173 740 173 740 139 767.5 c 128
 105 795 105 795 84.5 836.5 c 128
 64 878 64 878 64 932 c 257
 64 972 64 972 75.5 1004.5 c 128
 87 1037 87 1037 107 1063 c 128
 127 1089 127 1089 154.5 1109 c 128
 182 1129 182 1129 214 1145 c 257
 191 1159 191 1159 170.5 1174.5 c 128
 150 1190 150 1190 135 1208 c 128
 120 1226 120 1226 111 1246.5 c 128
 102 1267 102 1267 102 1292 c 257
 102 1340 102 1340 121.5 1375.5 c 128
 141 1411 141 1411 171 1433.5 c 128
 201 1456 201 1456 236.5 1467 c 128
 272 1478 272 1478 305 1478 c 257
NamedP: "hr00"
300 1100 m 257
 268 1086 268 1086 243 1070 c 128
 218 1054 218 1054 200 1033 c 128
 182 1012 182 1012 172.5 986 c 128
 163 960 163 960 163 927 c 257
 163 897 163 897 175 872.5 c 128
 187 848 187 848 207.5 830 c 128
 228 812 228 812 254.5 802.5 c 128
 281 793 281 793 309 793 c 257
 341 793 341 793 369.5 802 c 128
 398 811 398 811 420 828 c 128
 442 845 442 845 454.5 870 c 128
 467 895 467 895 467 927 c 257
 467 961 467 961 452 987 c 128
 437 1013 437 1013 413.5 1034 c 128
 390 1055 390 1055 360 1071 c 128
 330 1087 330 1087 300 1100 c 257
320 1181 m 257
 366 1202 366 1202 393.5 1231 c 128
 421 1260 421 1260 421 1301 c 257
 421 1326 421 1326 410.5 1344 c 128
 400 1362 400 1362 384.5 1373.5 c 128
 369 1385 369 1385 350.5 1390.5 c 128
 332 1396 332 1396 315 1396 c 257
 292 1396 292 1396 271 1389 c 128
 250 1382 250 1382 234 1369.5 c 128
 218 1357 218 1357 208.5 1340 c 128
 199 1323 199 1323 199 1303 c 257
 199 1280 199 1280 208.5 1262.5 c 128
 218 1245 218 1245 235 1230.5 c 128
 252 1216 252 1216 274 1204 c 128
 296 1192 296 1192 320 1181 c 257
EndSplineSet
PickledDataWithLists: "(dp0
Vcom.adobe.type.autohint
p1
(c_codecs
encode
p2
(Vdata
p3
Vlatin1
p4
tp5
Rp6
g2
(V<data>\\u000a        <hintSetList>\\u000a          <hintset pointTag=\"hr00\">\\u000a            <hstem pos=\"711\" width=\"82\"/>\\u000a            <hstem pos=\"1396\" width=\"82\"/>\\u000a            <vstem pos=\"64\" width=\"99\"/>\\u000a            <vstem pos=\"467\" width=\"99\"/>\\u000a          </hintset>\\u000a        </hintSetList>\\u000a      </data>
p7
g4
tp8
Rp9
Ntp10
s."
EndChar
StartChar: ninesuperior
Encoding: 364 8313 364
GlifName: ninesuperior
Width: 600
VWidth: 0
Flags: W
LayerCount: 2
Fore
SplineSet
424 1051 m 257
NamedP: "hr00"
 394 1028 394 1028 364.5 1017 c 128
 335 1006 335 1006 297 1006 c 257
 248 1006 248 1006 205.5 1022.5 c 128
 163 1039 163 1039 131.5 1069 c 128
 100 1099 100 1099 82 1141 c 128
 64 1183 64 1183 64 1235 c 257
 64 1289 64 1289 81.5 1333.5 c 128
 99 1378 99 1378 130.5 1410.5 c 128
 162 1443 162 1443 207.5 1460.5 c 128
 253 1478 253 1478 309 1478 c 257
 359 1478 359 1478 397 1462.5 c 128
 435 1447 435 1447 463 1421.5 c 128
 491 1396 491 1396 510 1363 c 128
 529 1330 529 1330 540 1294.5 c 128
 551 1259 551 1259 556 1224 c 128
 561 1189 561 1189 561 1160 c 257
 561 1101 561 1101 549 1046 c 128
 537 991 537 991 514.5 942 c 128
 492 893 492 893 459 852 c 128
 426 811 426 811 383.5 780.5 c 128
 341 750 341 750 290 732 c 128
 239 714 239 714 180 711 c 257
 165 795 l 257
 225 798 225 798 277.5 823.5 c 128
 330 849 330 849 370.5 891 c 128
 411 933 411 933 435.5 989.5 c 128
 460 1046 460 1046 464 1110 c 257
 424 1051 l 257
NamedP: "hr00"
458 1196 m 257
 456 1234 456 1234 446.5 1269 c 128
 437 1304 437 1304 419.5 1332 c 128
 402 1360 402 1360 375.5 1376.5 c 128
 349 1393 349 1393 313 1393 c 257
 279 1393 279 1393 252 1382 c 128
 225 1371 225 1371 206 1351.5 c 128
 187 1332 187 1332 176.5 1304.5 c 128
 166 1277 166 1277 166 1244 c 257
 166 1212 166 1212 174.5 1184 c 128
 183 1156 183 1156 199.5 1135.5 c 128
 216 1115 216 1115 242 1103 c 128
 268 1091 268 1091 302 1091 c 257
 329 1091 329 1091 353 1099.5 c 128
 377 1108 377 1108 397.5 1122.5 c 128
 418 1137 418 1137 433.5 1156 c 128
 449 1175 449 1175 458 1196 c 257
EndSplineSet
PickledDataWithLists: "(dp0
Vcom.adobe.type.autohint
p1
(c_codecs
encode
p2
(Vdata
p3
Vlatin1
p4
tp5
Rp6
g2
(V<data>\\u000a        <hintSetList>\\u000a          <hintset pointTag=\"hr00\">\\u000a            <hstem pos=\"711\" width=\"84\"/>\\u000a            <hstem pos=\"1006\" width=\"85\"/>\\u000a            <hstem pos=\"1393\" width=\"85\"/>\\u000a            <vstem pos=\"64\" width=\"102\"/>\\u000a            <vstem pos=\"458\" width=\"103\"/>\\u000a          </hintset>\\u000a        </hintSetList>\\u000a      </data>
p7
g4
tp8
Rp9
Ntp10
s."
EndChar
StartChar: oneinferior
Encoding: 387 8321 387
GlifName: oneinferior
Width: 600
VWidth: 0
Flags: W
LayerCount: 2
Fore
SplineSet
175 -500 m 257
NamedP: "hr00"
 175 -420 l 257
 297 -420 l 257
 297 63 l 257
 326 176 l 257
 258 83 l 257
 152 -11 l 257
 98 50 l 257
 327 260 l 257
 402 250 l 257
 402 -420 l 257
 525 -420 l 257
 525 -500 l 257
 175 -500 l 257
NamedP: "hr00"
EndSplineSet
PickledDataWithLists: "(dp0
Vcom.adobe.type.autohint
p1
(c_codecs
encode
p2
(Vdata
p3
Vlatin1
p4
tp5
Rp6
g2
(V<data>\\u000a        <hintSetList>\\u000a          <hintset pointTag=\"hr00\">\\u000a            <hstem pos=\"-500\" width=\"80\"/>\\u000a            <hstem pos=\"260\" width=\"-10\"/>\\u000a            <vstem pos=\"297\" width=\"105\"/>\\u000a          </hintset>\\u000a        </hintSetList>\\u000a      </data>
p7
g4
tp8
Rp9
Ntp10
s."
EndChar
StartChar: sixinferior
Encoding: 482 8326 482
GlifName: sixinferior
Width: 600
VWidth: 0
Flags: W
LayerCount: 2
Fore
SplineSet
464 172 m 257
NamedP: "hr00"
 461 173 461 173 454 173 c 128
 447 173 447 173 442 173 c 257
 406 173 406 173 372 162 c 128
 338 151 338 151 308 130.5 c 128
 278 110 278 110 252.5 81.5 c 128
 227 53 227 53 208 18.5 c 128
 189 -16 189 -16 176.5 -55 c 128
 164 -94 164 -94 160 -135 c 257
 201 -77 l 257
 214 -69 214 -69 230.5 -61.5 c 128
 247 -54 247 -54 265.5 -48.5 c 128
 284 -43 284 -43 303 -40 c 128
 322 -37 322 -37 339 -37 c 257
 383 -37 383 -37 423 -49 c 128
 463 -61 463 -61 494.5 -86 c 128
 526 -111 526 -111 544.5 -150 c 128
 563 -189 563 -189 563 -244 c 257
 563 -298 563 -298 545 -346 c 128
 527 -394 527 -394 494 -430.5 c 128
 461 -467 461 -467 415 -488 c 128
 369 -509 369 -509 313 -509 c 257
 264 -509 264 -509 226 -493 c 128
 188 -477 188 -477 160 -451 c 128
 132 -425 132 -425 113.5 -391.5 c 128
 95 -358 95 -358 83 -323 c 128
 71 -288 71 -288 66 -253.5 c 128
 61 -219 61 -219 61 -190 c 257
 61 -131 61 -131 73.5 -74.5 c 128
 86 -18 86 -18 109 32 c 128
 132 82 132 82 165.5 123.5 c 128
 199 165 199 165 242 195 c 128
 285 225 285 225 336 241.5 c 128
 387 258 387 258 446 258 c 257
 454 258 454 258 463 258 c 128
 472 258 472 258 477 257 c 257
 464 172 l 257
NamedP: "hr00"
164 -202 m 257
 164 -216 164 -216 164.5 -227.5 c 128
 165 -239 165 -239 166 -250 c 128
 167 -261 167 -261 169 -272 c 128
 171 -283 171 -283 175 -297 c 257
 182 -325 182 -325 194 -348.5 c 128
 206 -372 206 -372 223 -388.5 c 128
 240 -405 240 -405 263 -414.5 c 128
 286 -424 286 -424 314 -424 c 257
 354 -424 354 -424 381.5 -409 c 128
 409 -394 409 -394 426.5 -369 c 128
 444 -344 444 -344 452.5 -312.5 c 128
 461 -281 461 -281 461 -249 c 257
 461 -217 461 -217 451.5 -193 c 128
 442 -169 442 -169 425 -153.5 c 128
 408 -138 408 -138 384.5 -130 c 128
 361 -122 361 -122 332 -122 c 257
 305 -122 305 -122 279.5 -128.5 c 128
 254 -135 254 -135 231.5 -146 c 128
 209 -157 209 -157 192 -171.5 c 128
 175 -186 175 -186 164 -202 c 257
EndSplineSet
PickledDataWithLists: "(dp0
Vcom.adobe.type.autohint
p1
(c_codecs
encode
p2
(Vdata
p3
Vlatin1
p4
tp5
Rp6
g2
(V<data>\\u000a        <hintSetList>\\u000a          <hintset pointTag=\"hr00\">\\u000a            <hstem pos=\"-509\" width=\"85\"/>\\u000a            <hstem pos=\"-122\" width=\"85\"/>\\u000a            <hstem pos=\"173\" width=\"85\"/>\\u000a            <vstem pos=\"61\" width=\"103\"/>\\u000a            <vstem pos=\"461\" width=\"102\"/>\\u000a          </hintset>\\u000a        </hintSetList>\\u000a      </data>
p7
g4
tp8
Rp9
Ntp10
s."
EndChar
StartChar: indianrupee
Encoding: 318 8377 318
GlifName: indianrupee
Width: 1200
VWidth: 0
Flags: W
LayerCount: 2
Fore
SplineSet
362 1350 m 258
 465 1350 465 1350 520 1314 c 256
 607 1257 607 1257 628 1151 c 257
 210 1151 l 257
 170 1000 l 257
 625 1000 l 257
 600 894 600 894 511.5 829.5 c 0
 423 765 423 765 278 765 c 258
 200 765 l 257
 200 614 l 257
 250 614 l 258
 282 614 282 614 297 595 c 258
 740 0 l 257
 963 0 l 257
 520 593 l 257
 378 633 l 257
 543 662 543 662 651 736 c 0
 759 810 759 810 807 955 c 257
 746 1016 l 257
 846 1000 l 257
 1000 1000 l 257
 1079 1151 l 257
 818 1151 l 257
 813 1250 813 1250 761 1309 c 257
 686 1375 l 257
 790 1350 l 257
 1000 1350 l 257
 1078 1500 l 257
 210 1500 l 257
 170 1350 l 257
 362 1350 l 258
EndSplineSet
EndChar
StartChar: Ifraktur
Encoding: 38 8465 38
GlifName: I_fraktur
Width: 1100
VWidth: 0
Flags: W
LayerCount: 2
Fore
SplineSet
248 1400 m 257
 958 1400 l 257
 932 1216 l 257
 851 1168 851 1168 785.5 1081.5 c 0
 720 995 720 995 720 926 c 256
 720 878 720 878 749 815.5 c 0
 778 753 778 753 819 688.5 c 0
 860 624 860 624 901 555.5 c 0
 942 487 942 487 971 406 c 0
 1000 325 1000 325 1000 251 c 256
 1000 181 1000 181 966.5 126.5 c 0
 933 72 933 72 880 42.5 c 0
 827 13 827 13 771.5 -2 c 0
 716 -17 716 -17 662 -17 c 256
 569 -17 569 -17 473.5 20.5 c 0
 378 58 378 58 318 102 c 257
 300 200 l 257
 150 66 l 257
 31 156 l 257
 260 353 l 257
 337 280 337 280 466.5 222 c 0
 596 164 596 164 678 164 c 256
 726 164 726 164 758 186 c 0
 790 208 790 208 790 252 c 256
 790 301 790 301 744.5 388 c 0
 699 475 699 475 645 556.5 c 0
 591 638 591 638 545.5 735.5 c 0
 500 833 500 833 500 900 c 256
 500 963 500 963 555.5 1051.5 c 0
 611 1140 611 1140 724 1216 c 257
 300 1216 l 257
 261 1177 261 1177 261 1107 c 256
 261 1087 261 1087 268.5 1062 c 0
 276 1037 276 1037 283 1022 c 0
 290 1007 l 257
 184 947 l 257
 125 1030 125 1030 125 1121 c 256
 125 1251.5 125 1251.5 248 1400 c 257
EndSplineSet
EndChar
StartChar: lsquare
Encoding: 343 8467 343
GlifName: lsquare
Width: 900
VWidth: 0
Flags: W
LayerCount: 2
Fore
SplineSet
100 540 m 257
 200 540 l 257
 200 1000 l 258
 200 1094 200 1094 209.5 1169.5 c 0
 219 1245 219 1245 243 1311.5 c 0
 267 1378 267 1378 305 1422 c 0
 343 1466 343 1466 402.5 1491.5 c 0
 462 1517 462 1517 540 1517 c 256
 660 1517 660 1517 730 1416 c 0
 800 1315 800 1315 800 1100 c 256
 800 1012 800 1012 799.5 964.5 c 0
 799 917 799 917 793 831.5 c 0
 787 746 787 746 776.5 696.5 c 0
 766 647 766 647 744 583 c 0
 722 519 722 519 691 484.5 c 0
 660 450 660 450 611 425 c 0
 562 400 562 400 500 400 c 258
 400 400 l 257
 400 383 l 258
 400 260 400 260 426 207 c 256
 443 174 443 174 471 155 c 256
 503 134 503 134 537 130 c 256
 570 126 570 126 582 126 c 256
 607 126 607 126 640 134 c 0
 673 142 673 142 691 153 c 257
 774 30 l 257
 675 -17 675 -17 530 -17 c 256
 437 -17 437 -17 371 13 c 0
 305 43 305 43 268.5 99 c 0
 232 155 232 155 216 224 c 0
 200 293 200 293 200 383 c 258
 200 400 l 257
 100 400 l 257
 100 540 l 257
450 540 m 257
 500 540 l 258
 522 540 522 540 539 550 c 0
 556 560 556 560 568.5 581.5 c 0
 581 603 581 603 590 626.5 c 0
 599 650 599 650 604.5 687.5 c 0
 610 725 610 725 613 755 c 0
 616 785 616 785 617.5 831.5 c 0
 619 878 619 878 619.5 908 c 0
 620 938 620 938 620 987 c 256
 620 1049 620 1049 619.5 1085 c 0
 619 1121 619 1121 616.5 1172.5 c 0
 614 1224 614 1224 608 1254 c 0
 602 1284 602 1284 592 1314 c 0
 582 1344 582 1344 566 1357.5 c 0
 550 1371 550 1371 528 1371 c 256
 505 1371 505 1371 484 1353.5 c 0
 463 1336 463 1336 443.5 1299.5 c 0
 424 1263 424 1263 412 1196 c 0
 400 1129 400 1129 400 1039 c 258
 400 440 l 257
 450 540 l 257
EndSplineSet
EndChar
StartChar: weierstrass
Encoding: 559 8472 559
GlifName: weierstrass
Width: 1667
VWidth: 0
Flags: W
LayerCount: 2
Fore
SplineSet
339 -358 m 256
 386 -358 386 -358 416 -297 c 0
 446 -236 446 -236 446 -161 c 256
 446 -92 446 -92 426.5 4.5 c 0
 407 101 407 101 382 168 c 257
 382 254 l 257
 314 138 314 138 271.5 9.5 c 0
 229 -119 229 -119 229 -236 c 256
 229 -294 229 -294 258.5 -326 c 0
 288 -358 288 -358 339 -358 c 256
720 1031 m 257
 656 1019 656 1019 595.5 986 c 0
 535 953 535 953 484 903 c 0
 433 853 433 853 402 779 c 0
 371 705 371 705 371 620 c 256
 371 578 371 578 382 528 c 257
 382 406 l 257
 444 504 444 504 503 582.5 c 0
 562 661 562 661 638.5 741.5 c 0
 715 822 715 822 790.5 875.5 c 0
 866 929 866 929 957.5 963 c 0
 1049 997 1049 997 1143 997 c 256
 1301 997 1301 997 1389 906.5 c 0
 1477 816 1477 816 1477 630 c 256
 1477 343 1477 343 1333.5 163 c 0
 1190 -17 1190 -17 955 -17 c 256
 856 -17 856 -17 777 49 c 0
 698 115 698 115 698 221 c 256
 698 305 698 305 727.5 374.5 c 0
 757 444 757 444 797.5 484.5 c 0
 838 525 838 525 889 554.5 c 0
 940 584 940 584 974.5 595 c 0
 1009 606 1009 606 1035 610 c 257
 1065 470 l 257
 827 369 827 369 827 194 c 256
 827 146 827 146 861 118.5 c 0
 895 91 895 91 945 91 c 256
 1021 91 1021 91 1083 128.5 c 0
 1145 166 1145 166 1183.5 223.5 c 0
 1222 281 1222 281 1248 355.5 c 0
 1274 430 1274 430 1284.5 499 c 0
 1295 568 1295 568 1295 633 c 256
 1295 732 1295 732 1254.5 796 c 0
 1214 860 1214 860 1119 860 c 256
 1035 860 1035 860 949.5 825.5 c 0
 864 791 864 791 797 742 c 0
 730 693 730 693 659 618.5 c 0
 588 544 588 544 543 485.5 c 0
 498 427 498 427 446 353 c 257
 498 241 498 241 524.5 177.5 c 0
 551 114 551 114 575.5 20.5 c 0
 600 -73 600 -73 600 -154 c 256
 600 -206 600 -206 591.5 -254.5 c 0
 583 -303 583 -303 562 -351 c 0
 541 -399 541 -399 509 -434.5 c 0
 477 -470 477 -470 427 -492 c 0
 377 -514 377 -514 314 -514 c 256
 204 -514 204 -514 152.5 -444.5 c 0
 101 -375 101 -375 101 -266 c 256
 101 -4 101 -4 313 299 c 257
 223 497 223 497 223 605 c 256
 223 696 223 696 253.5 778.5 c 0
 284 861 284 861 333.5 921.5 c 0
 383 982 383 982 445.5 1027 c 0
 508 1072 508 1072 574 1094.5 c 0
 640 1117 640 1117 700 1117 c 257
 720 1031 l 257
EndSplineSet
EndChar
